<svg viewBox="0 0 330 200" xmlns="http://www.w3.org/2000/svg"><g><g><g><g><g><line x1="58.59375" y1="177.828125" x2="53.59375" y2="177.828125" style="visibility: inherit;" fill="rgb(0, 0, 0)" stroke="rgb(204, 204, 204)" stroke-width="1.3333333730697632px"></line><line x1="58.59375" y1="158.06944444444446" x2="53.59375" y2="158.06944444444446" style="visibility: inherit;" fill="rgb(0, 0, 0)" stroke="rgb(204, 204, 204)" stroke-width="1.3333333730697632px"></line><line x1="58.59375" y1="138.31076388888889" x2="53.59375" y2="138.31076388888889" style="visibility: inherit;" fill="rgb(0, 0, 0)" stroke="rgb(204, 204, 204)" stroke-width="1.3333333730697632px"></line><line x1="58.59375" y1="118.55208333333334" x2="53.59375" y2="118.55208333333334" style="visibility: inherit;" fill="rgb(0, 0, 0)" stroke="rgb(204, 204, 204)" stroke-width="1.3333333730697632px"></line><line x1="58.59375" y1="98.79340277777777" x2="53.59375" y2="98.79340277777777" style="visibility: inherit;" fill="rgb(0, 0, 0)" stroke="rgb(204, 204, 204)" stroke-width="1.3333333730697632px"></line><line x1="58.59375" y1="79.03472222222221" x2="53.59375" y2="79.03472222222221" style="visibility: inherit;" fill="rgb(0, 0, 0)" stroke="rgb(204, 204, 204)" stroke-width="1.3333333730697632px"></line><line x1="58.59375" y1="59.27604166666666" x2="53.59375" y2="59.27604166666666" style="visibility: inherit;" fill="rgb(0, 0, 0)" stroke="rgb(204, 204, 204)" stroke-width="1.3333333730697632px"></line><line x1="58.59375" y1="39.51736111111114" x2="53.59375" y2="39.51736111111114" style="visibility: inherit;" fill="rgb(0, 0, 0)" stroke="rgb(204, 204, 204)" stroke-width="1.3333333730697632px"></line><line x1="58.59375" y1="19.758680555555543" x2="53.59375" y2="19.758680555555543" style="visibility: inherit;" fill="rgb(0, 0, 0)" stroke="rgb(204, 204, 204)" stroke-width="1.3333333730697632px"></line><line x1="58.59375" y1="0" x2="53.59375" y2="0" style="visibility: inherit;" fill="rgb(0, 0, 0)" stroke="rgb(204, 204, 204)" stroke-width="1.3333333730697632px"></line></g><g transform="translate(48.59375, 0)"><text x="0" y="177.828125" dx="0em" dy="0.3em" style="text-anchor: end; visibility: hidden; font-family: &quot;Helvetica Neue&quot;, sans-serif; font-size: 16px; font-weight: 200;" fill="rgb(50, 49, 63)" stroke="none" stroke-width="1.3333333730697632px">-0.02</text><text x="0" y="158.06944444444446" dx="0em" dy="0.3em" style="text-anchor: end; visibility: inherit; font-family: &quot;Helvetica Neue&quot;, sans-serif; font-size: 16px; font-weight: 200;" fill="rgb(50, 49, 63)" stroke="none" stroke-width="1.3333333730697632px">0</text><text x="0" y="138.31076388888889" dx="0em" dy="0.3em" style="text-anchor: end; visibility: hidden; font-family: &quot;Helvetica Neue&quot;, sans-serif; font-size: 16px; font-weight: 200;" fill="rgb(50, 49, 63)" stroke="none" stroke-width="1.3333333730697632px">0.02</text><text x="0" y="118.55208333333334" dx="0em" dy="0.3em" style="text-anchor: end; visibility: inherit; font-family: &quot;Helvetica Neue&quot;, sans-serif; font-size: 16px; font-weight: 200;" fill="rgb(50, 49, 63)" stroke="none" stroke-width="1.3333333730697632px">0.04</text><text x="0" y="98.79340277777777" dx="0em" dy="0.3em" style="text-anchor: end; visibility: hidden; font-family: &quot;Helvetica Neue&quot;, sans-serif; font-size: 16px; font-weight: 200;" fill="rgb(50, 49, 63)" stroke="none" stroke-width="1.3333333730697632px">0.06</text><text x="0" y="79.03472222222221" dx="0em" dy="0.3em" style="text-anchor: end; visibility: inherit; font-family: &quot;Helvetica Neue&quot;, sans-serif; font-size: 16px; font-weight: 200;" fill="rgb(50, 49, 63)" stroke="none" stroke-width="1.3333333730697632px">0.08</text><text x="0" y="59.27604166666666" dx="0em" dy="0.3em" style="text-anchor: end; visibility: hidden; font-family: &quot;Helvetica Neue&quot;, sans-serif; font-size: 16px; font-weight: 200;" fill="rgb(50, 49, 63)" stroke="none" stroke-width="1.3333333730697632px">0.1</text><text x="0" y="39.51736111111114" dx="0em" dy="0.3em" style="text-anchor: end; visibility: inherit; font-family: &quot;Helvetica Neue&quot;, sans-serif; font-size: 16px; font-weight: 200;" fill="rgb(50, 49, 63)" stroke="none" stroke-width="1.3333333730697632px">0.12</text><text x="0" y="19.758680555555543" dx="0em" dy="0.3em" style="text-anchor: end; visibility: hidden; font-family: &quot;Helvetica Neue&quot;, sans-serif; font-size: 16px; font-weight: 200;" fill="rgb(50, 49, 63)" stroke="none" stroke-width="1.3333333730697632px">0.14</text><text x="0" y="0" dx="0em" dy="0.3em" style="text-anchor: end; visibility: hidden; font-family: &quot;Helvetica Neue&quot;, sans-serif; font-size: 16px; font-weight: 200;" fill="rgb(50, 49, 63)" stroke="none" stroke-width="1.3333333730697632px">0.16</text></g><line x1="58.59375" y1="0" x2="58.59375" y2="177.828125" fill="rgb(0, 0, 0)" stroke="rgb(204, 204, 204)" stroke-width="1.3333333730697632px"></line></g></g><g transform="translate(58, 0)" clip-path="url(#clip_0)"><clipPath id="clip_0"><rect width="271" height="177"></rect></clipPath><g><g><g><line x1="0" y1="0" x2="0" y2="177.828125" fill="rgb(0, 0, 0)" stroke="rgb(60, 60, 60)" stroke-width="1.3333333730697632px" opacity="0.25"></line><line x1="30.15625" y1="0" x2="30.15625" y2="177.828125" fill="rgb(0, 0, 0)" stroke="rgb(60, 60, 60)" stroke-width="1.3333333730697632px" opacity="0.25"></line><line x1="60.3125" y1="0" x2="60.3125" y2="177.828125" fill="rgb(0, 0, 0)" stroke="rgb(60, 60, 60)" stroke-width="1.3333333730697632px" opacity="0.25"></line><line x1="90.46875" y1="0" x2="90.46875" y2="177.828125" fill="rgb(0, 0, 0)" stroke="rgb(60, 60, 60)" stroke-width="1.3333333730697632px" opacity="0.25"></line><line x1="120.625" y1="0" x2="120.625" y2="177.828125" fill="rgb(0, 0, 0)" stroke="rgb(60, 60, 60)" stroke-width="1.3333333730697632px" opacity="0.25"></line><line x1="150.78125" y1="0" x2="150.78125" y2="177.828125" fill="rgb(0, 0, 0)" stroke="rgb(60, 60, 60)" stroke-width="1.3333333730697632px" opacity="0.25"></line><line x1="180.9375" y1="0" x2="180.9375" y2="177.828125" fill="rgb(0, 0, 0)" stroke="rgb(60, 60, 60)" stroke-width="1.3333333730697632px" opacity="0.25"></line><line x1="211.09375" y1="0" x2="211.09375" y2="177.828125" fill="rgb(0, 0, 0)" stroke="rgb(60, 60, 60)" stroke-width="1.3333333730697632px" opacity="0.25"></line><line x1="241.25" y1="0" x2="241.25" y2="177.828125" fill="rgb(0, 0, 0)" stroke="rgb(60, 60, 60)" stroke-width="1.3333333730697632px" opacity="0.25"></line><line x1="271.40625" y1="0" x2="271.40625" y2="177.828125" fill="rgb(0, 0, 0)" stroke="rgb(60, 60, 60)" stroke-width="1.3333333730697632px" opacity="0.25"></line></g><g><line x1="0" y1="177.828125" x2="271.40625" y2="177.828125" fill="rgb(0, 0, 0)" stroke="rgb(60, 60, 60)" stroke-width="1.3333333730697632px" opacity="0.25"></line><line x1="0" y1="158.06944444444446" x2="271.40625" y2="158.06944444444446" fill="rgb(0, 0, 0)" stroke="rgb(60, 60, 60)" stroke-width="1.3333333730697632px" opacity="0.25"></line><line x1="0" y1="138.31076388888889" x2="271.40625" y2="138.31076388888889" fill="rgb(0, 0, 0)" stroke="rgb(60, 60, 60)" stroke-width="1.3333333730697632px" opacity="0.25"></line><line x1="0" y1="118.55208333333334" x2="271.40625" y2="118.55208333333334" fill="rgb(0, 0, 0)" stroke="rgb(60, 60, 60)" stroke-width="1.3333333730697632px" opacity="0.25"></line><line x1="0" y1="98.79340277777777" x2="271.40625" y2="98.79340277777777" fill="rgb(0, 0, 0)" stroke="rgb(60, 60, 60)" stroke-width="1.3333333730697632px" opacity="0.25"></line><line x1="0" y1="79.03472222222221" x2="271.40625" y2="79.03472222222221" fill="rgb(0, 0, 0)" stroke="rgb(60, 60, 60)" stroke-width="1.3333333730697632px" opacity="0.25"></line><line x1="0" y1="59.27604166666666" x2="271.40625" y2="59.27604166666666" fill="rgb(0, 0, 0)" stroke="rgb(60, 60, 60)" stroke-width="1.3333333730697632px" opacity="0.25"></line><line x1="0" y1="39.51736111111114" x2="271.40625" y2="39.51736111111114" fill="rgb(0, 0, 0)" stroke="rgb(60, 60, 60)" stroke-width="1.3333333730697632px" opacity="0.25"></line><line x1="0" y1="19.758680555555543" x2="271.40625" y2="19.758680555555543" fill="rgb(0, 0, 0)" stroke="rgb(60, 60, 60)" stroke-width="1.3333333730697632px" opacity="0.25"></line><line x1="0" y1="0" x2="271.40625" y2="0" fill="rgb(0, 0, 0)" stroke="rgb(60, 60, 60)" stroke-width="1.3333333730697632px" opacity="0.25"></line></g></g></g><g><g><line x1="0" y1="158.06944444444446" x2="271.40625" y2="158.06944444444446" fill="rgb(0, 0, 0)" stroke="rgb(153, 153, 153)" stroke-width="2px"></line></g></g><g><g><line x1="30.15625" y1="0" x2="30.15625" y2="177.828125" fill="rgb(0, 0, 0)" stroke="rgb(153, 153, 153)" stroke-width="2px"></line></g></g><g><g><g><g><g><path stroke="rgb(255, 112, 67)" stroke-width="2.6666667461395264px" d="M40.1078125,-4.4980324708326975L40.37921875,0.4972666601004221L40.62046875,2.440449450548641L41.102968749999995,1.2547978472000523L41.22359375,11.735382907262306L42.852031249999996,18.57456616865545L42.8821875,13.949932392618138L43.39484375,12.29222690851509L43.45515625,17.733895927775507L43.4853125,25.999341391576905L43.57578125,28.47418708365879L44.028124999999996,37.126155326908815L44.11859375,36.11133026365414L44.14875,25.14934437124299L44.450312499999995,17.348195062321764L44.962968749999995,17.7408880003172L45.023281250000004,30.96717727658978L45.6565625,40.36324245239297L45.74703125,32.997150194361524L45.98828125,28.934134608576244L46.16921875,40.62008156288786L46.22953125,47.909179837584816L46.32,48.890651002269976L46.5009375,49.34410009474328L46.65171875,40.48004382132524L46.953281249999996,45.36880041540627L47.13421875,48.69540039037497L47.43578125,53.88009324429622L47.61671875,53.18900182618364L47.67703125,45.80757619581942L47.8278125,44.27530821405537L47.857968750000005,35.81540853165697L48.310312499999995,8.67239699867315L48.853125,13.436633412618619L48.9134375,31.712971866666464L49.2753125,36.19678162687205L49.486406249999995,37.06772474446058L49.5165625,31.84655605162331L49.576875,42.61925209084282L49.66734375,46.733392985475746L49.72765625,40.9970753450817L50.08953125,47.426554197915806L50.39109375,53.45839267947677L50.4815625,56.552328766329424L50.75296875,42.78880775788528L50.90375,46.78654882812461L51.6878125,50.74593778104915L51.8084375,55.479945474223214L51.9290625,48.565420650031655L51.95921875,39.2612457382491L52.170312499999994,44.093263898386226L52.44171875,50.290549123843874L52.56234375,47.677423453079285L52.68296875,34.14527454741511L52.833749999999995,46.36427413301956L52.954375000000006,54.704779235980595L53.225781250000004,41.511064791052206L53.34640625,44.95938185983272L53.3765625,42.5164889066979L53.406718749999996,54.393423299043235L53.467031250000005,55.69102781483089L53.678125,64.17260322573789L53.82890625,60.35061839577155L53.889218750000005,56.87037618432814L54.04,57.30002577604144L54.1003125,66.213447709679L54.2209375,62.495057246248805L54.3415625,70.54107797652759L54.5225,69.13000003282518L54.552656250000005,68.19824317163634L55.246249999999996,75.42117304245474L55.36687499999999,71.52302970055852L56.36203125,68.34539691458072L56.5128125,65.98703918570402L56.573125,63.93814321597348L56.754062499999996,65.95453079242674L56.9953125,65.36545679754184L57.17625,66.04902357018068L57.296875,68.06059779518492L57.507968749999996,72.18451587178166L57.56828125,57.35191572023021L57.749218750000004,56.821589556005776L57.80953125,70.80418634480931L58.23171875,64.93064156736989L58.261875,67.18812144582937L58.563437500000006,62.621293937481425L58.65390625,64.87761077523083L58.925312500000004,65.90623244122865L59.0459375,64.00787466806143L59.1665625,68.99437253808577L59.43796875,58.3452284863333L59.468125,57.99027066992453L59.6490625,52.03246614719265L59.67921875,69.84111109202276L59.83,65.49967018199564L60.191874999999996,66.4738165911409L60.3728125,64.35973116571193L60.463281249999994,63.77517560558128L60.7346875,64.75552152172233L60.825156250000006,68.49322067194402L61.06640625,61.88373076835124L61.639375,64.99177303794623L62.03140625,70.67983384261687L62.212343749999995,76.1900613580848L62.3028125,81.61613614143495L62.363125,74.93302000807785L62.48375,77.89510302775754L62.6646875,82.74519618527533L62.81546875,83.21702907896322L63.11703125,82.89158883909981L63.29796875,76.0599690465367L63.41859375,77.71092354017041L63.44875,75.28373132750954L63.7503125,70.00863524180534L63.90109375,75.92143027124806L65.016875,64.04798954347035L65.1375,73.64028147119298L65.16765625,75.24321909447114L65.1978125,81.9309475452429L65.74062500000001,77.56182280806806L66.1025,71.90634546735001L66.13265625,77.91175798790812L66.31359375000001,83.7778793878448L66.5246875,81.35733456075451L67.30875,86.07174296244887L67.3690625,82.52915529118629L67.670625,87.51222853332582L68.00234375,87.12248006713077L68.0928125,79.07256998603928L68.18328125000001,74.02256898537054L68.78640625000001,78.85778107712406L68.96734375,82.66526150595365L69.1784375,82.65319633864013L69.359375,88.75232022162946L69.6609375,83.75455185557034L69.841875,79.23583343152107L69.93234375,77.3555350578159L70.2640625,83.99789563259792L70.35453125000001,81.7591810247881L70.445,79.67051242981434L70.47515625,74.40472669934428L71.92265625,71.60638504617405L72.01312499999999,72.30705030113835L72.10359375,77.24047797065454L72.13375,77.11152422449337L72.79718749999999,79.53999020337537L73.1590625,85.94330389146151L73.219375,90.18139543434735L73.33999999999999,84.51535122724907L73.460625,84.37973673988694L73.58125000000001,86.5999296801807L74.33515625,88.93530052582342L74.3653125,81.50368390521689L74.69703125,85.77527491095145L74.93828124999999,90.47706118727173L75.05890624999999,85.61259451093113L75.11921875,78.61124446097281L75.42078125,83.70510041948077L75.63187500000001,76.50935291838199L76.08421874999999,65.13133793838253L76.20484375000001,68.82716281197798L76.92859375,76.9869422827208L76.95875,83.38073821491967L77.44125,85.36267740873554L77.47140625,90.27484301553193L77.7428125,86.91388619122809L77.92375,89.72505099270982L78.044375,89.9203520210034L78.31578125,87.40845009461802L78.526875,94.00713202378338L78.55703125,96.0433850651214L78.9490625,82.02767993992734L79.22046875,83.97943563671403L79.37125,90.60633261994376L79.52203125,86.48781682390111L79.6125,90.22687950142314L79.76328124999999,93.56675989690505L79.85375,97.57025864604482L80.215625,99.2693744795844L80.456875,102.69791720728486L80.66796875,96.80909230194939L80.8790625,99.1038603126671L81.15046875,94.81969265190135L81.27109375,99.91427810629608L81.30125000000001,97.72658313150487L81.33140625,94.56765975743245L81.39171875,96.40248890495107L81.4821875,95.33014942031832L81.69328125,95.05442357744523L81.9646875,92.34148249592002L82.26625,90.04198494297756L82.386875,92.5116022229368L82.4471875,85.42011822207525L82.53765625,88.18654714394985L82.68843749999999,95.53032321346056L82.77890624999999,88.15625585332778L82.8090625,88.45995547170226L82.83921875,89.59858694331923L83.4121875,93.2639137914557L83.68359375,88.38552846825874L83.86453125,89.66043686694415L84.075625,93.89254140828602L84.10578124999999,93.37371012216995L84.37718749999999,96.74097553104272L84.58828125,97.70523588597902L84.95015625,98.05241641785963L85.2215625,95.80124850267428L85.34218750000001,100.58269078992197L85.64375,103.57687030285943L85.764375,94.1319028795697L85.91515625,96.18228404071286L86.03578125,94.10308970836405L86.42781249999999,99.86481060774997L86.51828125,104.83962021248125L86.69921875,98.83526412982816L86.75953125,101.53571297132935L87.78484375,107.57474253713343L87.96578125,94.11643142995332L88.4784375,90.52827808673106L88.53875000000001,97.75996132897622L88.59906249999999,92.1810262799304L88.78,90.50420149546362L88.87046875,86.66895190916895L88.93078125,97.01146956255293L89.47359374999999,100.75044060972795L89.89578125,98.96029457970441L89.95609375,99.20792784268981L90.49890624999999,101.25241193779421L90.61953125000001,104.1228192585238L90.86078125,101.59041274171491L90.98140624999999,94.67671650999844L91.28296875,100.22288071225954L91.3734375,100.14068583821116L91.554375,103.33773739568908L92.278125,104.32304898256882L92.64,109.14295074450139L92.67015625,109.69117112616311L92.760625,110.0476794145736L92.79078125000001,105.47544659463959L92.85109374999999,100.87283099162408L92.91140625,100.39864364453146L93.03203125,99.5253119996778L93.15265624999999,98.81246440857616L93.3034375,101.83122595080361L93.36375,100.63782888938971L93.81609375000001,98.17317376401722L94.84140625,89.86156549066946L94.96203125000001,95.33928521023164L95.02234374999999,99.43453507884384L95.173125,97.21343566881997L95.44453125000001,98.40619660803895L95.68578125,95.20326156420829L95.80640625,95.30031776131145L96.10796875,96.29856210831396L96.16828125,95.88922628917574L96.22859375,88.3196253945965L96.25875,94.47178768041958L96.379375,98.21181865595054L96.46984375,96.35577832172591L96.71109375,90.41465076695424L96.83171875000001,93.54975688037825L97.25390625,90.52717388216067L97.43484375,98.3496107891616L97.58562500000001,105.72716185404505L97.61578125000001,105.29281433396766L97.67609374999999,99.87487913567345L97.7665625,95.47141753445014L97.826875,104.48188771791786L97.88718750000001,102.86052031900233L97.91734374999999,100.29266509524848L98.1284375,94.68762473663143L98.21890624999999,92.04117764510484L98.3696875,90.79258678228693L98.94265625,92.35599958918075L99.24421874999999,93.14812911139833L99.42515625,98.67972875908596L99.60609375,95.15671813318025L99.72671875,103.41239190681053L99.75687500000001,107.77853445472262L100.08859375,95.10005359966182L100.11874999999999,101.85566091041109L100.57109375,101.32582150933328L100.87265624999999,102.63645847800309L101.14406249999999,96.10215061878009L101.65671875,97.22272336034425L102.19953124999999,93.87774804107127L102.2296875,102.10764031067845L102.28999999999999,102.30029113724503L102.5915625,98.77102496024398L102.71218750000001,101.3139532593311L103.28515625,95.34921367875762L103.616875,102.01315654717311L103.858125,104.1866030769298L104.0390625,103.9408337427363L104.06921874999999,100.90308548964194L104.12953125,103.90168625651143L104.18984375,101.53886973927816L104.34062499999999,97.07508667411025L105.09453125,93.66958144368738L105.1246875,90.00022413453001L105.42625,100.68016998320746L105.4865625,104.68955618110027L105.63734375000001,103.29444375714219L106.05953125,108.07455718670352L106.24046874999999,111.52135004160863L106.45156250000001,106.98856331498511L106.51187499999999,105.29991526976193L106.5721875,105.30281560940129L106.96421875,106.63823338618509L107.08484375,108.79165313082318L107.14515625,111.29975001785522L107.53718749999999,115.43671887805124L107.8990625,107.30070995757227L108.2609375,104.40201053286472L108.29109375,101.15884747887621L108.32125,97.4667661994607L108.5625,104.11861611856237L108.7434375,109.53429187343819L109.25609375,109.50102890462026L109.43703124999999,105.41050940122743L109.4671875,105.4711499223447L109.7084375,107.11559742673379L109.889375,104.9281499029382L110.0703125,104.73204659979707L110.22109375,103.15587134865973L110.9146875,109.26454381580919L110.97500000000001,111.08126950568213L111.12578125,113.56688582905363L111.2765625,112.40542163071989L111.66859375,109.87072064470856L111.8796875,101.39530384179585L112.33203124999999,105.80907289349267L112.69390625,107.88642657173094L112.784375,103.99093860996796L113.20656249999999,107.7444704163779L113.23671875,106.48088335538142L113.29703125,104.74762622993417L114.26203124999999,106.67084996992811L114.2921875,107.35145849585959L114.32234375,114.56719587580143L114.53343749999999,115.69247302873896L114.86515625,112.99501158642421L115.3175,110.34155362758833L115.40796875,103.6732727713091L115.46828125,102.79071611398632L115.49843750000001,105.02175147155077L116.37296875,104.0193445481032L116.73484375,107.00136014545646L116.765,101.49355436134482L117.03640625,99.93312142278121L117.3078125,106.81290793965334L117.48875,110.69961593364098L117.609375,110.73595586590992L118.12203125,111.27340210471988L118.18234375,110.90061956467416L118.21249999999999,107.48871475381651L118.24265625,110.8308233415154L118.574375,112.10404068885668L119.1171875,112.09775962743963L119.62984374999999,102.13586844903057L119.8409375,107.15974127742825L119.87109375,95.52449098230515L120.5646875,98.58212906190651L120.71546875,104.93730279099285L120.77578125000001,107.1969041567121L120.83609375,109.2413568917257L120.89640625,112.77989364824622L120.95671875,107.10646345261765L121.07734375,108.95189659417879L121.1075,112.2447962015952L121.43921875,101.09970498317325L121.5296875,105.20774123372401L121.7709375,104.40055724639876L121.86140625,109.03159115383494L122.1328125,109.16074722620466L122.58515625,107.96781363789788L122.70578125,107.628278556873L122.76609375,108.49260131355472L123.21843750000001,109.88912118707717L123.61046875,110.21373447292217L124.3040625,106.09021549416897L124.75640625,109.34005021255412L124.7865625,106.3642090817902L124.99765625,101.70469663528243L125.14843750000001,107.4162329391564L125.29921875,112.01833325471966L125.41984375,112.07526264760412L125.48015625,107.68141500571583L125.96265625,106.6657593229627L126.294375,109.86966443539163L126.50546874999999,109.54698621360862L126.535625,106.36120017780883L126.74671875000001,109.30944225542845L126.8371875,104.20001409809609L127.5609375,107.43986049697352L127.65140625,102.91448103351517L127.8625,104.70041792457157L127.95296875,103.93374392186038L127.983125,108.42355974530896L128.0434375,101.21745400435039L128.07359375000001,108.13483288272008L128.67671875,113.32846612936568L128.82750000000001,113.95486149843094L129.09890625,114.11743473316027L129.15921874999998,113.10580926568103L129.21953125,112.16664198568334L129.82265625,114.15246380982799L130.06390625,105.50475207060128L130.48609375,107.76831218104168L130.51624999999999,113.45212090598366L130.66703125,115.95530953827944L130.8178125,109.6717321011735L131.02890625,106.76714738463448L131.9034375,106.38330507380815L131.96375,106.7306483527579L132.0240625,108.05671353917687L132.2653125,106.92547917985428L132.77796875,108.82061010333854L132.92875,110.50437387755952L133.5921875,106.34740828269483L133.68265625,111.65125183960015L133.8334375,110.81891682567927L134.04453125,108.06433237038132L134.16515625,116.05735590212034L134.22546875,113.90206203710424L134.40640625,112.15693983725271L134.4365625,114.55399886159577L134.6175,112.85984448445198L134.82859374999998,110.97060755884954L135.00953125,107.01623561932678L135.1,111.55961072213145L135.61265625,108.3809760998429L135.67296875,103.09616232856558L135.97453125,105.21321163947384L136.065,108.62372442540817L136.27609375,104.96372512991229L136.75859375000002,107.76202196320146L136.81890625,109.11112226211655L136.99984375,113.94776177541613L137.12046875000001,117.3788475061296L137.18078125,114.40386263242789L137.60296875,111.29508394767409L138.115625,110.98853097147999L138.4775,115.78414184515219L138.68859375,109.74561719311066L138.71875,114.69034961365335L139.2615625,108.32180083985482L139.321875,106.96691227673783L139.3821875,106.69833838345497L139.47265625,109.78174885732317L139.563125,109.99588207313784L140.07578124999998,109.08076743898805L140.4075,113.4813937519778L140.43765625,117.53446109082535L140.61859375,121.14237803058876L140.82968749999998,122.04257037062345L141.734375,118.91313106899031L141.7946875,109.6914956101083L142.5184375,106.57567547984553L142.6390625,106.90886163108895L142.66921875,111.13593646228489L142.699375,114.77855076584905L142.8803125,112.93780857452467L142.97078125000002,112.15456428873082L143.03109375,117.54474821880339L143.3025,114.94053041567352L143.51359375,115.22233493232737L143.90562500000001,113.82121632717872L144.146875,113.94202543037474L144.53890625,108.91092896245426L144.59921875,112.10834061534686L144.6896875,111.01251320882943L145.05156250000002,108.94250039809921L145.17218749999998,111.51258702615061L145.32296874999997,105.26468339673714L145.38328124999998,104.3542467346884L145.68484375,105.43271398558508L145.74515625,110.14795500372465L145.80546875000002,111.22391027036474L146.1975,112.3665164333162L146.67999999999998,114.41277729593409L146.83078125,117.049266789726L147.041875,118.16942784224122L147.79578125,117.26198245302652L147.82593749999998,114.97902221313169L147.85609375,112.45535168431167L148.06718750000002,106.46814382332389L148.36874999999998,106.45609904348649L148.61,112.60423521969058L148.82109375,112.54390491809016L148.94171875,110.9941429264633L149.2734375,113.74765054889416L149.454375,112.11499626689329L149.6353125,105.9538485902499L150.29875,111.2767690598209L150.63046875,111.79974347838737L150.78125,117.3140973509667L151.05265625,116.429168620185L151.0828125,115.44838096090918L151.41453125,120.0635352141268L151.44468750000001,117.0652183047657L151.77640624999998,116.74605501948581L151.86687500000002,116.72287523799845L152.07796875,119.06936587810242L152.16843749999998,110.30931706098178L152.19859375000001,108.32948026434266L152.22875,108.34621269721947L153.58578125,105.2535288583253L153.7365625,104.51698808072798L153.76671875,108.1667828808953L154.06828124999998,112.97986406363343L155.81734375,111.57252805985014L156.2696875,114.90115770731052L156.60140625,112.84374792597464L156.6315625,111.60844085736758L156.691875,110.93380601519144L156.75218750000002,111.29050239432962L156.84265625,112.72296042801655L156.87281249999998,105.03383033160273L156.933125,111.9544837086299L157.62671874999998,114.1473944419763L157.7775,115.76441801668098L157.86796875,113.19488602892798L158.10921875000003,110.59858571853754L158.4409375,114.17802283505819L158.71234374999997,110.58540711789358L158.80281250000002,107.59056535405294L158.83296875,107.92164821176074L159.104375,104.651209925545L159.2853125,108.64891038666507L159.7678125,114.14045689408437L159.94875000000002,108.4253122227056L160.06937499999998,113.23936497369347L160.34078125,108.7089371667149L160.40109375,108.86279066673224L160.67249999999999,109.30792675817459L160.793125,110.91140060559808L160.9740625,115.19738198836518L161.12484375,119.37725630234354L161.78828125,114.20540880695364L161.90890624999997,113.06576962015052L162.18031249999999,112.67739825126951L162.63265625,111.90756677305012L162.84375,116.26299583342256L163.0246875,115.49119481564097L163.14531250000002,109.29017838693872L163.17546875,110.59568811328829L163.74843750000002,111.35134722713643L163.77859375,113.16333028880291L163.83890625,114.44637609934992L164.01984374999998,112.89453845801994L164.1103125,105.27090349880184L164.92453125,107.79132038022495L165.10546875,109.3548553255312L165.22609375,109.13208778770193L165.3165625,98.3498403556142L165.55781249999998,107.7844865809607L165.618125,107.13204377882482L166.13078125,114.02374779703979L166.1609375,113.67047505541821L166.73390625,116.15194545312028L166.7640625,117.98508826562018L166.85453125,114.19954644717807L167.06562499999998,117.27033060575883L167.1259375,120.53753178360114L167.3671875,118.61049667349727L167.4275,115.81574802464735L167.45765624999999,120.60794986022687L167.91,122.37829198957638L168.21156249999999,116.02235326791478L168.30203125,119.0671512163328L168.63375,113.47557536532777L168.72421875,108.96503220800406L168.78453125000001,113.95746454079134L168.84484375,118.98080805207405L169.20671875,109.23599182652626L169.71937499999999,114.99901910895815L170.17171875,116.09004642522308L170.35265625000002,116.69823899298743L170.56375,115.03124854533709L170.80499999999998,117.17247120902204L170.925625,113.55978527801618L171.13671875,117.08482956544945L171.166875,115.37727726783893L171.19703125,116.89952422968264L171.49859375000003,106.17922896635231L172.131875,110.28249325680046L172.28265625,116.00026406810858L172.4334375,113.88672094541724L172.91593749999998,114.54700103698931L173.06671875,113.4338965589293L173.24765625,111.82045856768629L173.36828125,116.44764476849626L173.3984375,120.65924533407802L173.6396875,116.61817776456502L173.73015625,118.19981810819395L173.7603125,119.7001174035416L173.820625,116.0264338988057L173.91109375,118.71461450717132L174.1825,118.44829509623969L174.27296875,114.26162737583263L174.303125,112.6080707097238L174.42375,110.81302025753703L174.51421875,108.40650358561163L174.544375,110.33356810733436L174.7253125,109.77996894941107L174.90625,113.74792288081633L174.9665625,111.78565284336595L175.05703125,114.4406387882472L175.66015625,117.51085300618635L176.11249999999998,112.84046494820106L176.474375,113.75988278268352L177.04734375,111.3312860463245L177.10765625,113.64380418020193L177.59015625,114.63403402135849L177.680625,117.07827789934933L177.7409375,110.0171427844508L177.77109375,103.41852482395672L178.3440625,109.42829531976732L179.0678125,111.8978758724956L179.15828125,120.10564400175934L179.5503125,117.78530252470597L179.7915625,117.88708792330446L180.0328125,114.79965094905485L180.06296874999998,113.39095398326282L180.1534375,113.37946259943652L180.21375,110.69497833075077L180.24390625,110.97564153317924L180.66609375,108.92681210099954L180.90734375,108.95136394519831L181.57078125,110.68817520914054L181.75171874999998,115.21200739728269L181.84218750000002,117.68966078070437L182.05328125,117.72623671291912L182.44531250000003,115.1861496542572L182.50562499999998,120.44690698460678L182.53578125,114.6716307547641L182.746875,109.87871573722036L183.2896875,107.15971539625242L183.7721875,115.92753838506859L183.98328125,113.81993766253018L184.1340625,116.10593031503984L184.16421875,116.57242699299773L184.34515624999997,120.6466712375863L184.7371875,121.97209231741634L184.79749999999999,122.32687291572746L184.9784375,122.36176439798403L185.7625,121.21985136875034L185.91328125,123.66801342822205L186.30531249999999,120.13044410153691L186.4259375,120.16143493269229L186.96875,115.70977678279456L187.21,117.21417886581268L187.90359375,114.93051038323031L187.99406249999998,117.97167501334819L188.02421875000002,122.53380410313251L188.14484374999998,124.46826300155355L188.175,123.69483594354335L188.295625,118.4380864922801L188.83843750000003,116.15281665746011L188.9590625,119.1824107890588L189.65265625,116.87749486093212L190.04468749999998,118.67203399502264L190.5271875,119.43238947034197L190.85890625,119.54554197283692L191.34140624999998,122.21482660377762L191.43187500000002,123.31074943704667L191.76359375,123.93962591955273L191.79375,126.04073670045332L191.88421875,124.89979072879191L192.396875,125.34982812717112L192.5175,120.27896613405377L193.12062500000002,113.98529748504887L193.1809375,118.59532014877189L193.603125,118.14095141717894L193.75390625,115.36723811946152L194.17609375,117.44383391483457L194.20624999999998,115.03612103837281L194.2665625,110.41211881477558L194.41734375000001,114.73040892090773L195.26171875,114.8438215543575L195.533125,113.90003738617983L195.74421875,111.83191539196159L195.86484375,112.70393188032259L196.04578125,112.5376828746825L196.22671875,111.65974154994551L196.3775,114.81482085558878L196.46796875,114.62611885576828L196.52828125000002,114.03347287662436L196.980625,117.53905768758682L197.25203125,122.12030933183854L197.49328125,123.76217787400071L198.0059375,115.9801112670779L198.15671875,108.16464637310243L198.21703125,111.02803673415526L198.3075,110.16663620817917L198.57890625000002,112.28981052100758L198.63921875,112.27388070255536L198.82015625,115.58234606148253L199.18203125000002,118.90004732802608L199.33281250000002,112.06214379180612L199.63437499999998,118.07045563145506L199.9359375,118.2718883592625L199.99625,120.44078271086988L200.44859375,111.82468663091547L200.7803125,114.42404197648075L200.840625,117.02032334560391L200.96125,115.77166723778305L201.323125,120.76659530835934L201.41359375000002,116.39432577252336L202.65,113.50593533138672L202.74046875,116.45187174474155L202.86109375,117.33863670722266L203.28328125,114.66811590060775L203.615,118.90633683816887L203.82609375,114.86277942900429L204.0371875,116.37155669521616L204.33875,120.82238707064965L204.42921875000002,120.2068648195387L204.57999999999998,119.54087917689603L204.73078124999998,118.79893952264092L204.91171875,122.42851611141717L205.27359375,119.81389639857917L205.30375,120.12364424920952L205.81640625,121.76609981217692L205.906875,117.68258789811819L206.11796875000002,117.69707118591862L206.47984375,123.0857249241406L206.9321875,121.95960471906994L206.9925,114.22225318155408L207.20359375,117.21121491375163L207.50515625,116.43056878394111L207.74640625,120.37161096633024L207.80671875000002,119.15526001848193L207.86703125,122.46035602779034L208.01781250000002,115.44367398307479L208.28921875,113.89930044690763L208.59078125,112.08785756297695L208.62093750000003,106.54435939018249L208.9225,110.76403871336339L209.043125,114.17474855323161L209.07328125,116.38872419162205L209.64625,115.1791905512199L209.79703125,115.31175975878995L209.85734375,117.61640015040481L209.8875,119.8342007725263L209.97796874999997,115.98821794767892L210.249375,117.7533760974558L210.79218749999998,116.91559082356251L211.3953125,115.67272357886556L211.54609375,114.82981131348367L211.81750000000002,116.19168246239995L211.9984375,117.90045021055818L212.02859375,116.13011054925227L212.05875,121.72936968775147L212.14921875,116.64078178777686L212.2396875,116.22658079371112L212.661875,120.97318689279908L212.90312500000002,122.31281871442081L213.41578125,122.61394271543963L213.44593749999999,117.4789665742758L213.5665625,121.84050199582228L213.71734375,121.05922156079023L213.9284375,121.4075788130152L214.19984375,123.30414583418599L214.26015625,127.08645157449088L214.56171875,126.69704255415851L214.74265625,123.50935226104451L214.80296875,125.60949269041836L214.98390625,120.46531759125617L215.04421875,119.71116389768748L215.10453125,118.91011688573141L215.46640625,123.29524696979645L215.52671875,121.35024195657013L215.58703125,120.41211199780204L216.280625,122.0547917507792L216.40125,123.43297422160164L216.55203125,116.11250220797093L216.6425,119.45996592130717L217.125,122.35503978019787L217.4265625,124.05157678980837L217.45671875,124.95112303393172L217.51703125,124.02155852828818L217.69796875,120.06512349910508L217.87890625,120.425115501809L218.09,121.25782986945521L218.24078125,117.62986620304244L218.451875,118.0870477345147L218.6328125,112.45592704207921L219.02484375,114.84774674157245L219.2359375,117.93648056867686L219.80890625,117.2276102237185L220.41203125,121.96156896408837L220.5025,125.13509677683427L220.623125,122.03126004432974L220.65328125,118.91002374212687L220.86437500000002,112.57839862178338L221.37703125,115.30356854390507L221.70875,114.54760738655976L222.04046875,115.78609546011467L222.2515625,112.28664571705283L222.4325,114.87541533070394L223.15625,114.95119535187436L223.84984375000002,115.78943238075722L224.12125,112.58137925221897L224.57359375,115.329650117364L224.60375000000002,118.43809162719498L224.81484375000002,116.62164513543897L224.93546874999998,120.99471723915414L225.3275,118.78541371218151L225.35765625000002,121.3930724328722L225.65921875,113.61003273628715L225.77984375,112.99637167411728L226.02109374999998,117.31444751149381L226.05125,121.45844404504795L226.171875,123.70042168328447L226.44328125,123.65450706790375L226.4734375,123.70417774243322L226.775,117.63831812340811L226.80515625,119.0346925049814L226.8353125,120.90044374964927L227.0765625,122.07690886784782L227.1971875,121.58722473252475L227.6796875,123.62050861810486L227.92093749999998,122.99819296481738L228.4034375,119.52685882904294L228.52406249999999,120.95209760594702L228.584375,122.76941304249193L228.61453125,119.42782078633036L228.705,119.70105984395485L228.97640625,123.76392125477898L229.0065625,120.67512757156182L229.27796874999999,121.51218214073383L229.3684375,120.5070944021263L229.67,124.92453042072742L229.82078124999998,120.1045018058058L230.90640625,120.2538743158199L231.1778125,121.28372927103192L231.238125,123.71072124757598L231.35875000000001,125.28951816273802L231.5396875,119.56107352712326L231.63015625,120.58687663020066L231.84125,123.79064666308287L231.93171875,120.270957669047L232.0825,122.77631171949128L232.17296875,124.02271878416312L232.203125,126.8523656030838L232.41421874999997,122.39712693082771L232.53484375,120.65427972798122L232.65546875,122.7589639542992L232.95703125,124.97698566343203L232.9871875,123.68198796874294L233.3490625,124.36212764576618L233.4696875,113.61077406718739L233.68078125,115.07765921982936L233.80140625,118.6973743587101L234.133125,122.00193586588878L234.495,122.6601504135898L234.9775,124.2039653189938L235.61078124999997,123.62741496538695L235.73140625,123.71764638737291L236.18375,123.78601638333353L236.42499999999998,125.72155797392037L236.60593749999998,126.48104636295187L236.7265625,127.79654950510363L236.84718750000002,124.47278320131076L237.0884375,120.16327091762099L237.269375,116.90886471654076L237.29953125,120.0578346793376L237.8121875,121.78769006603346L238.02328125,122.27524215328063L238.08359375,117.78660407306505L238.26453125,115.75015600311932L238.50578124999998,115.0076604156288L238.59625,116.13368635678036L238.716875,117.92688017301734L239.0184375,119.69394390188958L239.25968749999998,121.32347201406753L239.35015625000003,121.7635999921811L239.77234375,121.25632734777497L239.89296875,121.70063198658754L240.13421875,123.35100681087404L240.2246875,118.27680252798308L240.405625,115.23083137601154L240.91828125,112.38929411586388L240.9484375,112.02748131081634L241.00875,105.00817825728303L241.55156250000002,104.43867517668009L241.6721875,110.19215396345187L241.76265625,110.8578918305754L242.215,118.52468908878936L242.30546875,122.10504283605607L242.42609375,122.62210216902288L242.6371875,125.67677544987421L243.02921875,125.98658804608678L243.21015624999998,124.5192251846935L243.63234375,127.62501503704371L243.99421875000002,120.56856779876006L244.2053125,112.90197616878842L244.4465625,117.36887259620643L244.6878125,113.86311529920656L244.71796874999998,118.28178614416663L244.86875,121.61707572400397L244.989375,119.49790598463639L245.38140625,123.73505839202497L245.50203125,126.4266391907779L245.92421875,123.64725824907907L246.28609375000002,126.21330485753066L246.31625,126.2635098410131L246.52734375,121.8398578054571L246.76859375,116.26684256704976L246.94953124999998,117.69493565780732L247.13046875,118.77107506479179L247.3415625,117.69767582130996L247.401875,119.55525241454794L247.67328125,120.21604323398905L247.73359375,122.44761821242483L247.76375,123.2184274795847L248.33671875000002,120.9421828317085L248.4271875,116.10403867947092L248.69859375,117.40147537494316L249.09062500000002,114.44618134517385L249.42234375,108.21159540219433L249.5128125,108.87265539071024L249.81437499999998,109.63870782483794L250.29687500000003,107.30088408322493L250.62859375,108.56168357042868L250.7190625,109.49343876915093L251.17140625,113.19455067213833L251.47296875,114.62447740173653L251.50312499999998,118.93494960065948L251.65390624999998,113.72291116249592L251.6840625,113.16999980746509L251.83484375,118.02230484525725L251.89515624999999,116.84798522275406L252.01578125,119.55767086691502L252.04593749999998,120.35341666103838L252.07609375,122.55104671109041L252.5284375,118.34096047582801L252.73953125,120.67596502218481L252.7696875,118.78022570408332L252.89031250000002,125.53695982550262L252.950625,125.49511856590186L253.22203125000001,124.20696934255747L253.34265625,119.14770435946005L253.43312500000002,119.56310695470651L254.2171875,120.27092489513046L254.24734375,117.15700601612505L254.51875,117.21337442431378L254.60921875,117.61735681127357L254.72984375000001,121.05354031740033L254.8203125,120.48905473723389L255.121875,112.79332777264362L255.15203125,111.76343063533021L255.1821875,118.89786652459665L255.21234375,116.52845577842103L255.363125,121.34457300270915L255.5440625,118.88058738562822L255.66468749999999,123.51332356827939L255.725,123.38092265721359L256.086875,120.54582233357564L256.2075,113.9388380780796L256.29796875,121.33140345065473" style="fill: none;" fill="none"></path></g></g></g></g><g opacity="0.20000000298023224"><g><g><g><path stroke="rgb(255, 112, 67)" stroke-width="2.6666667461395264px" d="M37.2128125,-14.679699202999473L37.66515625,3.59680084051152L37.84609375,-8.910529066549827L38.961875,-1.2683155992482114L39.444375,13.91500500605133L39.504687499999996,-41.31737469845558L39.7459375,17.584996936221927L40.1078125,-4.537915865994137L40.37921875,7.990215328677266L40.62046875,5.355223629727135L41.102968749999995,-0.5236795554455114L41.22359375,27.456260484746764L42.852031249999996,28.833341055808376L42.8821875,7.012981730565031L43.39484375,9.805668682791293L43.45515625,25.89639945581763L43.4853125,38.397509586505805L43.57578125,32.18645562164278L44.028124999999996,50.10410769149249L44.11859375,34.58909266879266L44.14875,8.706365532759179L44.450312499999995,5.646471098996699L44.962968749999995,18.32992740730859L45.023281250000004,50.80661119096396L45.6565625,54.457340216083026L45.74703125,21.94801180732128L45.98828125,22.839611229900697L46.16921875,58.14900199435132L46.22953125,58.8428272496288L46.32,50.3628577492976L46.5009375,50.024273733453214L46.65171875,27.183959411198487L46.953281249999996,52.70193530652776L47.13421875,53.685300352827966L47.43578125,61.65713252517807L47.61671875,52.15236469901478L47.67703125,34.73543775027309L47.8278125,41.97690624140927L47.857968750000005,23.125559008059412L48.310312499999995,-32.04212030080254L48.853125,20.58298803353682L48.9134375,59.127479547738204L49.2753125,42.92249626718049L49.486406249999995,38.37413942084339L49.5165625,24.014803012367338L49.576875,58.778296149672116L49.66734375,52.90460432742516L49.72765625,32.39259888449064L50.08953125,57.070772477166926L50.39109375,62.506150401818246L50.4815625,61.19323289660841L50.75296875,22.14352624521902L50.90375,52.78316043348363L51.6878125,56.68502121043598L51.8084375,62.58095701398432L51.9290625,38.193633413744266L51.95921875,25.30498337057523L52.170312499999994,51.34129113859187L52.44171875,59.58647696203033L52.56234375,43.75773494693243L52.68296875,13.847051188918869L52.833749999999995,64.6927735114263L52.954375000000006,67.2155368904221L53.225781250000004,21.72049312365965L53.34640625,50.131857463003456L53.3765625,38.85214947699569L53.406718749999996,72.20882488756129L53.467031250000005,57.637434588512406L53.678125,76.89496634209839L53.82890625,54.61764115082204L53.889218750000005,51.65001286716304L54.04,57.94450016361142L54.1003125,79.58358061013534L54.2209375,56.91747155110352L54.3415625,82.61010907194577L54.5225,67.01338311727159L54.552656250000005,66.80060787985308L55.246249999999996,86.2555678486824L55.36687499999999,65.67581468771418L56.36203125,63.57894773561402L56.5128125,62.44950259238894L56.573125,60.8647992613777L56.754062499999996,68.9791121571066L56.9953125,64.48184580521449L57.17625,67.07437372913894L57.296875,71.07795913269122L57.507968749999996,78.37039298667676L57.56828125,35.10301549290307L57.749218750000004,56.02610030966915L57.80953125,91.77808152801461L58.23171875,56.120324401210766L58.261875,70.57434126351855L58.563437500000006,55.77105267495952L58.65390625,68.26208603185496L58.925312500000004,67.44916494022536L59.0459375,61.160338008310646L59.1665625,76.47411934312224L59.43796875,42.371512408704604L59.468125,57.45783394531138L59.6490625,43.09575936309477L59.67921875,96.55407850926792L59.83,58.987508816954985L60.191874999999996,67.93503620485879L60.3728125,61.188603027568504L60.463281249999994,62.89834226538531L60.7346875,66.22604039593391L60.825156250000006,74.09976939727656L61.06640625,51.96949591296209L61.639375,69.6538364423387L62.03140625,79.21192504962285L62.212343749999995,84.45540263128673L62.3028125,89.75524831646018L62.363125,64.90834580804221L62.48375,82.33822755727708L62.6646875,90.02033592155202L62.81546875,83.92477841949503L63.11703125,82.40342847930474L63.29796875,65.812539357692L63.41859375,80.18735528062098L63.44875,71.64294300851824L63.7503125,62.095991113248985L63.90109375,84.79062281541215L65.016875,46.23782845180378L65.1375,88.02871936277693L65.16765625,77.64762552938836L65.1978125,91.96254022140054L65.74062500000001,71.00813570230578L66.1025,63.42312945627296L66.13265625,86.91987676874525L66.31359375000001,92.57706148774983L66.5246875,77.72651732011904L67.30875,93.14335556499039L67.3690625,77.21527378429244L67.670625,94.98683839653515L68.00234375,86.5378573678382L68.0928125,66.99770486440198L68.18328125000001,66.44756748436741L68.78640625000001,86.11059921475437L68.96734375,88.37648214919803L69.1784375,82.63509858766983L69.359375,97.90100604611345L69.6609375,76.2578993064817L69.841875,72.45775579544716L69.93234375,74.53508749725813L70.2640625,93.96143649477096L70.35453125000001,78.40110911307337L70.445,76.53750953735369L70.47515625,66.50604810363923L71.92265625,67.40887256641872L72.01312499999999,73.35804818358478L72.10359375,84.64061947492883L72.13375,76.91809360525156L72.79718749999999,83.18268917169834L73.1590625,95.54827442359075L73.219375,96.5385327486761L73.33999999999999,76.01628491660165L73.460625,84.17631500884372L73.58125000000001,89.93021909062129L74.33515625,92.43835679428756L74.3653125,70.3562589743071L74.69703125,92.18266141955326L74.93828124999999,97.52974060175215L75.05890624999999,78.31589449642017L75.11921875,68.10921938603535L75.42078125,91.34588435724274L75.63187500000001,65.71573166673382L76.08421874999999,48.06431546838334L76.20484375000001,74.37090012237118L76.92859375,89.22661148883506L76.95875,92.97143211321801L77.44125,88.3355861994593L77.47140625,97.6430914257265L77.7428125,81.8724509547723L77.92375,93.94179819493243L78.044375,90.21330356344373L78.31578125,83.64059720503994L78.526875,103.90515491753143L78.55703125,99.09776462712841L78.9490625,61.00412225213624L79.22046875,86.90706918189406L79.37125,100.54667809478835L79.52203125,80.31004312983714L79.6125,95.83547351770619L79.76328124999999,98.57658049012792L79.85375,103.5755067697545L80.215625,101.81804822989378L80.456875,107.84073129883552L80.66796875,87.9758549439462L80.8790625,102.54601232874361L81.15046875,88.39344116075274L81.27109375,107.55615628788817L81.30125000000001,94.44504066931808L81.33140625,89.82927469632381L81.39171875,99.15473262622899L81.4821875,93.72164019336923L81.69328125,94.64083481313557L81.9646875,88.2720708736322L82.26625,86.5927386135639L82.386875,96.21602814287567L82.4471875,74.78289222078294L82.53765625,92.33619052676173L82.68843749999999,106.54598731772663L82.77890624999999,77.09515481312863L82.8090625,88.915504899264L82.83921875,91.30653415074468L83.4121875,98.76190406366044L83.68359375,81.06795048346328L83.86453125,91.57279946497226L84.075625,100.24069822029882L84.10578124999999,92.59546319299584L84.37718749999999,101.79187364435185L84.58828125,99.15162641838347L84.95015625,98.57318721568056L85.2215625,92.42449662989625L85.34218750000001,107.75485422079348L85.64375,108.06813957226566L85.764375,79.96445174463506L85.91515625,99.25785578242761L86.03578125,90.98429820984083L86.42781249999999,108.50739195682884L86.51828125,112.30183461957817L86.69921875,89.82873000584853L86.75953125,105.58638623358112L87.78484375,116.63328688583957L87.96578125,73.92896476918312L88.4784375,85.1460480718977L88.53875000000001,108.60748619234396L88.59906249999999,83.81262370636168L88.78,87.98896431876346L88.87046875,80.91607752972695L88.93078125,112.52524604262888L89.47359374999999,106.3588971804905L89.89578125,96.27507553466906L89.95609375,99.5793777371679L90.49890624999999,104.31913808045081L90.61953125000001,108.42843023961822L90.86078125,97.79180296650155L90.98140624999999,84.30617216242374L91.28296875,108.54212701565119L91.3734375,100.01739352713855L91.554375,108.13331473190595L92.278125,105.80101636288842L92.64,116.37280338740027L92.67015625,110.51350169865569L92.760625,110.58244184718932L92.79078125000001,98.61709736473857L92.85109374999999,93.96890758710086L92.91140625,99.68736262389251L93.03203125,98.2153145323973L93.15265624999999,97.7431930219237L93.3034375,106.35936826414479L93.36375,98.84773329726885L93.81609375000001,94.47619107595851L94.84140625,77.39415308064781L94.96203125000001,103.55586478957491L95.02234374999999,105.57740988176212L95.173125,93.88178655378417L95.44453125000001,100.19533801686742L95.68578125,90.39885899846234L95.80640625,95.44590205696618L96.10796875,97.7959286288177L96.16828125,95.27522256046844L96.22859375,76.96522405272762L96.25875,103.70003110915421L96.379375,103.82186511924697L96.46984375,93.57171782038898L96.71109375,81.50295943479674L96.83171875000001,98.25241605051431L97.25390625,85.99329938483424L97.43484375,110.08326614966305L97.58562500000001,116.79348845137024L97.61578125000001,104.64129305385157L97.67609374999999,91.74797633823214L97.7665625,88.8662251326152L97.826875,117.99759299311941L97.88718750000001,100.42846922062907L97.91734374999999,96.44088225961767L98.1284375,86.28006419870587L98.21890624999999,88.07150700781494L98.3696875,88.91970048806009L98.94265625,94.70111879952148L99.24421874999999,94.33632339472467L99.42515625,106.97712823061737L99.60609375,89.87220219432169L99.72671875,115.79590256725592L99.75687500000001,114.32774827659077L100.08859375,76.08233231707061L100.11874999999999,111.98907187653498L100.57109375,100.53106240771658L100.87265624999999,104.6024139310078L101.14406249999999,86.3006888299456L101.65671875,98.90358247269049L102.19953124999999,88.86028506216178L102.2296875,114.45247871508926L102.28999999999999,102.58926737709487L102.5915625,93.47712569474241L102.71218750000001,105.12834570796176L103.28515625,86.40210430789739L103.616875,112.00907084979633L103.858125,107.44677287156486L104.0390625,103.57217974144604L104.06921874999999,96.3464631100004L104.12953125,108.39958740681564L104.18984375,97.99464496342827L104.34062499999999,90.37941207635836L105.09453125,88.56132359805308L105.1246875,84.49618817079397L105.42625,116.70008875622361L105.4865625,110.70363547793951L105.63734375000001,101.20177512120506L106.05953125,115.24472733104548L106.24046874999999,116.69153932396632L106.45156250000001,100.18938322504981L106.51187499999999,102.76694320192715L106.5721875,105.30716611886035L106.96421875,108.6413600513608L107.08484375,112.02178274778028L107.14515625,115.06189534840328L107.53718749999999,121.6421721683453L107.8990625,95.09669657685379L108.2609375,100.05396139580341L108.29109375,96.29410289789342L108.32125,91.92864428033741L108.5625,114.09639099721485L108.7434375,117.65780550575194L109.25609375,109.45113445139334L109.43703124999999,99.2747301461382L109.4671875,105.56211070402058L109.7084375,109.58226868331742L109.889375,101.6469786172448L110.0703125,104.43789164508537L110.22109375,100.79160847195371L110.9146875,118.42755251653337L110.97500000000001,113.80635804049152L111.12578125,117.29531031411088L111.2765625,110.66322533321929L111.66859375,106.06866916569156L111.8796875,88.68217863742674L112.33203124999999,112.42972647103791L112.69390625,111.00245708908832L112.784375,98.14770666732349L113.20656249999999,113.37476812599277L113.23671875,104.58550276388672L113.29703125,102.14774054176328L114.26203124999999,109.55568557991904L114.2921875,108.3723712847568L114.32234375,125.39080194571417L114.53343749999999,117.38038875814527L114.86515625,108.9488194229521L115.3175,106.36136668933452L115.40796875,93.67085148689026L115.46828125,101.46688112800216L115.49843750000001,108.36830450789743L116.37296875,102.51573416293184L116.73484375,111.47438354148633L116.765,93.23184568517738L117.03640625,97.5924720149358L117.3078125,117.13258771496152L117.48875,116.52967792462246L117.609375,110.79046576431331L118.12203125,112.07957146293482L118.18234375,110.34144575460554L118.21249999999999,102.37085753753004L118.24265625,115.84398622306374L118.574375,114.01386670986862L119.1171875,112.08833803531402L119.62984374999999,87.19303168141695L119.8409375,114.69555052002477L119.87109375,78.07161553962052L120.5646875,103.16858618130854L120.71546875,114.47006338462234L120.77578125000001,110.58630620529098L120.83609375,112.30803599424607L120.89640625,118.08769878302701L120.95671875,98.59631815917479L121.07734375,111.72004630652049L121.1075,117.18414561271977L121.43921875,84.38206815554035L121.5296875,111.36979560955012L121.7709375,103.1897812654109L121.86140625,115.9781420149892L122.1328125,109.35448133475923L122.58515625,106.17841325543768L122.70578125,107.11897593533567L122.76609375,109.78908544857727L123.21843750000001,111.98390099736085L123.61046875,110.70065440168966L124.3040625,99.90493702603916L124.75640625,114.21480229013184L124.7865625,101.90044738564433L124.99765625,94.71542796552077L125.14843750000001,115.98353739496733L125.29921875,118.92148372806453L125.41984375,112.16065673693082L125.48015625,101.09064354288338L125.96265625,105.14227579883298L126.294375,114.67552210403502L126.50546874999999,109.06296888093411L126.535625,101.58252112410909L126.74671875000001,113.73180537185786L126.8371875,96.53587186209754L127.5609375,112.2996300952897L127.65140625,96.12641183832764L127.8625,107.37932326115615L127.95296875,102.7837329177936L127.983125,115.15828348048186L128.0434375,90.40829539291249L128.07359375000001,118.51090120027462L128.67671875,121.11891599933409L128.82750000000001,114.89445455202883L129.09890625,114.36129458525424L129.15921874999998,111.58837106446217L129.21953125,110.75789106568683L129.82265625,117.13119654604492L130.06390625,92.53318446176125L130.48609375,111.16365234670228L130.51624999999999,121.97783399339662L130.66703125,119.71009248672311L130.8178125,100.2463659455146L131.02890625,102.41027030982593L131.9034375,105.80754160756865L131.96375,107.25166327118252L132.0240625,110.04581131880533L132.2653125,105.22862764087039L132.77796875,111.66330648856496L132.92875,113.03001953889097L133.5921875,100.11195989039777L133.68265625,119.60701717495814L133.8334375,109.57041430479794L134.04453125,103.9324556874344L134.16515625,128.04689119972883L134.22546875,110.66912123958011L134.40640625,109.53925653747541L134.4365625,118.14958739811036L134.6175,110.3186129187363L134.82859374999998,108.1367521704459L135.00953125,101.08467771004264L135.1,118.37467337633845L135.61265625,103.61302416641006L135.67296875,95.1689416716496L135.97453125,108.38878560583623L136.065,113.73949360430964L136.27609375,99.47372618666849L136.75859375000002,111.9594672131352L136.81890625,111.13477271048922L136.99984375,121.20272104536545L137.12046875000001,122.5254761021998L137.18078125,109.9413853218753L137.60296875,106.63191592054338L138.115625,110.52870150718888L138.4775,122.97755815566052L138.68859375,100.68783021504835L138.71875,122.10744824446738L139.2615625,98.768977679157L139.321875,104.93457943206238L139.3821875,106.29547754353067L139.47265625,114.40686456812546L139.563125,110.31708189685983L140.07578124999998,107.70809548776337L140.4075,120.08233322146245L140.43765625,123.61406209909667L140.61859375,126.55425344023388L140.82968749999998,123.3928588806755L141.734375,114.21897211654058L141.7946875,95.85904242178529L142.5184375,101.90194528445134L142.6390625,107.40864085795408L142.66921875,117.4765487090788L142.699375,120.24247222119529L142.8803125,110.17669528753807L142.97078125000002,110.97969786004008L143.03109375,125.63002411391224L143.3025,111.03420371097874L143.51359375,115.64504170730814L143.90562500000001,111.71953841945569L144.146875,114.12323908516878L144.53890625,101.36428426057358L144.59921875,116.90445809468574L144.6896875,109.36877209905327L145.05156250000002,105.8374811820039L145.17218749999998,115.36771696822768L145.32296874999997,95.89282795261695L145.38328124999998,102.98859174161528L145.68484375,107.05041486193011L145.74515625,117.220816530934L145.80546875000002,112.83784317032485L146.1975,114.08042567774342L146.67999999999998,117.48216858986092L146.83078125,121.00400103041383L147.041875,119.84966942101406L147.79578125,115.90081436920445L147.82593749999998,111.55458185328946L147.85609375,108.66984589108162L148.06718750000002,97.48733203184221L148.36874999999998,106.43803187373041L148.61,121.82643948399668L148.82109375,112.45340946568952L148.94171875,108.66949993902298L149.2734375,117.87791198254044L149.454375,109.66601484389199L149.6353125,96.71212707528483L150.29875,119.26114976417739L150.63046875,112.58420510623708L150.78125,125.58562815983572L151.05265625,115.10177552401242L151.0828125,113.97719947199543L151.41453125,126.98626659395327L151.44468750000001,112.567742940724L151.77640624999998,116.26731009156597L151.86687500000002,116.68810556576742L152.07796875,122.5891018382584L152.16843749999998,97.16924383530082L152.19859375000001,105.35972506938398L152.22875,108.37131134653463L153.58578125,100.61450309998406L153.7365625,103.41217691433201L153.76671875,113.64147508114627L154.06828124999998,120.19948583774061L155.81734375,109.46152405417523L156.2696875,119.89410217850107L156.60140625,109.7576332539708L156.6315625,109.75548025445701L156.691875,109.92185375192719L156.75218750000002,111.82554696303689L156.84265625,114.87164747854695L156.87281249999998,93.50013518698202L156.933125,122.33546377417062L157.62671874999998,117.43676054199588L157.7775,118.18995337873801L157.86796875,109.3405880472985L158.10921875000003,106.70413525295184L158.4409375,119.54717850983918L158.71234374999997,105.19648354214667L158.80281250000002,103.09830270829195L158.83296875,108.41827249832244L159.104375,99.74555249622142L159.2853125,114.64546107834515L159.7678125,122.37777665521328L159.94875000000002,99.85259521563744L160.06937499999998,120.46044410017525L160.34078125,101.91329545624708L160.40109375,109.09357091675822L160.67249999999999,109.97563089533813L160.793125,113.3166113767333L160.9740625,121.62635406251583L161.12484375,125.64706777331108L161.78828125,106.44763756386882L161.90890624999997,111.35631083994585L162.18031249999999,112.09484119794796L162.63265625,110.75281955572103L162.84375,122.7961394239812L163.0246875,114.33349328896858L163.14531250000002,99.98865374388535L163.17546875,112.55395270281264L163.74843750000002,112.48483589790865L163.77859375,115.88130488130264L163.83890625,116.37094481517042L164.01984374999998,110.56678199602497L164.1103125,93.83545105997472L164.92453125,111.57194570235959L165.10546875,111.7001577434906L165.22609375,108.797936480958L165.3165625,82.17646920748261L165.55781249999998,121.93645591898044L165.618125,106.15337957562102L166.13078125,124.36130382436224L166.1609375,113.14056594298583L166.73390625,119.87415104967334L166.7640625,120.73480248437004L166.85453125,108.52123371951488L167.06562499999998,121.87650684363001L167.1259375,125.4383335503646L167.3671875,115.71994400834146L167.4275,111.62362505137247L167.45765624999999,127.79625261359615L167.91,125.03380518360063L168.21156249999999,106.48844518542236L168.30203125,123.63434813895987L168.63375,105.08821158882023L168.72421875,102.19921747201846L168.78453125000001,121.44611303997226L168.84484375,126.51582331899812L169.20671875,94.61876748820455L169.71937499999999,123.64356003260602L170.17171875,117.72658739962046L170.35265625000002,117.6105278446339L170.56375,112.53076287386162L170.80499999999998,120.38430520454939L170.925625,108.14075638150743L171.13671875,122.37239599659935L171.166875,112.81594882142315L171.19703125,119.18289467244821L171.49859375000003,90.09878607135678L172.131875,116.43738969247269L172.28265625,124.57692028507071L172.4334375,110.71640626138023L172.91593749999998,115.5374211743474L173.06671875,111.76423984183928L173.24765625,109.40030158082178L173.36828125,123.3884240697112L173.3984375,126.97664618245066L173.6396875,110.55657641029555L173.73015625,120.57227862363733L173.7603125,121.95056634656308L173.820625,110.51590864170187L173.91109375,122.74688541971975L174.1825,118.0488159798422L174.27296875,107.98162579522209L174.303125,110.12773571056054L174.42375,108.1204445792569L174.51421875,104.79672857772351L174.544375,113.22416488991843L174.7253125,108.94957021252614L174.90625,119.69985377792423L174.9665625,108.84224778719039L175.05703125,118.42311770556907L175.66015625,122.11617433309502L176.11249999999998,105.83488286122318L176.474375,115.1390095344072L177.04734375,107.68839094178595L177.10765625,117.11258138101806L177.59015625,116.11937878309334L177.680625,120.7446437163356L177.7409375,99.42544011210298L177.77109375,93.52059788321557L178.3440625,118.44295106348322L179.0678125,115.60224670158803L179.15828125,132.41729619565496L179.5503125,114.30479030912586L179.7915625,118.03976602120221L180.0328125,110.16849548768045L180.06296874999998,111.27790853457472L180.1534375,113.3622255236971L180.21375,106.66825192772214L180.24390625,111.39663633682196L180.66609375,105.85356795272996L180.90734375,108.98819171149646L181.57078125,113.2933921050539L181.75171874999998,121.99775567949594L181.84218750000002,121.40614085583688L182.05328125,117.78110061124121L182.44531250000003,111.37601906626432L182.50562499999998,128.33804298013112L182.53578125,106.00871641000008L182.746875,102.68934321090475L183.2896875,103.08121488480052L183.7721875,129.0792728682928L183.98328125,110.6585365787226L184.1340625,119.5349192938043L184.16421875,117.27217200993456L184.34515624999997,126.75803760446918L184.7371875,123.96022393716137L184.79749999999999,122.85904381319415L184.9784375,122.4141016213689L185.7625,119.50698182489981L185.91328125,127.34025651742962L186.30531249999999,114.82409011150916L186.4259375,120.20792117942537L186.96875,109.03228955794798L187.21,119.47078199033987L187.90359375,111.50500765935672L187.99406249999998,122.53342195852504L188.02421875000002,129.37699773780898L188.14484374999998,127.3699513491851L188.175,122.53469535652806L188.295625,110.55296231538522L188.83843750000003,112.72491190523013L188.9590625,123.72680198645685L189.65265625,113.42012096874208L190.04468749999998,121.36384269615841L190.5271875,120.57292268332094L190.85890625,119.71527072657935L191.34140624999998,126.21875355018872L191.43187500000002,124.95463368695022L191.76359375,124.88294064331178L191.79375,129.1924028718042L191.88421875,123.1883717712998L192.396875,126.02488422473996L192.5175,112.67267314437775L193.12062500000002,104.54479451154151L193.1809375,125.51035414435641L193.603125,117.45939831978951L193.75390625,111.20666817288534L194.17609375,120.55872760789416L194.20624999999998,111.42455172368014L194.2665625,103.47611547937979L194.41734375000001,121.20784408010594L195.26171875,115.0139405045322L195.533125,112.4843611339133L195.74421875,108.72973240063422L195.86484375,114.01195661286408L196.04578125,112.28830936622236L196.22671875,110.34282956284004L196.3775,119.54743981405367L196.46796875,114.34306585603755L196.52828125000002,113.14450390790847L196.980625,122.79743490403052L197.25203125,128.9921867982161L197.49328125,126.22498068724397L198.0059375,104.30701135669368L198.15671875,96.44144903213923L198.21703125,115.32312227573452L198.3075,108.87453541921502L198.57890625000002,115.47457199025018L198.63921875,112.24998597487703L198.82015625,120.54504409987324L199.18203125000002,123.87659922784141L199.33281250000002,101.80528848747619L199.63437499999998,127.08292339092844L199.9359375,118.57403745097366L199.99625,123.69412423828098L200.44859375,98.90054251098384L200.7803125,118.32307499482866L200.840625,120.91474539928862L200.96125,113.89868307605178L201.323125,128.25898741422375L201.41359375000002,109.8359214687694L202.65,109.17334966968176L202.74046875,120.87077636477382L202.86109375,118.66878415094429L203.28328125,110.66233469068537L203.615,125.26366824451057L203.82609375,108.79744331525742L204.0371875,118.63472259453394L204.33875,127.49863263379989L204.42921875000002,119.28358144287226L204.57999999999998,118.54190071293203L204.73078124999998,117.68603004125825L204.91171875,127.87288099458155L205.27359375,115.89196682932217L205.30375,120.58826602515505L205.81640625,124.22978315662799L205.906875,111.55732002703006L206.11796875000002,117.71879611761929L206.47984375,131.16870553147356L206.9321875,120.27042441146395L206.9925,102.61622587528026L207.20359375,121.69465751204794L207.50515625,115.2595995892253L207.74640625,126.28317423991393L207.80671875000002,117.33073359670945L207.86703125,127.41800004175295L208.01781250000002,104.91865091600144L208.28921875,111.58274014265689L208.59078125,109.37069323708096L208.62093750000003,98.22911213099076L208.9225,117.09355769813473L209.043125,119.29081331303395L209.07328125,119.70968764920771L209.64625,113.36489009061673L209.79703125,115.51061357014501L209.85734375,121.07336073782707L209.8875,123.16090170570855L209.97796874999997,110.21924371040788L210.249375,120.40111332212109L210.79218749999998,115.65891291272257L211.3953125,113.80842271182013L211.54609375,113.56544291541084L211.81750000000002,118.23448918577438L211.9984375,120.46360183279548L212.02859375,113.4746010572934L212.05875,130.12825839550027L212.14921875,109.00789993781493L212.2396875,115.60527930261256L212.661875,128.093096041431L212.90312500000002,124.32226644685336L213.41578125,123.0656287169679L213.44593749999999,109.77650236253005L213.5665625,128.38280512814202L213.71734375,119.88730090824214L213.9284375,121.93011469135267L214.19984375,126.14899636594217L214.26015625,132.75991018494824L214.56171875,126.11292902365999L214.74265625,118.72781682137347L214.80296875,128.75970333447913L214.98390625,112.74905494251287L215.04421875,118.57993335733448L215.10453125,117.70854636779727L215.46640625,129.87294209589405L215.52671875,118.43273443673064L215.58703125,119.00491705964991L216.280625,124.5188113802449L216.40125,125.50024792783532L216.55203125,105.13179418752486L216.6425,124.48116149131155L217.125,126.69765056853389L217.4265625,126.59638230422408L217.45671875,126.30044240011678L217.51703125,122.62721176982288L217.69796875,114.13047095533045L217.87890625,120.96510350586485L218.09,122.50690142092449L218.24078125,112.18792070342332L218.451875,118.77282003172311L218.6328125,104.00924600342599L219.02484375,118.43547629081229L219.2359375,122.56958130933344L219.80890625,116.16430470628094L220.41203125,129.06250707464318L220.5025,129.8953884959531L220.623125,117.37550494557297L220.65328125,114.22816928882256L220.86437500000002,103.08096094126812L221.37703125,119.39132342708763L221.70875,113.41366565054179L222.04046875,117.64382757044707L222.2515625,107.03747110246007L222.4325,118.7585697511806L223.15625,115.06486538362999L223.84984375000002,117.04678792408149L224.12125,107.76929955941158L224.57359375,119.45205641508154L224.60375000000002,123.10075389194147L224.81484375000002,113.89697539780495L224.93546874999998,127.55432539472693L225.3275,115.47145842172256L225.35765625000002,125.30456051390824L225.65921875,101.93547319140957L225.77984375,112.07588008086248L226.02109374999998,123.79156126755859L226.05125,127.67443884537917L226.171875,127.06338814063929L226.44328125,123.58563514483265L226.4734375,123.77868375422743L226.775,108.53952869487046L226.80515625,121.1292540773413L226.8353125,123.69907061665111L227.0765625,123.84160654514562L227.1971875,120.85269852954015L227.6796875,126.67043444647506L227.92093749999998,122.06471948488615L228.4034375,114.31985762538129L228.52406249999999,123.08995577130311L228.584375,125.49538619730932L228.61453125,114.41543240208799L228.705,120.11091843039159L228.97640625,129.85821337101515L229.0065625,116.04193704673605L229.27796874999999,122.76776399449186L229.3684375,118.999462794215L229.67,131.55068444862908L229.82078124999998,112.87445888342334L230.90640625,120.47793308084105L231.1778125,122.82851170384997L231.238125,127.35120921239204L231.35875000000001,127.65771353548107L231.5396875,110.96840657370112L231.63015625,122.12558128481677L231.84125,128.59630171240616L231.93171875,114.9914241779932L232.0825,126.5343427951577L232.17296875,125.89232938117088L232.203125,131.09683583146477L232.41421874999997,115.71426892244361L232.53484375,118.04000892371145L232.65546875,125.9159902937762L232.95703125,128.30401822713125L232.9871875,121.73949142670931L233.3490625,125.38233716130101L233.4696875,97.48374369931923L233.68078125,117.27798694879229L233.80140625,124.12694706703122L234.133125,126.9587781266568L234.495,123.64747223514132L234.9775,126.51968767709977L235.61078124999997,122.76258943497669L235.73140625,123.85299352035184L236.18375,123.88857137727447L236.42499999999998,128.62487035980058L236.60593749999998,127.62027894649913L236.7265625,129.76980421833125L236.84718750000002,119.48713374562148L237.0884375,113.69900249208634L237.269375,112.02725541492043L237.29953125,124.78128962353284L237.8121875,124.38247314607725L238.02328125,123.00657028415137L238.08359375,111.05364695274167L238.26453125,112.6954838982007L238.50578124999998,113.89391703439307L238.59625,117.82272526850768L238.716875,120.61667089737279L239.0184375,122.34453949519795L239.25968749999998,123.76776418233445L239.35015625000003,122.42379195935145L239.77234375,120.49541838116582L239.89296875,122.3670889448064L240.13421875,125.82656904730376L240.2246875,110.66549610364663L240.405625,110.66187464805424L240.91828125,108.12698822564238L240.9484375,111.48476210324506L241.00875,94.47922367698305L241.55156250000002,103.58442055577567L241.6721875,118.82237214360956L241.76265625,111.85649863126066L242.215,130.02488497611031L242.30546875,127.47557345695613L242.42609375,123.3976911684731L242.6371875,130.25878537115122L243.02921875,126.45130694040563L243.21015624999998,122.31818089260358L243.63234375,132.28369981556898L243.99421875000002,109.98389694133462L244.2053125,101.40208872383099L244.4465625,124.06921723733345L244.6878125,108.60447935370675L244.71796874999998,124.90979241160676L244.86875,126.62001009375994L244.989375,116.31915137558502L245.38140625,130.09078700310783L245.50203125,130.4640103889073L245.92421875,119.47818683653085L246.28609375000002,130.062374770208L246.31625,126.3388173162368L246.52734375,115.2043797521231L246.76859375,107.90731970943872L246.94953124999998,119.83707529394368L247.13046875,120.38528417526848L247.3415625,116.08757695608719L247.401875,122.34161730440488L247.67328125,121.20722946315072L247.73359375,125.79498068007847L247.76375,124.37464138032455L248.33671875000002,117.52781585989416L248.4271875,108.84682245111455L248.69859375,119.34763041815151L249.09062500000002,110.0132403005199L249.42234375,98.85971648772505L249.5128125,109.86424537348405L249.81437499999998,110.78778647602948L250.29687500000003,103.79414847080542L250.62859375,110.4528828012343L250.7190625,110.89107156723426L251.17140625,118.74621852661949L251.47296875,116.76936749613378L251.50312499999998,125.40065789904392L251.65390624999998,105.90485350525057L251.6840625,112.34063277491884L251.83484375,125.30076240194548L251.89515624999999,115.08650578899929L252.01578125,123.62219933315646L252.04593749999998,121.54703535222345L252.07609375,125.84749178616848L252.5284375,112.02583112293439L252.73953125,124.17847184172004L252.7696875,115.93661672693108L252.89031250000002,135.67206100763158L252.950625,125.43235667650069L253.22203125000001,122.2747455075409L253.34265625,111.55880688481395L253.43312500000002,120.18621084757615L254.2171875,121.33265180576645L254.24734375,112.48612769761692L254.51875,117.29792703659686L254.60921875,118.2233303917132L254.72984375000001,126.20781557659049L254.8203125,119.64232636698418L255.121875,101.24973732575825L255.15203125,110.21858492936006L255.1821875,129.59952035849628L255.21234375,112.97433965915761L255.363125,128.56874883914134L255.5440625,115.18460896000678L255.66468749999999,130.46242784225615L255.725,123.18232129061491L256.086875,116.2931718481187L256.2075,104.02836169483552L256.29796875,132.42025150951747" style="fill: none;" fill="none"></path></g></g></g></g></g></g><g transform="translate(58, 177)" clip-path="url(#clip_1)"><clipPath id="clip_1"><rect width="271" height="22"></rect></clipPath><g><g><line x1="0" y1="0" x2="0" y2="5" style="visibility: inherit;" fill="rgb(0, 0, 0)" stroke="rgb(204, 204, 204)" stroke-width="1.3333333730697632px"></line><line x1="30.15625" y1="0" x2="30.15625" y2="5" style="visibility: inherit;" fill="rgb(0, 0, 0)" stroke="rgb(204, 204, 204)" stroke-width="1.3333333730697632px"></line><line x1="60.3125" y1="0" x2="60.3125" y2="5" style="visibility: inherit;" fill="rgb(0, 0, 0)" stroke="rgb(204, 204, 204)" stroke-width="1.3333333730697632px"></line><line x1="90.46875" y1="0" x2="90.46875" y2="5" style="visibility: inherit;" fill="rgb(0, 0, 0)" stroke="rgb(204, 204, 204)" stroke-width="1.3333333730697632px"></line><line x1="120.625" y1="0" x2="120.625" y2="5" style="visibility: inherit;" fill="rgb(0, 0, 0)" stroke="rgb(204, 204, 204)" stroke-width="1.3333333730697632px"></line><line x1="150.78125" y1="0" x2="150.78125" y2="5" style="visibility: inherit;" fill="rgb(0, 0, 0)" stroke="rgb(204, 204, 204)" stroke-width="1.3333333730697632px"></line><line x1="180.9375" y1="0" x2="180.9375" y2="5" style="visibility: inherit;" fill="rgb(0, 0, 0)" stroke="rgb(204, 204, 204)" stroke-width="1.3333333730697632px"></line><line x1="211.09375" y1="0" x2="211.09375" y2="5" style="visibility: inherit;" fill="rgb(0, 0, 0)" stroke="rgb(204, 204, 204)" stroke-width="1.3333333730697632px"></line><line x1="241.25" y1="0" x2="241.25" y2="5" style="visibility: inherit;" fill="rgb(0, 0, 0)" stroke="rgb(204, 204, 204)" stroke-width="1.3333333730697632px"></line><line x1="271.40625" y1="0" x2="271.40625" y2="5" style="visibility: inherit;" fill="rgb(0, 0, 0)" stroke="rgb(204, 204, 204)" stroke-width="1.3333333730697632px"></line></g><g transform="translate(0, 8)"><text x="0" y="0" dx="0em" dy="0.95em" style="text-anchor: middle; visibility: hidden; font-family: &quot;Helvetica Neue&quot;, sans-serif; font-size: 16px; font-weight: 200;" fill="rgb(50, 49, 63)" stroke="none" stroke-width="1.3333333730697632px">-1k</text><text x="30.15625" y="0" dx="0em" dy="0.95em" style="text-anchor: middle; visibility: inherit; font-family: &quot;Helvetica Neue&quot;, sans-serif; font-size: 16px; font-weight: 200;" fill="rgb(50, 49, 63)" stroke="none" stroke-width="1.3333333730697632px">0</text><text x="60.3125" y="0" dx="0em" dy="0.95em" style="text-anchor: middle; visibility: inherit; font-family: &quot;Helvetica Neue&quot;, sans-serif; font-size: 16px; font-weight: 200;" fill="rgb(50, 49, 63)" stroke="none" stroke-width="1.3333333730697632px">1k</text><text x="90.46875" y="0" dx="0em" dy="0.95em" style="text-anchor: middle; visibility: inherit; font-family: &quot;Helvetica Neue&quot;, sans-serif; font-size: 16px; font-weight: 200;" fill="rgb(50, 49, 63)" stroke="none" stroke-width="1.3333333730697632px">2k</text><text x="120.625" y="0" dx="0em" dy="0.95em" style="text-anchor: middle; visibility: inherit; font-family: &quot;Helvetica Neue&quot;, sans-serif; font-size: 16px; font-weight: 200;" fill="rgb(50, 49, 63)" stroke="none" stroke-width="1.3333333730697632px">3k</text><text x="150.78125" y="0" dx="0em" dy="0.95em" style="text-anchor: middle; visibility: inherit; font-family: &quot;Helvetica Neue&quot;, sans-serif; font-size: 16px; font-weight: 200;" fill="rgb(50, 49, 63)" stroke="none" stroke-width="1.3333333730697632px">4k</text><text x="180.9375" y="0" dx="0em" dy="0.95em" style="text-anchor: middle; visibility: inherit; font-family: &quot;Helvetica Neue&quot;, sans-serif; font-size: 16px; font-weight: 200;" fill="rgb(50, 49, 63)" stroke="none" stroke-width="1.3333333730697632px">5k</text><text x="211.09375" y="0" dx="0em" dy="0.95em" style="text-anchor: middle; visibility: inherit; font-family: &quot;Helvetica Neue&quot;, sans-serif; font-size: 16px; font-weight: 200;" fill="rgb(50, 49, 63)" stroke="none" stroke-width="1.3333333730697632px">6k</text><text x="241.25" y="0" dx="0em" dy="0.95em" style="text-anchor: middle; visibility: inherit; font-family: &quot;Helvetica Neue&quot;, sans-serif; font-size: 16px; font-weight: 200;" fill="rgb(50, 49, 63)" stroke="none" stroke-width="1.3333333730697632px">7k</text><text x="271.40625" y="0" dx="0em" dy="0.95em" style="text-anchor: middle; visibility: hidden; font-family: &quot;Helvetica Neue&quot;, sans-serif; font-size: 16px; font-weight: 200;" fill="rgb(50, 49, 63)" stroke="none" stroke-width="1.3333333730697632px">8k</text></g><line x1="0" y1="0" x2="271.40625" y2="0" fill="rgb(0, 0, 0)" stroke="rgb(204, 204, 204)" stroke-width="1.3333333730697632px"></line></g></g></g></g></svg>