<svg viewBox="0 0 330 200" xmlns="http://www.w3.org/2000/svg"><g><g><g><g><g><line x1="58.59375" y1="177.828125" x2="53.59375" y2="177.828125" style="visibility: inherit;" fill="rgb(0, 0, 0)" stroke="rgb(204, 204, 204)" stroke-width="1.3333333730697632px"></line><line x1="58.59375" y1="160.0453125" x2="53.59375" y2="160.0453125" style="visibility: inherit;" fill="rgb(0, 0, 0)" stroke="rgb(204, 204, 204)" stroke-width="1.3333333730697632px"></line><line x1="58.59375" y1="142.2625" x2="53.59375" y2="142.2625" style="visibility: inherit;" fill="rgb(0, 0, 0)" stroke="rgb(204, 204, 204)" stroke-width="1.3333333730697632px"></line><line x1="58.59375" y1="124.47968750000001" x2="53.59375" y2="124.47968750000001" style="visibility: inherit;" fill="rgb(0, 0, 0)" stroke="rgb(204, 204, 204)" stroke-width="1.3333333730697632px"></line><line x1="58.59375" y1="106.69687499999999" x2="53.59375" y2="106.69687499999999" style="visibility: inherit;" fill="rgb(0, 0, 0)" stroke="rgb(204, 204, 204)" stroke-width="1.3333333730697632px"></line><line x1="58.59375" y1="88.91406249999999" x2="53.59375" y2="88.91406249999999" style="visibility: inherit;" fill="rgb(0, 0, 0)" stroke="rgb(204, 204, 204)" stroke-width="1.3333333730697632px"></line><line x1="58.59375" y1="71.13124999999998" x2="53.59375" y2="71.13124999999998" style="visibility: inherit;" fill="rgb(0, 0, 0)" stroke="rgb(204, 204, 204)" stroke-width="1.3333333730697632px"></line><line x1="58.59375" y1="53.3484375" x2="53.59375" y2="53.3484375" style="visibility: inherit;" fill="rgb(0, 0, 0)" stroke="rgb(204, 204, 204)" stroke-width="1.3333333730697632px"></line><line x1="58.59375" y1="35.56562499999998" x2="53.59375" y2="35.56562499999998" style="visibility: inherit;" fill="rgb(0, 0, 0)" stroke="rgb(204, 204, 204)" stroke-width="1.3333333730697632px"></line><line x1="58.59375" y1="17.782812500000006" x2="53.59375" y2="17.782812500000006" style="visibility: inherit;" fill="rgb(0, 0, 0)" stroke="rgb(204, 204, 204)" stroke-width="1.3333333730697632px"></line><line x1="58.59375" y1="0" x2="53.59375" y2="0" style="visibility: inherit;" fill="rgb(0, 0, 0)" stroke="rgb(204, 204, 204)" stroke-width="1.3333333730697632px"></line></g><g transform="translate(48.59375, 0)"><text x="0" y="177.828125" dx="0em" dy="0.3em" style="text-anchor: end; visibility: hidden; font-family: &quot;Helvetica Neue&quot;, sans-serif; font-size: 16px; font-weight: 200;" fill="rgb(50, 49, 63)" stroke="none" stroke-width="1.3333333730697632px">-0.01</text><text x="0" y="160.0453125" dx="0em" dy="0.3em" style="text-anchor: end; visibility: inherit; font-family: &quot;Helvetica Neue&quot;, sans-serif; font-size: 16px; font-weight: 200;" fill="rgb(50, 49, 63)" stroke="none" stroke-width="1.3333333730697632px">0</text><text x="0" y="142.2625" dx="0em" dy="0.3em" style="text-anchor: end; visibility: hidden; font-family: &quot;Helvetica Neue&quot;, sans-serif; font-size: 16px; font-weight: 200;" fill="rgb(50, 49, 63)" stroke="none" stroke-width="1.3333333730697632px">0.01</text><text x="0" y="124.47968750000001" dx="0em" dy="0.3em" style="text-anchor: end; visibility: inherit; font-family: &quot;Helvetica Neue&quot;, sans-serif; font-size: 16px; font-weight: 200;" fill="rgb(50, 49, 63)" stroke="none" stroke-width="1.3333333730697632px">0.02</text><text x="0" y="106.69687499999999" dx="0em" dy="0.3em" style="text-anchor: end; visibility: hidden; font-family: &quot;Helvetica Neue&quot;, sans-serif; font-size: 16px; font-weight: 200;" fill="rgb(50, 49, 63)" stroke="none" stroke-width="1.3333333730697632px">0.03</text><text x="0" y="88.91406249999999" dx="0em" dy="0.3em" style="text-anchor: end; visibility: inherit; font-family: &quot;Helvetica Neue&quot;, sans-serif; font-size: 16px; font-weight: 200;" fill="rgb(50, 49, 63)" stroke="none" stroke-width="1.3333333730697632px">0.04</text><text x="0" y="71.13124999999998" dx="0em" dy="0.3em" style="text-anchor: end; visibility: hidden; font-family: &quot;Helvetica Neue&quot;, sans-serif; font-size: 16px; font-weight: 200;" fill="rgb(50, 49, 63)" stroke="none" stroke-width="1.3333333730697632px">0.05</text><text x="0" y="53.3484375" dx="0em" dy="0.3em" style="text-anchor: end; visibility: inherit; font-family: &quot;Helvetica Neue&quot;, sans-serif; font-size: 16px; font-weight: 200;" fill="rgb(50, 49, 63)" stroke="none" stroke-width="1.3333333730697632px">0.06</text><text x="0" y="35.56562499999998" dx="0em" dy="0.3em" style="text-anchor: end; visibility: hidden; font-family: &quot;Helvetica Neue&quot;, sans-serif; font-size: 16px; font-weight: 200;" fill="rgb(50, 49, 63)" stroke="none" stroke-width="1.3333333730697632px">0.07</text><text x="0" y="17.782812500000006" dx="0em" dy="0.3em" style="text-anchor: end; visibility: inherit; font-family: &quot;Helvetica Neue&quot;, sans-serif; font-size: 16px; font-weight: 200;" fill="rgb(50, 49, 63)" stroke="none" stroke-width="1.3333333730697632px">0.08</text><text x="0" y="0" dx="0em" dy="0.3em" style="text-anchor: end; visibility: hidden; font-family: &quot;Helvetica Neue&quot;, sans-serif; font-size: 16px; font-weight: 200;" fill="rgb(50, 49, 63)" stroke="none" stroke-width="1.3333333730697632px">0.09</text></g><line x1="58.59375" y1="0" x2="58.59375" y2="177.828125" fill="rgb(0, 0, 0)" stroke="rgb(204, 204, 204)" stroke-width="1.3333333730697632px"></line></g></g><g transform="translate(58, 0)" clip-path="url(#clip_0)"><clipPath id="clip_0"><rect width="271" height="177"></rect></clipPath><g><g><g><line x1="0" y1="0" x2="0" y2="177.828125" fill="rgb(0, 0, 0)" stroke="rgb(60, 60, 60)" stroke-width="1.3333333730697632px" opacity="0.25"></line><line x1="30.15625" y1="0" x2="30.15625" y2="177.828125" fill="rgb(0, 0, 0)" stroke="rgb(60, 60, 60)" stroke-width="1.3333333730697632px" opacity="0.25"></line><line x1="60.3125" y1="0" x2="60.3125" y2="177.828125" fill="rgb(0, 0, 0)" stroke="rgb(60, 60, 60)" stroke-width="1.3333333730697632px" opacity="0.25"></line><line x1="90.46875" y1="0" x2="90.46875" y2="177.828125" fill="rgb(0, 0, 0)" stroke="rgb(60, 60, 60)" stroke-width="1.3333333730697632px" opacity="0.25"></line><line x1="120.625" y1="0" x2="120.625" y2="177.828125" fill="rgb(0, 0, 0)" stroke="rgb(60, 60, 60)" stroke-width="1.3333333730697632px" opacity="0.25"></line><line x1="150.78125" y1="0" x2="150.78125" y2="177.828125" fill="rgb(0, 0, 0)" stroke="rgb(60, 60, 60)" stroke-width="1.3333333730697632px" opacity="0.25"></line><line x1="180.9375" y1="0" x2="180.9375" y2="177.828125" fill="rgb(0, 0, 0)" stroke="rgb(60, 60, 60)" stroke-width="1.3333333730697632px" opacity="0.25"></line><line x1="211.09375" y1="0" x2="211.09375" y2="177.828125" fill="rgb(0, 0, 0)" stroke="rgb(60, 60, 60)" stroke-width="1.3333333730697632px" opacity="0.25"></line><line x1="241.25" y1="0" x2="241.25" y2="177.828125" fill="rgb(0, 0, 0)" stroke="rgb(60, 60, 60)" stroke-width="1.3333333730697632px" opacity="0.25"></line><line x1="271.40625" y1="0" x2="271.40625" y2="177.828125" fill="rgb(0, 0, 0)" stroke="rgb(60, 60, 60)" stroke-width="1.3333333730697632px" opacity="0.25"></line></g><g><line x1="0" y1="177.828125" x2="271.40625" y2="177.828125" fill="rgb(0, 0, 0)" stroke="rgb(60, 60, 60)" stroke-width="1.3333333730697632px" opacity="0.25"></line><line x1="0" y1="160.0453125" x2="271.40625" y2="160.0453125" fill="rgb(0, 0, 0)" stroke="rgb(60, 60, 60)" stroke-width="1.3333333730697632px" opacity="0.25"></line><line x1="0" y1="142.2625" x2="271.40625" y2="142.2625" fill="rgb(0, 0, 0)" stroke="rgb(60, 60, 60)" stroke-width="1.3333333730697632px" opacity="0.25"></line><line x1="0" y1="124.47968750000001" x2="271.40625" y2="124.47968750000001" fill="rgb(0, 0, 0)" stroke="rgb(60, 60, 60)" stroke-width="1.3333333730697632px" opacity="0.25"></line><line x1="0" y1="106.69687499999999" x2="271.40625" y2="106.69687499999999" fill="rgb(0, 0, 0)" stroke="rgb(60, 60, 60)" stroke-width="1.3333333730697632px" opacity="0.25"></line><line x1="0" y1="88.91406249999999" x2="271.40625" y2="88.91406249999999" fill="rgb(0, 0, 0)" stroke="rgb(60, 60, 60)" stroke-width="1.3333333730697632px" opacity="0.25"></line><line x1="0" y1="71.13124999999998" x2="271.40625" y2="71.13124999999998" fill="rgb(0, 0, 0)" stroke="rgb(60, 60, 60)" stroke-width="1.3333333730697632px" opacity="0.25"></line><line x1="0" y1="53.3484375" x2="271.40625" y2="53.3484375" fill="rgb(0, 0, 0)" stroke="rgb(60, 60, 60)" stroke-width="1.3333333730697632px" opacity="0.25"></line><line x1="0" y1="35.56562499999998" x2="271.40625" y2="35.56562499999998" fill="rgb(0, 0, 0)" stroke="rgb(60, 60, 60)" stroke-width="1.3333333730697632px" opacity="0.25"></line><line x1="0" y1="17.782812500000006" x2="271.40625" y2="17.782812500000006" fill="rgb(0, 0, 0)" stroke="rgb(60, 60, 60)" stroke-width="1.3333333730697632px" opacity="0.25"></line><line x1="0" y1="0" x2="271.40625" y2="0" fill="rgb(0, 0, 0)" stroke="rgb(60, 60, 60)" stroke-width="1.3333333730697632px" opacity="0.25"></line></g></g></g><g><g><line x1="0" y1="160.0453125" x2="271.40625" y2="160.0453125" fill="rgb(0, 0, 0)" stroke="rgb(153, 153, 153)" stroke-width="2px"></line></g></g><g><g><line x1="30.15625" y1="0" x2="30.15625" y2="177.828125" fill="rgb(0, 0, 0)" stroke="rgb(153, 153, 153)" stroke-width="2px"></line></g></g><g><g><g><g><g><path stroke="rgb(255, 112, 67)" stroke-width="2.6666667461395264px" d="M39.911796875,-6.970374873497917L39.941953125,4.036968194960224L40.122890625000004,10.255434555219267L40.273671875,15.693624355255054L40.92203125,14.040380446551893L41.04265625,7.700934472178602L41.163281250000004,-2.4563472957261467L41.5553125,-11.724876248877024L41.691015625,13.95075412698472L41.75132812499999,8.321878262333001L41.781484375,3.60189190016618L41.992578125,26.971334450753517L42.022734375,27.7438781963761L42.12828125,25.209194292449695L42.248906250000005,26.250016147049337L42.339375,31.89041251108634L42.761562500000004,40.890279876083724L43.862265625000006,33.53039104244388L44.35984375,27.462252540007967L44.405078125,17.111578914450888L44.661406250000006,28.38576726069772L44.797109375000005,46.22139859530316L44.81218749999999,47.05970775884697L44.90265625,49.99375166426897L44.917734375,36.346237649597185L44.993125,35.765033053895024L45.26453125,27.752469378603138L45.309765625000004,30.70744704009158L45.44546875,26.44777934643139L46.184296875,41.94201649517956L46.22953125,33.82694830915264L46.32,28.526539039568917L46.41046875000001,26.067761627503103L46.485859375,40.662422604688885L46.636640625,50.00652831005908L46.727109375,41.92869111410366L46.8025,46.34619068837182L47.5865625,43.702884629061884L47.661953125,49.86134226360569L47.67703125,48.75920799662114L47.9484375,47.7844295084592L48.144453125000005,41.34848614184878L48.34046875,48.90480783750533L48.9134375,54.7220297010592L49.169765625000004,46.736928407641585L49.471328125,47.55094284332088L49.66734375,54.63705091198372L49.9990625,61.331719664240765L50.044296875,49.719236308581316L50.255390625000004,62.595684453777864L50.315703125,65.1618774193495L51.039453125,67.15785155596214L51.144999999999996,54.902437787439695L51.47671875,60.09571800983437L51.657656249999995,61.465877796608524L51.8084375,50.34152920964631L52.26078125,54.686157058197026L52.426640625,51.943433509572756L52.547265625,61.25230330405273L52.637734375,45.898222320617066L53.120234374999995,53.99879935178731L53.180546875000005,68.19769417907938L53.5575,72.78439528664883L53.79875,72.82276211479117L53.813828125,62.92221130074226L54.04,70.32722643726825L54.1003125,68.76005721863177L54.356640625,67.82306004485751L54.884375,59.863892068300515L55.004999999999995,57.40903062536721L55.3065625,62.39428554914166L55.517656249999995,71.62359626631934L55.653359375,74.62837816953882L55.743828125,66.31718165340222L55.81921875,67.18507491140446L55.924765625,60.667259303740096L56.06046875,63.86404133465821L56.2715625,67.07266218422203L56.30171875,71.80276511036179L56.346953125,62.415427865708295L56.48265625,63.46728213123944L57.010390625,64.0126138902379L57.372265625,59.37353600195337L57.68890625,59.47658988111674L57.9603125,64.12590902984157L58.096015625,71.73708529605163L58.29203125,73.55887699136105L58.337265625,61.206619761248476L58.457890625,56.8022969102491L59.061015625,67.31478726387978L59.31734375,72.98421986507638L59.468125,70.356182362881L59.513359375,74.64978530752275L59.814921874999996,82.88079168525964L60.056171875,71.08569767491598L60.327578124999995,72.0026105452572L60.508515625,68.7269801505242L60.76484375,68.2798362243561L60.8553125,73.83648541596423L61.2171875,79.06177039796681L61.413203124999995,82.74045915857819L61.4584375,84.64778939343759L61.473515625000005,79.27025781090977L61.594140625,85.11353748390628L61.654453124999996,71.65717877619635L61.760000000000005,74.90903399201882L62.498828125,77.0264726273352L62.559140625000005,76.5026935848003L62.6646875,64.3383857314046L62.800390625,74.6423196176834L63.132109375,67.97808825493736L63.192421875,64.95956566766243L63.313046875,60.881077317806145L63.433671875,58.27712140054787L63.493984375000004,59.681883262578594L63.795546875,74.1986960019262L63.870937500000004,72.91937732177585L63.886015625,80.94744761410793L63.961406249999996,79.76081294836477L64.14234375,78.97550032301807L64.187578125,78.36678046379237L64.26296875,87.84072982778771L64.549453125,84.84910497104562L64.79070312500001,85.59112663975618L64.941484375,75.32238074731274L65.122421875,82.00841386620444L65.514453125,74.33341723460438L65.65015625,64.68826196802992L66.177890625,59.52067355064244L66.19296874999999,70.04256312474163L66.223125,65.01911701460101L66.8865625,62.29206736985249L67.0071875,74.09200931421645L67.14289062499999,79.53298670820246L67.173046875,78.73985404618999L67.24843750000001,83.01549995931788L67.62539062500001,70.53126191512116L67.64046875,75.82247436206634L67.79124999999999,76.92199383242149L67.82140625,84.30980912136343L67.89679687499999,94.92025812789683L68.10789062500001,96.6518390117113L68.198359375,96.66634930073616L68.3340625,97.31445790698392L68.56023437500001,98.48857565278156L68.650703125,95.39485837524552L69.359375,87.96475207856362L69.44984375,79.86621918299868L69.70617187500001,77.05804280772067L69.796640625,80.69297486916113L70.53546875,74.17161871498408L70.641015625,81.34420336703371L70.71640624999999,85.24783416734768L70.91242187499999,89.99362660441403L71.47031249999999,93.3180318691014L71.68140625000001,92.41477743004585L72.209140625,89.0092506182239L73.460625,86.42862269801172L73.596328125,89.25990538019924L73.73203125,82.75977990693555L73.8225,85.33081030866774L74.18437499999999,89.98791657373881L74.893046875,77.27207782931409L75.013671875,78.51122607890572L75.55648437500001,82.71137760926443L75.797734375,89.51558513044809L75.84296875,95.55526702147607L75.96359375,101.27383206456719L76.008828125,91.35425687837119L76.370703125,93.95459416393012L76.431015625,95.57652733732466L76.883359375,97.39245472119089L77.45632812500001,97.87440951518839L77.72773437500001,98.07231641096695L77.818203125,88.92036123529084L78.05945312499999,92.23772787970681L78.330859375,92.05919628233018L78.3459375,87.71888545281992L78.85859375,93.61191895001079L79.00937499999999,97.47892204553341L79.05460937500001,93.59911066670428L79.0696875,86.66095629594001L79.09984375,91.68985323582976L79.114921875,93.28275632206284L79.491875,101.81828466573224L79.989453125,103.37059358931681L80.592578125,95.38468290743738L81.06,95.75097872673167L81.467109375,99.13619017298859L81.5425,94.15319970414357L81.87421875000001,98.0626254561525L82.160703125,94.59678802655154L82.386875,93.42343470446065L82.62812500000001,94.29070957974295L83.065390625,87.30233964678317L83.110625,92.63006702614267L83.487578125,89.38476461809651L83.87960937499999,90.60380678192467L84.1359375,88.29778301602268L84.4375,88.13589329903782L84.70890625,95.78017064058403L84.7390625,91.12984048719626L84.76921875000001,90.60294438003628L84.85968749999999,94.59710909248741L85.281875,99.17945889401403L85.49296875,95.90502919561695L86.33734375,100.20733031083363L86.39765625000001,93.68067243624012L86.563515625,84.21958175390118L87.0309375,91.45413552288021L87.1515625,94.57883775980989L87.34757812500001,96.85977443179209L87.42296875000001,93.3256425354002L87.66421875,100.23789068075786L87.739609375,96.11533657404755L87.769765625,89.73408216912769L87.920546875,92.83025306137932L87.980859375,95.38209058951047L88.418125,86.90203420046578L88.59906249999999,91.370686911597L89.38312499999999,95.96651649481119L89.54898437499999,84.6668936051417L89.8053125,86.12007606868563L90.22749999999999,91.12669855767447L90.61953125000001,97.2176732271531L90.80046875,97.34156406310909L90.966328125,94.94723089941904L91.0115625,93.69508940016368L91.87101562500001,98.06892908595957L91.94640625000001,99.7023019532216L91.961484375,103.71256715786694L92.112265625,104.57512764832595L93.21296875,106.2143554905176L93.378828125,105.25238221365369L93.39390625,95.88733789242822L93.42406249999999,103.26065509913687L93.49945312499999,107.7068153560015L93.51453125,100.10880711522005L93.891484375,104.24320209308185L93.966875,93.8561625642011L94.01210937500001,93.51094967616301L94.132734375,90.8115017566488L94.434296875,96.03322545870017L94.47953125,84.24934365296436L94.49460937500001,86.15204083235194L94.72078124999999,93.01561638931858L95.0525,93.54631866535239L95.248515625,90.50669675240519L95.278671875,92.84193304939703L95.4746875,101.96923083846669L96.032578125,101.07297871167154L96.394453125,103.9963470564224L96.5,91.38764338561334L96.59046875,95.1023155416064L96.95234375,90.9258512121819L96.99757812499999,91.84864222668342L97.88718750000001,91.72306337524344L98.14351562499999,96.41916841329159L98.15859375000001,100.77328078514014L98.46015625,104.08341014546373L98.505390625,106.45396445267664L98.64109375000001,104.52920557011748L99.18390625,109.13315491728703L99.229140625,102.80697692084817L99.470390625,105.16060638780282L99.9378125,103.80713628701052L100.36,102.80339619720239L100.480625,99.11092610519123L100.54093750000001,98.71137525958041L100.6615625,101.06784153452348L100.827421875,105.49356358116336L101.219453125,107.36994354077521L101.29484375,104.67940565101746L101.53609375,103.94846457982028L101.77734375,102.00999195829162L101.89796875,104.34033359829132L102.03367187500001,103.20529550576461L102.169375,104.52364206826427L102.335234375,102.42423027205348L102.3503125,102.54696522306318L102.53125,103.74652027047784L102.56140625,98.83160316095268L103.134375,99.67034743185276L103.31531249999999,104.79998054837323L103.601796875,104.6240574583084L103.94859375,107.77596669508975L104.25015625,102.69050081455089L104.97390625,108.74273786851076L105.109609375,108.32587924771771L105.15484375,105.00542115324073L105.185,105.6073583445431L105.953984375,110.8550054536432L105.99921875,111.27500137838524L106.30078125,108.32784436893456L106.3309375,108.85824481029786L106.34601562499999,110.0039112741022L106.45156250000001,112.22041247967927L106.72296874999999,106.7136242251265L107.14515625,108.61994126310363L107.44671875,100.48880434416294L107.56734374999999,97.72266916433199L108.034765625,96.54783294755502L108.29109375,101.44111550585181L108.5625,96.2538470236294L108.683125,97.44363473626905L109.150546875,102.28683191377834L109.55765625000001,99.01893203237938L109.904453125,102.05097412739177L110.34171875,93.02788594679299L110.50757812500001,89.48623106855347L110.748828125,97.60904150486033L110.95992187499999,93.98318385719533L111.2765625,87.27971122777217L111.8796875,93.72600945709348L112.21140625,83.1651912063644L112.286796875,76.20562882125218L112.8446875,88.37070722605003L113.01054687499999,80.01654420639515L113.101015625,87.58199409686105L113.31210937499999,89.91377044351071L113.342265625,96.2804526921124L113.824765625,101.42459648993302L114.186640625,100.2200924662862L114.367578125,103.59779683747728L114.397734375,100.08579840022378L114.488203125,100.67258337071308L114.669140625,107.46855937407065L115.04609375,103.56233785724281L115.46828125,107.93208008148622L115.49843750000001,100.36080294074067L115.55874999999999,105.96982684061142L115.784921875,105.87969418490897L116.403125,106.65755612730031L116.44835937500001,108.33307321359486L117.2475,102.62771716732021L117.292734375,99.62565674290686L117.443515625,104.60826359624605L117.714921875,106.97597652745304L117.72999999999999,106.6463057762209L117.986328125,98.57493508143601L118.03156249999999,103.2039339304423L118.54421875,110.2179937587624L118.574375,105.24480622587957L118.67992187499999,107.55370184316904L119.08703125,109.26154794132513L119.222734375,107.6745916694022L119.539375,106.06770996548745L119.90125,107.23952472600368L119.97664062499999,106.65434081847813L120.067109375,107.50003984368426L120.47421875,109.88645546770015L120.77578125000001,103.51698861190106L120.85117187499999,107.00943339926927L121.07734375,109.8292501284161L121.152734375,103.98935562621118L121.80109374999999,105.6795560878828L121.86140625,109.36752024658317L122.17804687499999,110.29984302235663L122.208203125,113.395610556871L122.449453125,110.36655316019151L122.479609375,112.29107559958956L122.57007812500001,112.90748883771721L122.60023437500001,105.83812989507062L122.87164062500001,106.16821489581302L123.21843750000001,100.86129522499866L123.354140625,108.16263395731386L123.640625,110.19392778637568L123.806484375,105.89889617762563L123.836640625,103.92904162418118L123.927109375,102.36316362128792L124.123125,104.80713318960208L124.39453125,105.40104533193033L124.982578125,107.10241712342308L125.329375,100.22547488958377L125.38968750000001,96.73125531672007L125.404765625,102.03231860884542L125.5103125,100.06385619618602L125.76664062500001,104.22512972303656L125.9325,106.74474080752574L126.09835937499999,104.78061759826538L126.20390625,101.8193514316294L126.294375,104.23950059246445L126.65625,106.65656712088837L127.545859375,105.2091611754025L128.088671875,104.23243961902521L128.10375,101.38529347275494L128.1640625,105.62513530201905L128.465625,109.74329774498196L128.48070312500002,103.00479742469564L128.49578125,105.02096789675852L128.61640625,110.81178809743054L129.27984375,110.30746159576525L129.38539062499999,110.43820421290413L129.430625,101.63002438453853L129.717109375,108.07834774854251L130.53132812500002,103.8169226682892L130.66703125,110.53132605069268L130.6971875,112.56294642528117L130.7575,113.03121342941411L130.84796875,108.33011288315936L130.893203125,111.55267575495752L130.99875,110.69851633220463L131.119375,111.1703071350382L131.164609375,109.42638755880732L131.345546875,104.87560844140575L131.75265625,108.35569794257252L131.81296875,109.95515192099896L131.978828125,110.55053281555448L132.1446875,112.16961648085824L133.17,100.77654018866113L133.38109375,94.49182784087898L133.50171875,100.64937418821326L133.71281249999998,104.61935609194578L133.72789062500001,102.4268784290951L134.119921875,98.16734452332342L134.331015625,96.02177787431125L134.70796875,101.95063244355981L135.145234375,109.6019380193212L135.19046875,109.41238938340967L135.58249999999998,111.96237372400175L135.85390625,104.3771963751666L135.91421875,101.79426010231165L136.291171875,104.4416456855153L136.683203125,101.62485586597225L137.075234375,102.43000109197543L137.30140625,105.43304100372066L137.42203125,104.94376873586428L137.437109375,111.59667745441072L137.768828125,113.49056645776442L137.829140625,108.13436752292506L138.040234375,108.47005666198781L138.64335937500002,110.0123423435359L138.77906249999998,108.41995902320967L138.96,110.99515940045177L139.24648437500002,113.81361786108192L139.29171875,109.30114215750085L139.427421875,105.79831354142814L140.2265625,103.79641220524736L140.392421875,106.15344956737096L140.66382812499998,106.23059171552448L140.814609375,106.9865785149121L140.82968749999998,110.40780947758587L141.10109375,114.2297267147289L141.116171875,112.38991426914158L141.46296875000002,107.33658436754813L141.52328125000003,108.63111248275229L141.74945312499997,112.03606011710387L142.20179687499999,111.65179136771025L142.3375,109.96819128252528L142.382734375,111.91380808082666L142.48828125,113.01997467701383L142.6390625,107.38019420410356L142.684296875,101.61599085668382L142.7596875,101.79558490293455L142.91046875,107.54886775974117L143.27234374999998,106.0161692770641L143.408046875,105.82176124398927L143.69453125,110.1093730498274L143.950859375,112.4808685276619L144.88570312500002,116.64579552189215L145.41343750000001,112.44292663007462L145.669765625,109.90565070157378L145.820546875,108.53559164238517L145.8959375,105.65318071955656L146.061796875,109.50959932223518L146.15226562499998,107.15666570944671L146.2578125,107.46062091738614L146.52921874999998,110.93992260774974L146.604609375,112.51446304921379L146.67999999999998,108.64734204445597L146.95140625,102.20239669554833L147.117265625,102.12200843784005L147.16250000000002,104.68579184349053L147.4640625,108.81065960366587L147.5846875,113.99547926501835L147.73546875,107.59249939683357L147.91640625000002,109.46512064019217L148.263203125,111.32976774315628L148.33859375,107.27831117439064L149.258359375,111.13313190038583L149.2734375,110.28673802299119L149.75593750000002,103.73500808607788L150.404296875,107.16205596254208L150.52492187500002,103.37518709967472L150.64554687499998,103.15801836034059L150.660625,107.26855246732902L151.17328125,103.0614793610533L151.339140625,103.89165113729001L151.520078125,104.63974593242189L151.77640624999998,107.65986322021128L152.68109375,111.64571584535864L153.04296875,113.06814975252716L153.4953125,110.55655797676667L153.55562500000002,110.00125254501228L153.76671875,111.86640500734995L154.023046875,112.79166823190991L154.113515625,105.54231422269743L154.746796875,109.28175417685989L154.988046875,112.63712110445246L155.15390625,116.93808277143836L155.28960937500003,115.07256340954949L155.410234375,111.25907432084921L155.711796875,110.03395846265099L155.74195312499998,107.82401803465211L155.7871875,109.02217608597759L155.81734375,110.34715816636015L155.9078125,111.43552904002688L156.20937500000002,113.97645390403089L156.254609375,114.66509119336459L156.32999999999998,111.0677402683662L156.465703125,112.46556686532986L157.521171875,112.44654094028654L157.822734375,109.72693155562818L157.8378125,108.43100337575936L157.86796875,110.13593175275047L158.0790625,112.49374715256755L158.139375,114.39137604462505L158.27507812500002,116.40552727258799L158.29015625,109.86872216404436L158.365546875,105.48420925134991L158.4409375,111.33945435532858L158.667109375,113.89286710522431L159.13453125,105.55906542996121L159.31546874999998,102.5894140708364L159.421015625,106.89128044824272L159.49640625,107.81911526035982L159.7075,108.10688994682394L159.843203125,108.6727640157491L160.23523437499998,107.64850569432154L160.34078125,106.91372455876983L160.355859375,108.61090761244321L160.49156250000001,107.71292465956243L161.06453125,111.2363494492228L161.18515625,113.91126135882077L161.200234375,116.27942629591242L161.260546875,114.36681689959758L161.743046875,115.32096168994322L162.45171875,107.64892446603277L162.51203124999998,99.71731327472976L162.7834375,100.27539150933981L162.858828125,95.0353979761634L163.13023437500001,98.85450569114644L163.17546875,107.64501332751753L163.49210937499998,107.26022824580855L163.65796874999998,102.53543244735009L164.01984374999998,108.81676563569147L164.12539062500002,110.4520900969661L164.38171875,112.27851925977248L164.41187499999998,112.52449841707883L164.457109375,113.40764064011964L164.77375,112.94004461151563L164.80390625,108.13655438562492L164.87929687500002,106.18331591232462L165.04515625000002,102.08601488098557L165.22609375,102.87265632811966L165.48242187500003,106.06575964772907L165.753828125,108.69088062578246L165.844296875,110.21423750183205L165.995078125,107.45193804907781L166.266484375,101.04332170025546L166.2815625,101.99099114335202L166.68867187499998,107.70507085827029L166.809296875,105.64498898271007L166.960078125,109.60925248543546L167.1259375,106.3403762692146L167.44257812499998,111.51548209707408L167.713984375,114.63205519795977L168.19648437499998,111.65004042683691L168.30203125,111.18556090314999L169.08609375,109.22394965207374L169.11624999999998,111.62447181474519L169.26703125,107.6203514877247L169.37257812500002,106.55730732379517L169.7796875,112.11168099195996L170.09632812499999,113.89689608262194L170.247109375,115.69794364417973L170.488359375,116.06309135746253L170.51851562500002,109.60097599518882L170.6240625,100.32632911057449L171.1065625,103.0245186023717L171.18195312499998,105.27070108748462L171.3478125,101.35951251510596L171.42320312500001,98.00126852811539L172.0715625,103.17371949800332L172.116796875,108.6303721762032L172.41835937500002,111.24638593294672L172.508828125,114.06391642763288L172.52390625,114.93105351469856L172.91593749999998,109.82542481960583L173.021484375,105.26019728694769L173.97140625,103.81626022746994L174.107109375,110.33427957276473L174.21265624999998,103.4940145746542L174.25789062500002,109.04344432246226L174.3634375,111.63629671538791L174.408671875,113.83145430642784L174.740390625,111.80838541536956L174.90625,109.54774644267404L175.07210937500003,113.90434263164904L175.253046875,108.80388182504724L175.268125,113.22112501857245L175.313359375,108.5833834162675L175.67523437499997,113.61292567648425L175.76570312500002,110.191426963724L176.11249999999998,110.99359323037794L176.26328125,107.35817905544306L176.38390625,111.37380769440999L177.303671875,109.10199819280078L177.439375,111.71248309478122L177.57507812499998,105.81501500645255L178.1028125,110.33842427127941L178.525,107.97317167386194L178.570234375,111.17750906327701L179.173359375,111.07415352860721L179.535234375,114.38182028312949L179.68601562499998,112.47416819330174L180.5153125,115.1948033071264L180.71132812500002,119.09217033714437L181.14859374999997,117.3344500211202L181.69140625,115.06160963400143L181.766796875,110.4114212023869L181.781875,112.29979331086382L181.81203125,108.36485710876802L182.023125,105.62542589636591L182.2040625,109.21330690193405L182.55085937500002,114.43144044008355L182.641328125,110.05794205093719L182.8675,115.96352759516869L182.95796875,118.13197475712882L183.10875,112.63789703010103L183.470625,113.63790335283608L183.726953125,116.28159523140728L184.05867187500002,116.44601717686798L184.52609375,114.16403849776866L184.631640625,116.43234993099719L184.79749999999999,115.71326765145093L185.03875000000002,112.52203461097224L185.0990625,114.73389794522512L185.20460937500002,108.9915300862971L185.28,110.00194789020523L185.91328125,113.18656586904L186.45609375,117.0417681513787L186.87828125000001,112.26477328873042L186.9084375,108.16048638243483L186.923515625,108.62881566291827L186.953671875,107.19859596842619L187.044140625,109.92777206775376L187.17984375,110.67340728445603L187.2703125,110.29724821399806L187.345703125,108.54859643627182L187.78296875,108.42996885733068L187.99406249999998,104.36622761407872L188.159921875,106.3056853914997L188.310703125,106.33195227604678L188.37101562499998,106.9809738225332L188.38609375000001,108.29576184052213L188.80828125,105.45585665235025L188.943984375,111.14863545118016L189.06460937499997,112.46052012311924L189.29078124999998,115.3375562924678L189.305859375,115.27116277552324L189.486796875,113.54101535908387L189.95421875,109.8771313520566L190.089921875,113.60635176428305L190.28593750000002,102.35982427152817L190.34625,109.53979677265797L190.42164062499998,109.80815432038423L190.55734375,111.98068780890732L190.67796875000002,110.46108099619059L190.783515625,105.02394909176682L190.79859374999998,105.44179400540526L191.05492187500002,112.17044986542562L191.507265625,115.23040021443887L191.65804687500003,112.26137500497136L192.2159375,108.80405578330306L192.35164062500002,108.2477885923832L192.36671875,114.01326258781009L192.4571875,109.86384537843587L192.69843749999998,114.32120637564213L192.803984375,119.26068180644181L193.226171875,122.0243845457765L193.24124999999998,119.11536418819398L193.376953125,117.6014756044358L193.45234374999998,111.97257376454681L193.61820312499998,113.77134689906279L193.75390625,109.28724016231656L193.965,111.67074676209326L194.130859375,110.99319536532113L194.53796874999998,108.72219212185493L194.583203125,109.38718442372453L194.71890625,112.57309392131643L195.095859375,115.09956940407731L195.156171875,110.85394187487115L195.29187499999998,110.86632013865605L195.50296875,107.87805164914494L195.5934375,106.98963918439247L195.62359375,110.16367926528292L196.13625,113.17537970191195L196.22671875,116.94965325377332L196.31718750000002,118.41086768262038L196.34734375,110.92960850497305L196.362421875,108.03677283120471L196.513203125,107.83877945260221L196.58859375,113.38716306745307L196.7996875,115.62744854316068L196.935390625,117.18819435567568L197.176640625,115.78694014465232L197.55359375,117.95434263962198L197.840078125,114.37579045567028L197.97578125,118.16977717098587L198.2471875,113.80760519968695L198.654296875,116.84295255573956L199.00109375,113.23430679499371L199.03125,118.01863741527245L199.046328125,116.09725111024134L199.8153125,116.20968215717741L199.9359375,118.38100023821906L199.981171875,114.89047486225408L200.116875,116.10570544188722L200.68984375,113.48876323885958L201.15726562499998,111.23442369370566L201.458828125,115.02240110108721L201.669921875,118.8140419200478L201.74531249999998,121.99140614179126L202.212734375,121.6258060230101L202.33335937500001,122.01696506802014L202.363515625,120.15925632448227L202.876171875,117.54769622626236L202.92140625000002,118.21521460856397L203.1325,115.74623040966276L203.177734375,119.57842811618684L203.34359375,120.92741805440878L203.43406249999998,114.13399571769017L203.85625,114.80369248760631L203.90148437500002,117.08879023378854L203.9165625,117.5815973198357L204.00703125,115.81640128857022L204.0371875,113.96098653148692L204.293515625,118.06234224730163L204.414140625,113.76161101915217L204.54984375,115.80052217137046L204.77601562499999,116.92785833361452L205.017265625,117.86470010137586L205.6053125,117.6308750273181L205.78625,111.21384311852898L205.81640625,112.56546821204805L205.9671875,112.00746945793375L206.133046875,107.53625731867892L206.23859374999998,106.74848493887575L206.34414062500002,111.43115963536593L206.374296875,109.79883099854717L206.63062499999998,115.46932060700252L206.917109375,118.76797758748029L207.459921875,121.61648143360236L207.610703125,118.17946177974528L207.86703125,120.46352401759307L207.9575,115.31647940262306L208.093203125,113.26730742298861L208.545546875,111.61366200607002L208.89234375,115.13227504677164L208.90742187499998,117.08616261317317L209.178828125,119.08811277427478L209.60101562499997,114.78177099778827L209.67640624999999,112.5819484267191L209.872421875,116.86213381201269L210.08351562500002,113.61311329104056L210.20414062499998,117.45554127970182L210.27953125,120.93601511277221L210.3096875,117.19585281994449L210.324765625,118.88356050647204L210.62632812500001,121.57894171498268L210.70171875,117.17941919763676L210.9128125,120.81927258663686L211.06359375,115.93666128788813L211.138984375,119.18799705863587L211.24453125,118.35451967601924L211.531015625,118.53551245017786L211.71195312499998,111.8832775904119L212.2396875,115.26802026417693L212.375390625,114.00247257163821L213.099140625,117.88610264419901L213.17453124999997,120.03379642371561L213.40070312499998,115.58013245160416L213.5665625,112.92499774879144L213.62687499999998,112.5221374558517L213.86812500000002,116.26551606135439L214.064140625,116.91937557314239L214.365703125,120.37164680763911L214.50140625,115.80664889442818L214.62203125000002,117.3883889399688L214.92359374999998,114.64912353807979L215.16484375000002,117.59519881799581L215.46640625,120.36828283457689L215.51164062499998,121.07649956803107L215.752890625,121.98756099924233L215.994140625,122.31439051930107L216.16,117.19025816758682L217.06468750000002,119.04724732902585L217.20039062499998,115.32895325937625L217.21546875,116.63445009647407L217.66781250000003,119.76245343906808L217.95429687499998,118.26271624408011L217.99953125,113.90182055239828L218.33124999999998,111.52613157469004L218.9946875,115.44879282891098L219.311328125,117.6641378643576L219.401796875,118.72059628260571L219.431953125,117.41655713366028L219.74859375,116.30083342048616L220.0803125,109.59870117957682L220.517578125,105.75322318856033L221.211171875,105.20314172634697L221.452421875,110.26914824333693L221.633359375,109.72054461494199L222.52296875,112.26271930884822L222.76421875000003,106.24607080317998L223.231640625,104.20082874948508L223.352265625,105.45778653289214L223.66890625,107.84835742661556L224.045859375,108.00548235467159L224.12125,101.76456485419807L224.317265625,101.22985707025767L224.51328125,98.01013581025103L224.60375000000002,104.14712251819856L225.23703125,107.78870433490741L225.252109375,102.16084481455023L225.3275,103.05345956710507L225.553671875,107.62134609754774L226.428203125,112.92527494649842L226.68453125,114.76800283532387L227.091640625,109.75671886448067L227.10671875,117.2877098702049L227.22734375,118.61694241359362L227.40828125000002,117.71444172539745L227.453515625,116.73329218715148L227.58921875000001,111.30125848045031L227.815390625,115.82552632574132L227.875703125,110.24016791346195L227.905859375,111.60368527089258L228.13203124999998,116.77963894120798L228.4034375,116.19704745568934L228.67484374999998,115.88503822605298L228.90101562499999,116.87097893718268L229.051796875,119.48161040881244L229.09703125000001,118.56920186635051L229.27796874999999,113.40517991513912L229.293046875,112.76996380352674L229.353359375,112.22934655719219L229.775546875,110.66850792616475L230.167578125,114.44462390051609L230.66515625,112.47207750686955L230.891328125,108.11903892861427L231.43414062500003,107.08772941242194L231.50953124999998,110.40053015267236L232.23328125,108.47170309298993L232.29359375,113.06845108634518L232.59515625,115.64790956638217L233.31890625,112.50917909859358L233.33398437500003,116.64288814894381L233.726015625,118.32598041455722L233.77124999999998,114.64898504406116L234.40453125000002,121.29338327039534L234.64578125,121.99781618250182L235.17351562500002,117.60231607817087L235.3996875,121.67937619832796L235.5203125,122.13923504516472L235.595703125,123.60070185414602L235.61078124999997,121.84870063722185L236.108359375,122.219873404926L236.3646875,118.12176672625131L236.409921875,122.59489206742361L236.45515625000002,119.97815004025598L236.651171875,120.49883694195381L237.05828125,120.50685337448422L237.3296875,121.67981187419645L237.435234375,124.09634247215084L237.54078125,118.03444950210448L237.8725,111.80441069579247L238.189140625,116.47639568998216L238.38515625,112.68776728652819L238.91289062500002,113.69900491442026L239.25968749999998,118.91240329513025L239.304921875,117.7164362705192L239.50093750000002,115.1075473394871L239.56125,116.40996958554288L239.65171875000001,118.02695103494841L240.300078125,116.70897044410418L240.31515625,115.25824202878746L240.601640625,119.29722948688942L240.64687500000002,121.18628987995864L240.76749999999998,119.91482698382784L240.782578125,115.41009173795192L240.79765625000002,120.13986466020765L240.888125,116.27331310117495L241.18968750000002,119.58345867030063L241.21984375,116.41872587407597L241.49125,114.8871455158636L242.24515625,114.52733193712689L242.45624999999998,116.62339561423235L242.54671875000003,115.52426648319202L243.059375,119.00209356438349L243.677578125,120.03695084386865L244.099765625,116.166537310771L244.50687499999998,119.49782610308267L244.582265625,122.35268365713793L244.672734375,123.31065189113949L245.01953125,121.1384532125133L245.396484375,117.44161860987136L245.577421875,115.88906365736887L245.5925,115.62488898930998L245.68296875000001,118.81599830833034L245.818671875,121.96237306035172L246.075,116.89610620140965L246.2559375,115.84509889784229L246.34640625,119.43689621568447L246.64796875000002,116.727967126995L246.70828125,115.65689376768282L247.07015625,119.722287322098L247.10031249999997,121.8962500660391L247.236015625,119.8529744782591L247.989921875,119.0409520991862L248.351796875,118.38387562210308L248.366875,116.50094517789283L248.69859375,118.92333800148293L249.22632812499998,118.13100971357288L249.24140625,120.08345026084973L249.60328124999998,123.20653909001393L249.6334375,121.98364375455148L249.648515625,121.85620446558295L250.100859375,123.65758309335465L250.4778125,124.22074836661491L250.52304687499998,121.37598957978045L250.553203125,121.9142318535867L250.77937500000002,116.59889414164L250.86984375,120.63259283222861L251.17140625,121.84921774731566L251.3221875,123.51732679281434L251.337265625,124.67502200438857L251.457890625,120.01267823341712L251.518203125,121.00199003936223L251.608671875,124.65076027850785L251.849921875,125.24537981473287L252.49828125,122.45311747593007L252.67921875000002,122.61340083348551L252.845078125,122.997778650009L252.995859375,123.2274407961409L253.01093749999998,123.87409455044214L253.07125,119.29190266206778L253.1315625,117.14393950462292L253.191875,119.84676176226108L253.448203125,122.1372390371954L253.538671875,118.58593948682147L253.59898437500001,121.74967174430842L253.629140625,123.55767325825616L254.00609375,119.4834819052318L254.292578125,120.99014252665151L254.398125,119.40286010211524L254.41320312500002,120.64167973532084L254.654453125,116.44565012547312L254.69968749999998,114.98750155907106L255.1821875,114.05801500140583L255.197265625,114.94895918396517L255.21234375,118.50766325855199L255.57421875,116.02237915661115L255.7853125,115.57287623251187L256.313046875,114.1102497819151" style="fill: none;" fill="none"></path></g></g></g></g><g opacity="0.20000000298023224"><g><g><g><path stroke="rgb(255, 112, 67)" stroke-width="2.6666667461395264px" d="M35.689921875,-90.39023952195424L36.504140625000005,0.02377600423059789L36.51921875,-84.16540783233944L38.645234375,-17.296184262819594L38.886484375,17.61741232024505L38.99203125,-65.03784217042855L39.83640625,-17.753865587152546L39.911796875,23.004601331334555L39.941953125,20.547982513811434L40.122890625000004,19.583133999397973L40.273671875,23.850909004826093L40.92203125,11.560514592705289L41.04265625,-1.808234468195593L41.5553125,-25.62766966745258L41.691015625,52.464199672243566L41.75132812499999,-0.12143553220667513L41.781484375,-3.47808764185757L41.992578125,62.025498272990816L42.022734375,28.902693814737717L42.12828125,21.407168436702335L42.248906250000005,27.81124892891384L42.339375,40.351007057027886L42.761562500000004,54.39008092347068L43.862265625000006,22.49055779203772L44.35984375,18.3600447863806L44.405078125,1.585568476142356L44.661406250000006,45.29704978005029L44.797109375000005,72.97484559719449L44.81218749999999,48.317171504162246L44.90265625,54.394817522401L44.917734375,15.874966627592215L44.993125,34.89322616034187L45.26453125,15.733623865665862L45.309765625000004,35.13991353232413L45.44546875,20.058277805941174L46.184296875,65.18337221830153L46.22953125,21.65434603011235L46.32,20.575925135193387L46.41046875000001,22.37959550940431L46.485859375,62.55441407046747L46.636640625,64.0226868681144L46.727109375,29.81193532017059L46.8025,52.97244004977402L47.5865625,39.73792554009705L47.661953125,59.099028715421454L47.67703125,47.10600659614428L47.9484375,46.32226177621632L48.144453125000005,31.69457109193317L48.34046875,60.23929038099014L48.9134375,63.447862496390016L49.169765625000004,34.75927646751515L49.471328125,48.771964496839786L49.66734375,65.26621301497799L49.9990625,71.37372279262634L50.044296875,32.300511275092134L50.255390625000004,81.91035667157264L50.315703125,69.0111668677069L51.039453125,70.15181276088113L51.144999999999996,36.519317134656006L51.47671875,67.88563834342638L51.657656249999995,63.52111747676973L51.8084375,33.65500632920302L52.26078125,61.2030988310231L52.426640625,47.82934818663634L52.547265625,75.21560799577271L52.637734375,22.86710084546357L53.120234374999995,66.1496648985427L53.180546875000005,89.49603642001748L53.5575,79.664446948003L53.79875,72.88031235700471L53.813828125,48.07138507966883L54.04,81.43474914205724L54.1003125,66.4093033906771L54.356640625,66.41756428419613L54.884375,47.92514010346494L55.004999999999995,53.726738460967326L55.3065625,69.87216793480327L55.517656249999995,85.46756234208586L55.653359375,79.13555102436801L55.743828125,53.85038687919733L55.81921875,68.4869147984078L55.924765625,50.890535892243506L56.06046875,68.6592143810354L56.2715625,71.88559345856773L56.30171875,78.89791949957142L56.346953125,48.33442199872806L56.48265625,65.04506352953614L57.010390625,64.83061152873562L57.372265625,52.414919169526556L57.68890625,59.63117069986184L57.9603125,71.09988775292875L58.096015625,83.15384969536679L58.29203125,76.29156453432513L58.337265625,42.67823391607962L58.457890625,50.19581263375004L59.061015625,83.08352279432582L59.31734375,81.48836876687126L59.468125,66.41412610958797L59.513359375,81.09018972448537L59.814921874999996,95.22730125186499L60.056171875,53.39305665940047L60.327578124999995,73.37797985076902L60.508515625,63.813534558424735L60.76484375,67.60912033510392L60.8553125,82.17145920337641L61.2171875,86.89969787097068L61.413203124999995,88.25849229949524L61.4584375,87.50878474572671L61.473515625000005,71.20396043711806L61.594140625,93.87845699340104L61.654453124999996,51.472640714631424L61.760000000000005,79.78681681575252L62.498828125,80.20263058030976L62.559140625000005,75.71702502099795L62.6646875,46.09192395131103L62.800390625,90.09822044710162L63.132109375,57.9817412108183L63.192421875,60.43178178675008L63.313046875,54.76334479302169L63.433671875,54.3711875246605L63.493984375000004,61.78902605562472L63.795546875,95.97391511094756L63.870937500000004,71.00039930155033L63.886015625,92.98955305260606L63.961406249999996,77.98086094975004L64.14234375,77.79753138499798L64.187578125,77.45370067495385L64.26296875,102.05165387378074L64.549453125,80.36166768593246L64.79070312500001,86.70415914282201L64.941484375,59.91926190864761L65.122421875,92.03746354454196L65.514453125,62.82092228720431L65.65015625,50.22052906816826L66.177890625,51.76929092456122L66.19296874999999,85.8253974858904L66.223125,57.483947849390105L66.8865625,58.20149290272967L67.0071875,91.79192223076242L67.14289062499999,87.69445279918143L67.173046875,77.55015505317131L67.24843750000001,89.42896882900968L67.62539062500001,51.804904848826126L67.64046875,83.75929303248411L67.79124999999999,78.57127303795421L67.82140625,95.39153205477632L67.89679687499999,110.83593163769692L68.10789062500001,99.24921033743303L68.198359375,96.6881147342734L68.3340625,98.28662081635557L68.56023437500001,100.24975227147806L68.650703125,90.75428245894145L69.359375,76.81959263354072L69.44984375,67.7184198396513L69.70617187500001,72.84577824480364L69.796640625,86.14537296132183L70.53546875,64.38958448371851L70.641015625,92.10308034510817L70.71640624999999,91.10328036781866L70.91242187499999,97.11231526001356L71.47031249999999,98.30463976613245L71.68140625000001,91.05989577146246L72.209140625,83.900960400491L73.460625,82.55768081769345L73.596328125,93.50682940348051L73.73203125,73.00959169704L73.8225,89.18735591126605L74.18437499999999,96.97357597134541L74.893046875,58.19831971267705L75.013671875,80.36994845329316L75.55648437500001,89.01160490480251L75.797734375,99.72189641222357L75.84296875,104.61478985801804L75.96359375,109.85167962920386L76.008828125,76.47489409907719L76.370703125,97.85510009226854L76.431015625,98.00942709741648L76.883359375,100.1163457969902L77.45632812500001,98.59734170618466L77.72773437500001,98.36917675463482L77.818203125,75.19242847177664L78.05945312499999,97.21377784633077L78.330859375,91.79139888626523L78.3459375,81.20841920855453L78.85859375,102.4514691957971L79.00937499999999,103.27942668881732L79.05460937500001,87.77939359846057L79.0696875,76.25372473979367L79.09984375,99.23319864566437L79.114921875,95.67211095141246L79.491875,114.62157718123635L79.989453125,105.69905697469366L80.592578125,83.40581688461823L81.06,96.3004224556731L81.467109375,104.21400734237395L81.5425,86.67871400087604L81.87421875000001,103.92676408416591L82.160703125,89.3980318821501L82.386875,91.66340472132433L82.62812500000001,95.59162189266644L83.065390625,76.81978474734349L83.110625,100.62165809518191L83.487578125,84.51681100602725L83.87960937499999,92.4323700276669L84.1359375,84.83874736716969L84.4375,87.89305872356051L84.70890625,107.24658665290335L84.7390625,84.1543452571146L84.76921875000001,89.81260021929629L84.85968749999999,100.58835616116411L85.281875,106.05298359630396L85.49296875,90.9933846480213L86.33734375,106.66078198365867L86.39765625000001,83.89068562434984L86.563515625,70.0279457303928L87.0309375,102.30596617634873L87.1515625,99.26589111520443L87.34757812500001,100.2811794397654L87.42296875000001,88.02444469081236L87.66421875,110.60626289879437L87.739609375,89.93150541398208L87.769765625,80.16220056174787L87.920546875,97.47450939975678L87.980859375,99.2098468817072L88.418125,74.18194961689876L88.59906249999999,98.07366597829386L89.38312499999999,102.86026086963247L89.54898437499999,67.71745927063746L89.8053125,88.29984976400154L90.22749999999999,98.63663229115772L90.61953125000001,106.35413523137103L90.80046875,97.52740031704306L90.966328125,91.35573115388397L91.0115625,91.81687715128064L91.87101562500001,104.62968861465342L91.94640625000001,102.15236125411465L91.961484375,109.72796496483497L92.112265625,105.86896838401444L93.21296875,108.67319725380511L93.378828125,103.80942229835782L93.39390625,81.83977141059002L93.42406249999999,114.32063090919982L93.49945312499999,114.37605574129847L93.51453125,88.71179475404786L93.891484375,110.44479455987457L93.966875,78.27560327087993L94.01210937500001,92.99313034410588L94.132734375,86.76232987737747L94.434296875,103.86581101177725L94.47953125,66.57352094436065L94.49460937500001,89.00608660143334L94.72078124999999,103.31097972476854L95.0525,94.34237207940313L95.248515625,85.94726388298439L95.278671875,96.3447874948848L95.4746875,115.66017752207117L96.032578125,99.7286005214788L96.394453125,108.38139957354869L96.5,72.47458787939975L96.59046875,100.67432377559598L96.95234375,84.66115471804513L96.99757812499999,93.23282874843571L97.88718750000001,91.53469509808346L98.14351562499999,103.4633259703638L98.15859375000001,107.30444934291299L98.46015625,109.04860418594907L98.505390625,110.00979591349605L98.64109375000001,101.64206724627874L99.18390625,116.03907893804134L99.229140625,93.31770992618985L99.470390625,108.69105058823479L99.9378125,101.77693113582208L100.36,101.29778606249019L100.480625,93.5722209671745L100.54093750000001,98.11204899116419L100.6615625,104.60254094693809L100.827421875,112.13214665112318L101.219453125,110.18451348019298L101.29484375,100.64359881638083L101.53609375,102.85205297302454L101.77734375,99.10228302599862L101.89796875,107.83584605829091L102.03367187500001,101.50273836697451L102.169375,106.50116191201377L102.335234375,99.2751125777373L102.3503125,102.73106764957774L102.53125,105.54585284159984L102.56140625,91.45922749666497L103.134375,100.92846383820287L103.31531249999999,112.4944302231539L103.601796875,104.36017282321117L103.94859375,112.50383055026177L104.25015625,95.06230199374258L104.97390625,117.82109344945056L105.109609375,107.70059131652815L105.15484375,100.02473401152528L105.185,106.51026413149665L105.953984375,118.72647611729334L105.99921875,111.90499526549829L106.30078125,103.90710885475855L106.3309375,109.6538454723428L106.34601562499999,111.72241096980869L106.45156250000001,115.5451642880449L106.72296874999999,98.45344184329733L107.14515625,111.4794168200693L107.44671875,88.29209896575192L107.56734374999999,93.57346639458555L108.034765625,94.78557862238958L108.29109375,108.78103934329701L108.5625,88.47294430029577L108.683125,99.2283163052285L109.150546875,109.55162768004229L109.55765625000001,94.11708221028093L109.904453125,106.59903726991033L110.34171875,79.49325367589479L110.50757812500001,84.1737487511942L110.748828125,109.79325715932063L110.95992187499999,88.54439738569779L111.2765625,77.22450228363739L111.8796875,103.39545680107548L112.21140625,67.32396383027078L112.286796875,65.76628524358385L112.8446875,106.61832483324687L113.01054687499999,67.48529967691282L113.101015625,98.9301689325599L113.31210937499999,93.41143496348522L113.342265625,105.83047606501495L113.824765625,109.14081218666396L114.186640625,98.41333643081597L114.367578125,108.66435339426388L114.397734375,94.81780074434354L114.488203125,101.55276082644704L114.669140625,117.662523379107L115.04609375,97.70300558200105L115.46828125,114.48669341785134L115.49843750000001,89.00388722962234L115.55874999999999,114.38336269041756L115.784921875,105.7444952013553L116.403125,107.82434904088731L116.44835937500001,110.84634884303668L117.2475,94.06968309790827L117.292734375,95.12256610628683L117.443515625,112.08217387625481L117.714921875,110.52754592426353L117.72999999999999,106.15179964937269L117.986328125,86.46787903925868L118.03156249999999,110.14743220395175L118.54421875,120.73908350124256L118.574375,97.78502492655534L118.67992187499999,111.01704526910325L119.08703125,111.82331708855926L119.222734375,105.29415726151782L119.539375,103.65738740961532L119.90125,108.997246866778L119.97664062499999,105.77656495718983L120.067109375,108.76858838149346L120.47421875,113.46607890372397L120.77578125000001,93.96278832820244L120.85117187499999,112.24810058032162L121.07734375,114.05897522213635L121.152734375,95.22951387290377L121.80109374999999,108.21485678039025L121.86140625,114.89946648463373L122.17804687499999,111.69832718601683L122.208203125,118.03926185864256L122.449453125,105.82296706517226L122.479609375,115.17785925868665L122.57007812500001,113.83210869490867L122.60023437500001,95.23409148110076L122.87164062500001,106.6633423969266L123.21843750000001,92.9009157187771L123.354140625,119.11464205578667L123.640625,113.24086852996842L123.806484375,99.45634876450058L123.836640625,100.9742597940145L123.927109375,100.01434661694802L124.123125,108.47308754207333L124.39453125,106.29191354542272L124.982578125,109.65447481066221L125.329375,89.9100615388248L125.38968750000001,91.48992595742456L125.404765625,109.98391354703344L125.5103125,97.11116257719695L125.76664062500001,110.46704001331236L125.9325,110.52415743425954L126.09835937499999,101.8344327843748L126.20390625,97.37745218167547L126.294375,107.86972433371702L126.65625,110.28216691352426L127.545859375,103.03805225717369L128.088671875,102.76735728445928L128.10375,97.11457425334956L128.1640625,111.98489804591517L128.465625,115.92054140942636L128.48070312500002,92.89704694426618L128.49578125,108.0452236048528L128.61640625,119.49801839843857L129.27984375,109.55097184326732L129.38539062499999,110.63431813861243L129.430625,88.41775464199016L129.717109375,117.75083279454847L130.53132812500002,97.42478504790924L130.66703125,120.6029311242979L130.6971875,115.6103769871639L130.7575,113.73361393561353L130.84796875,101.27846206377725L130.893203125,116.38652006265474L130.99875,109.41727719807531L131.119375,111.87799333928851L131.164609375,106.810508194461L131.345546875,98.04943976530339L131.75265625,113.57583219432271L131.81296875,112.3543328886386L131.978828125,111.44360415738774L132.1446875,114.59824197881389L133.17,83.68692575036546L133.38109375,85.06475931920575L133.50171875,109.88569370921468L133.71281249999998,110.57432894754456L133.72789062500001,99.13816193481907L134.119921875,91.77804366466589L134.331015625,92.80342790079303L134.70796875,110.84391429743263L135.145234375,121.07889638296328L135.19046875,109.12806642954237L135.58249999999998,115.78735023488989L135.85390625,92.9994303519139L135.91421875,97.91985569302923L136.291171875,108.41272406032076L136.683203125,97.3996711366577L137.075234375,103.63771893098018L137.30140625,109.9376008713385L137.42203125,104.2098603340797L137.437109375,121.5760405322304L137.768828125,116.33139996279496L137.829140625,100.100069120666L138.040234375,108.97359037058195L138.64335937500002,112.32577086585806L138.77906249999998,106.0313840427203L138.96,114.85795996631495L139.24648437500002,118.04130555202718L139.29171875,102.53242860212922L139.427421875,100.54407061731908L140.2265625,100.7935602009762L140.392421875,109.68900561055634L140.66382812499998,106.34630493775475L140.814609375,108.12055871399352L140.82968749999998,115.53965592159656L141.10109375,119.96260257044341L141.116171875,109.63019560076063L141.46296875000002,99.75658951515797L141.52328125000003,110.57290465555852L141.74945312499997,117.14348156863124L142.20179687499999,111.07538824361981L142.3375,107.44279115474782L142.382734375,114.83223327827872L142.48828125,114.67922457129461L142.6390625,98.92052349473815L142.684296875,92.96968583555426L142.7596875,102.06497597231063L142.91046875,116.17879204495111L143.27234374999998,103.71712155304849L143.408046875,105.530149194377L143.69453125,116.54079075858462L143.950859375,116.03811174441361L144.88570312500002,122.89318601323757L145.41343750000001,106.13862329234834L145.669765625,106.09973680882248L145.820546875,106.48050305360229L145.8959375,101.32956433531362L146.061796875,115.29422722625313L146.15226562499998,103.62726529026403L146.2578125,107.91655372929526L146.52921874999998,116.15887514329515L146.604609375,114.87627371140988L146.67999999999998,102.84666053731925L146.95140625,92.53497867218684L147.117265625,102.00142605127766L147.16250000000002,108.53146695196628L147.4640625,114.99796124392887L147.5846875,121.77270875704707L147.73546875,97.98802959455642L147.91640625000002,112.27405250523006L148.263203125,114.12673839760245L148.33859375,101.20112632124219L149.258359375,116.91536298937862L149.2734375,109.01714720689924L149.75593750000002,93.90741318070795L150.404296875,112.30262777723837L150.52492187500002,97.69488380537368L150.64554687499998,102.83226525133941L150.660625,113.43435362781165L151.17328125,96.75086970163974L151.339140625,105.13690880164503L151.520078125,105.76188812511973L151.77640624999998,112.19003915189532L152.68109375,117.62449478307971L153.04296875,115.20180061327991L153.4953125,106.78917031312594L153.55562500000002,109.16829439738066L153.76671875,114.66413370085647L154.023046875,114.17956306874984L154.113515625,94.6682832088787L154.746796875,114.8909141081036L154.988046875,117.67017149584134L155.15390625,123.38952527191722L155.28960937500003,112.27428436671616L155.410234375,105.5388406877988L155.711796875,108.19628467535367L155.74195312499998,104.50910739265382L155.7871875,110.81941316296579L155.81734375,112.33463128693401L155.9078125,113.06808535052696L156.20937500000002,117.78784120003692L156.254609375,115.69804712736513L156.32999999999998,105.67171388086862L156.465703125,114.56230676077539L157.521171875,112.41800205272156L157.822734375,105.64751747864065L157.8378125,106.48711110595613L157.86796875,112.69332431823713L158.0790625,116.03047025229316L158.139375,117.23781938271131L158.27507812500002,119.42675411453237L158.29015625,100.06351450122892L158.365546875,98.90743988230824L158.4409375,120.12232201129663L158.667109375,117.7229862300679L159.13453125,93.05836291706655L159.31546874999998,98.13493703214917L159.421015625,113.34408001435222L159.49640625,109.2108674785355L159.7075,108.5385519765201L159.843203125,109.52157511913683L160.23523437499998,106.1121182121802L160.34078125,105.81155285544227L160.355859375,111.1566821929533L160.49156250000001,106.36595023024128L161.06453125,116.52148663371335L161.18515625,117.92362922321772L161.200234375,119.83167370154987L161.260546875,111.49790280512534L161.743046875,116.75217887546168L162.45171875,96.14086863016709L162.51203124999998,87.81989648777524L162.7834375,101.1125088612549L162.858828125,87.17540767639873L163.13023437500001,104.583167263621L163.17546875,120.83077478207414L163.49210937499998,106.68305062324507L163.65796874999998,95.44823874966241L164.01984374999998,118.23876541820354L164.12539062500002,112.90507678887806L164.38171875,115.01816300398204L164.41187499999998,112.89346715303836L164.457109375,114.73235397468088L164.77375,112.23865056860959L164.80390625,100.93131904678884L164.87929687500002,103.25345820237416L165.04515625000002,95.94006333397701L165.22609375,104.0526184988208L165.48242187500003,110.85541462714318L165.753828125,112.62856209286255L165.844296875,112.49927281590644L165.995078125,103.30848886994644L166.266484375,91.43039717702194L166.2815625,103.41249530799686L166.68867187499998,116.27619043064769L166.809296875,102.55486616936977L166.960078125,115.55564773952355L167.1259375,101.43706194488331L167.44257812499998,119.27814083886332L167.713984375,119.30691484928829L168.19648437499998,107.17701827015262L168.30203125,110.48884161761961L169.08609375,106.28153277545934L169.11624999999998,115.22525505875237L169.26703125,101.61417099719401L169.37257812500002,104.96274107790086L169.7796875,120.44324149420717L170.09632812499999,116.57471871861489L170.247109375,118.39951498651644L170.488359375,116.61081292738672L170.51851562500002,99.90780295177828L170.6240625,86.41435878365299L171.1065625,107.07180284006753L171.18195312499998,108.63997481515398L171.3478125,95.49272965653799L171.42320312500001,92.96390254762954L172.0715625,110.93239595283521L172.116796875,116.815351193503L172.41835937500002,115.17040656806202L172.508828125,118.29021216966211L172.52390625,116.2317591452971L172.91593749999998,102.16698177696671L173.021484375,98.41235598796047L173.97140625,101.65035463825333L174.107109375,120.1113085907069L174.21265624999998,93.23361707748845L174.25789062500002,117.36758894417434L174.3634375,115.52557530477642L174.408671875,117.12419069298775L174.740390625,108.77378207878209L174.90625,106.15678798363078L175.07210937500003,120.43923691511154L175.253046875,101.15319061514455L175.268125,119.84698980886023L175.313359375,101.62677101281005L175.67523437499997,121.15723906680941L175.76570312500002,105.0591788945836L176.11249999999998,112.19684263035887L176.26328125,101.90505779304075L176.38390625,117.39725065286038L177.303671875,105.69428394038695L177.439375,115.62821044775191L177.57507812499998,96.96881287395954L178.1028125,117.12353816851973L178.525,104.42529277773573L178.570234375,115.98401514739962L179.173359375,110.91912022660253L179.535234375,119.34332041491288L179.68601562499998,109.6126900585601L180.5153125,119.27575597786344L180.71132812500002,124.9382208821713L181.14859374999997,114.69786954708397L181.69140625,111.65234905332326L181.766796875,103.43613855496514L181.781875,115.13235147357918L181.81203125,102.46245280562434L182.023125,101.51627907776273L182.2040625,114.59512841028626L182.55085937500002,122.2586407473078L182.641328125,103.49769446721766L182.8675,124.82190591151593L182.95796875,121.38464550006901L183.10875,104.39678043955936L183.470625,115.13791283693863L183.726953125,120.24713304926408L184.05867187500002,116.69265009505907L184.52609375,110.74107047911966L184.631640625,119.83481708084L184.79749999999999,114.63464423213154L185.03875000000002,107.73518505025422L185.0990625,118.05169294660445L185.20460937500002,100.37797829790506L185.28,111.51757459606742L185.91328125,117.96349283729214L186.45609375,122.82457157488679L186.87828125000001,105.099280994758L186.9084375,102.00405602299142L186.923515625,109.33130958364345L186.953671875,105.05326642668805L187.044140625,114.02153621674515L187.17984375,111.79186010950943L187.2703125,109.73300960831111L187.345703125,105.92561876968247L187.78296875,108.25202748891897L187.99406249999998,98.2706157492008L188.159921875,109.21487205763114L188.310703125,106.3713526028674L188.37101562499998,107.95450614226283L188.38609375000001,110.26794386750552L188.80828125,101.19599887009244L188.943984375,119.68780364942504L189.06460937499997,114.42834713102783L189.29078124999998,119.65311054649064L189.305859375,115.17157250010641L189.486796875,110.94579423442482L189.95421875,104.38130534151568L190.089921875,119.20018238262273L190.28593750000002,85.49003303239586L190.34625,120.30975552435265L190.42164062499998,110.21069064197363L190.55734375,115.23948804169194L190.67796875000002,108.1816707771155L190.783515625,96.86825123513117L190.79859374999998,106.06856137586291L191.05492187500002,122.26343365545617L191.507265625,119.82032573795877L191.65804687500003,107.80783719077007L192.2159375,103.6180769508006L192.35164062500002,107.41338780600344L192.36671875,122.6614735809504L192.4571875,103.63971956437453L192.69843749999998,121.00724787145154L192.803984375,126.66989495264133L193.226171875,126.16993865477852L193.24124999999998,114.75183365182019L193.376953125,115.33064272879855L193.45234374999998,103.52922100471332L193.61820312499998,116.46950660083675L193.75390625,102.56108005719724L193.965,115.24600666175829L194.130859375,109.97686827016295L194.53796874999998,105.31568725665565L194.583203125,110.38467287652892L194.71890625,117.35195816770428L195.095859375,118.88928262821864L195.156171875,104.48550058106193L195.29187499999998,110.88488753433339L195.50296875,103.39564891487825L195.5934375,105.6570204872638L195.62359375,114.9247393866186L196.13625,117.6929303568555L196.22671875,122.61106358156539L196.31718750000002,120.60268932589096L196.34734375,99.70771973850205L196.362421875,103.69751932055223L196.513203125,107.54178938469849L196.58859375,121.70973848972935L196.7996875,118.9878767567221L196.935390625,119.52931307444814L197.176640625,113.68505882811732L197.55359375,121.20544638207647L197.840078125,109.00796217974275L197.97578125,123.86075724395923L198.2471875,107.26434724273858L198.654296875,121.39597358981845L199.00109375,107.82133815387496L199.03125,125.19513334569055L199.046328125,113.21517165269469L199.8153125,116.37832872758153L199.9359375,121.6379773597815L199.981171875,109.65468679830664L200.116875,117.92855131133692L200.68984375,109.5633499343181L201.15726562499998,107.85291437597479L201.458828125,120.70436721215955L201.669921875,124.5015031484887L201.74531249999998,126.75745247440645L202.212734375,121.07740584483835L202.33335937500001,122.6037036355352L202.363515625,117.37269320917548L202.876171875,113.63035607893252L202.92140625000002,119.21649218201637L203.1325,112.04275411131093L203.177734375,125.32672467597294L203.34359375,122.95090296174166L203.43406249999998,103.94386221261229L203.85625,115.80823764248052L203.90148437500002,120.51643685306189L203.9165625,118.32080794890643L204.00703125,113.16860724167199L204.0371875,111.17786439586197L204.293515625,124.21437582102371L204.414140625,107.31051417692797L204.54984375,118.85888889969792L204.77601562499999,118.6188625769806L205.017265625,119.2699627530179L205.6053125,117.28013741623144L205.78625,101.58829525534529L205.81640625,114.59290585232665L205.9671875,111.17047132676234L206.133046875,100.82943910979665L206.23859374999998,105.56682636917103L206.34414062500002,118.45517168010119L206.374296875,107.35033804331906L206.63062499999998,123.97505501968553L206.917109375,123.71596305819693L207.459921875,125.88923720278544L207.610703125,113.02393229895969L207.86703125,123.88961737436475L207.9575,107.59591248016804L208.093203125,110.19354945353697L208.545546875,109.13319388069212L208.89234375,120.41019460782408L208.90742187499998,120.01699396277544L209.178828125,122.09103801592718L209.60101562499997,108.32225833305856L209.67640624999999,109.28221457011531L209.872421875,123.28241188995307L210.08351562500002,108.73958250958239L210.20414062499998,123.21918326269369L210.27953125,126.15672586237778L210.3096875,111.58560938070295L210.324765625,121.41512203626334L210.62632812500001,125.62201352774863L210.70171875,110.58013542161788L210.9128125,126.27905267013702L211.06359375,108.61274433976504L211.138984375,124.06500071475747L211.24453125,117.10430360209429L211.531015625,118.80700161141576L211.71195312499998,101.90492530076298L212.2396875,120.34513427482452L212.375390625,112.10415103283012L213.099140625,123.71154775304021L213.17453124999997,123.25533709299052L213.40070312499998,108.89963649343699L213.5665625,108.94229569457238L213.62687499999998,111.9178470164421L213.86812500000002,121.88058396960841L214.064140625,117.90016484082443L214.365703125,125.55005365938413L214.50140625,108.95915202461183L214.62203125000002,119.76099900827975L214.92359374999998,110.54022543524624L215.16484375000002,122.01431173786986L215.46640625,124.5279088594485L215.51164062499998,122.13882466821232L215.752890625,123.35415314605925L215.994140625,122.80463479938916L216.16,109.50405964001547L217.06468750000002,121.83273107118438L217.20039062499998,109.75151215490186L217.21546875,118.59269535212078L217.66781250000003,124.45445845295907L217.95429687499998,116.01311045159818L217.99953125,107.3604770148755L218.33124999999998,107.96259810812771L218.9946875,121.33278471024241L219.311328125,120.98715541752753L219.401796875,120.30528390997787L219.431953125,115.46049841024214L219.74859375,114.62724785072496L220.0803125,99.54550281821284L220.517578125,99.98500620203558L221.211171875,104.37801953302696L221.452421875,117.86815801882184L221.633359375,108.89763917234959L222.52296875,116.07598134970758L222.76421875000003,97.22109804467763L223.231640625,101.13296566894277L223.352265625,107.34322320800274L223.66890625,111.4342137672007L224.045859375,108.24116974675562L224.12125,92.40318860348779L224.317265625,100.42779539434704L224.51328125,93.18055392024107L224.60375000000002,113.35260258011985L225.23703125,113.2510770599707L225.252109375,93.71905553401447L225.3275,104.39238169593736L225.553671875,114.47317589321173L226.428203125,120.88116821992443L226.68453125,117.53209466856205L227.091640625,102.23979290821589L227.10671875,128.58419637879123L227.22734375,120.61079122867667L227.40828125000002,116.36069069310324L227.453515625,115.26156787978252L227.58921875000001,103.15320792039856L227.815390625,122.61192809367785L227.875703125,101.86213029504287L227.905859375,113.64896130703855L228.13203124999998,124.54356944668106L228.4034375,115.32316022741142L228.67484374999998,115.41702438159845L228.90101562499999,118.34989000387722L229.051796875,123.3975576162571L229.09703125000001,117.20058905265759L229.27796874999999,105.65914698832202L229.293046875,111.81713963610818L229.353359375,111.41842068769037L229.775546875,108.32724997962359L230.167578125,120.10879786204313L230.66515625,109.51325791639974L230.891328125,101.58948106123134L231.43414062500003,105.54076513813342L231.50953124999998,115.36973126304801L232.23328125,105.57846250346628L232.29359375,119.96357307637808L232.59515625,119.51709728643763L233.31890625,107.80108339691068L233.33398437500003,122.84345172446919L233.726015625,120.85061881297733L233.77124999999998,109.1334919883171L234.40453125000002,131.2599806098966L234.64578125,123.05446555066155L235.17351562500002,111.00906592167448L235.3996875,127.79496637856354L235.5203125,122.8290233154199L235.595703125,125.79290206761797L235.61078124999997,119.2206988118356L236.108359375,122.77663255648221L236.3646875,111.97460670823929L236.409921875,129.30458007918205L236.45515625000002,116.05303699950454L236.651171875,121.27986729450058L237.05828125,120.51887802327983L237.3296875,123.43924962376477L237.435234375,127.72113836908247L237.54078125,108.94161004703491L237.8725,102.45935248632449L238.189140625,123.4843731812667L238.38515625,107.00482468134723L238.91289062500002,115.21586135625839L239.25968749999998,126.73250086619518L239.304921875,115.92248573360266L239.50093750000002,111.19421394293894L239.56125,118.36360295462654L239.65171875000001,120.45242320905672L240.300078125,114.73199955783784L240.31515625,113.08214940581237L240.601640625,125.35571067404234L240.64687500000002,124.01988046956248L240.76749999999998,118.00763263963162L240.782578125,108.65298886913806L240.79765625000002,127.23452404359122L240.888125,110.47348576262593L241.18968750000002,124.54867702398914L241.21984375,111.67162667973898L241.49125,112.58977497854502L242.24515625,113.98761156902182L242.45624999999998,119.76749112989054L242.54671875000003,113.87557278663152L243.059375,124.21883418617071L243.677578125,121.58923676309641L244.099765625,110.36091701112454L244.50687499999998,124.49475929155014L244.582265625,126.63496998822083L244.672734375,124.74760424214182L245.01953125,117.88015519457403L245.396484375,111.89636670590843L245.577421875,113.56023122861515L245.5925,115.22862698722165L245.68296875000001,123.60266228686086L245.818671875,126.68193518838379L246.075,109.29670591299654L246.2559375,114.26858794249128L246.34640625,124.82459219244774L246.64796875000002,112.66457349396077L246.70828125,114.05028372871456L247.07015625,125.82037765372078L247.10031249999997,125.15719418195076L247.236015625,116.78806109658908L247.989921875,117.82291853057686L248.351796875,117.39826090647838L248.366875,113.67654951157746L248.69859375,122.55692723686806L249.22632812499998,116.94251728170784L249.24140625,123.01211108176503L249.60328124999998,127.89117233376018L249.6334375,120.1493007513578L249.648515625,121.66504553213016L250.100859375,126.3596510350122L250.4778125,125.06549627650529L250.52304687499998,117.10885139952879L250.553203125,122.72159526429604L250.77937500000002,108.62588757371995L250.86984375,126.68314086811151L251.17140625,123.67415511994622L251.3221875,126.01949036106234L251.337265625,126.41156482174992L251.457890625,113.01916257695993L251.518203125,122.4859577482799L251.608671875,130.1239156372263L251.849921875,126.13730911907041L252.49828125,118.26472396772587L252.67921875000002,122.85382586981868L252.845078125,123.5743453747942L252.995859375,123.57193401533877L253.01093749999998,124.844075181894L253.07125,112.41861482950625L253.1315625,113.92199476845562L253.191875,123.90099514871835L253.448203125,125.57295494959689L253.538671875,113.25899016126058L253.59898437500001,126.49527013053884L253.629140625,126.26967552917776L254.00609375,113.37219487569527L254.292578125,123.25013345878105L254.398125,117.02193646531086L254.41320312500002,122.49990918512921L254.654453125,110.15160571070155L254.69968749999998,112.80027870946796L255.1821875,112.66378516490803L255.197265625,116.28537545780418L255.21234375,123.84571937043219L255.57421875,112.29445300369989L255.7853125,114.89862184636294L256.313046875,111.91631010601995" style="fill: none;" fill="none"></path></g></g></g></g></g></g><g transform="translate(58, 177)" clip-path="url(#clip_1)"><clipPath id="clip_1"><rect width="271" height="22"></rect></clipPath><g><g><line x1="0" y1="0" x2="0" y2="5" style="visibility: inherit;" fill="rgb(0, 0, 0)" stroke="rgb(204, 204, 204)" stroke-width="1.3333333730697632px"></line><line x1="30.15625" y1="0" x2="30.15625" y2="5" style="visibility: inherit;" fill="rgb(0, 0, 0)" stroke="rgb(204, 204, 204)" stroke-width="1.3333333730697632px"></line><line x1="60.3125" y1="0" x2="60.3125" y2="5" style="visibility: inherit;" fill="rgb(0, 0, 0)" stroke="rgb(204, 204, 204)" stroke-width="1.3333333730697632px"></line><line x1="90.46875" y1="0" x2="90.46875" y2="5" style="visibility: inherit;" fill="rgb(0, 0, 0)" stroke="rgb(204, 204, 204)" stroke-width="1.3333333730697632px"></line><line x1="120.625" y1="0" x2="120.625" y2="5" style="visibility: inherit;" fill="rgb(0, 0, 0)" stroke="rgb(204, 204, 204)" stroke-width="1.3333333730697632px"></line><line x1="150.78125" y1="0" x2="150.78125" y2="5" style="visibility: inherit;" fill="rgb(0, 0, 0)" stroke="rgb(204, 204, 204)" stroke-width="1.3333333730697632px"></line><line x1="180.9375" y1="0" x2="180.9375" y2="5" style="visibility: inherit;" fill="rgb(0, 0, 0)" stroke="rgb(204, 204, 204)" stroke-width="1.3333333730697632px"></line><line x1="211.09375" y1="0" x2="211.09375" y2="5" style="visibility: inherit;" fill="rgb(0, 0, 0)" stroke="rgb(204, 204, 204)" stroke-width="1.3333333730697632px"></line><line x1="241.25" y1="0" x2="241.25" y2="5" style="visibility: inherit;" fill="rgb(0, 0, 0)" stroke="rgb(204, 204, 204)" stroke-width="1.3333333730697632px"></line><line x1="271.40625" y1="0" x2="271.40625" y2="5" style="visibility: inherit;" fill="rgb(0, 0, 0)" stroke="rgb(204, 204, 204)" stroke-width="1.3333333730697632px"></line></g><g transform="translate(0, 8)"><text x="0" y="0" dx="0em" dy="0.95em" style="text-anchor: middle; visibility: hidden; font-family: &quot;Helvetica Neue&quot;, sans-serif; font-size: 16px; font-weight: 200;" fill="rgb(50, 49, 63)" stroke="none" stroke-width="1.3333333730697632px">-2k</text><text x="30.15625" y="0" dx="0em" dy="0.95em" style="text-anchor: middle; visibility: inherit; font-family: &quot;Helvetica Neue&quot;, sans-serif; font-size: 16px; font-weight: 200;" fill="rgb(50, 49, 63)" stroke="none" stroke-width="1.3333333730697632px">0</text><text x="60.3125" y="0" dx="0em" dy="0.95em" style="text-anchor: middle; visibility: inherit; font-family: &quot;Helvetica Neue&quot;, sans-serif; font-size: 16px; font-weight: 200;" fill="rgb(50, 49, 63)" stroke="none" stroke-width="1.3333333730697632px">2k</text><text x="90.46875" y="0" dx="0em" dy="0.95em" style="text-anchor: middle; visibility: inherit; font-family: &quot;Helvetica Neue&quot;, sans-serif; font-size: 16px; font-weight: 200;" fill="rgb(50, 49, 63)" stroke="none" stroke-width="1.3333333730697632px">4k</text><text x="120.625" y="0" dx="0em" dy="0.95em" style="text-anchor: middle; visibility: inherit; font-family: &quot;Helvetica Neue&quot;, sans-serif; font-size: 16px; font-weight: 200;" fill="rgb(50, 49, 63)" stroke="none" stroke-width="1.3333333730697632px">6k</text><text x="150.78125" y="0" dx="0em" dy="0.95em" style="text-anchor: middle; visibility: inherit; font-family: &quot;Helvetica Neue&quot;, sans-serif; font-size: 16px; font-weight: 200;" fill="rgb(50, 49, 63)" stroke="none" stroke-width="1.3333333730697632px">8k</text><text x="180.9375" y="0" dx="0em" dy="0.95em" style="text-anchor: middle; visibility: inherit; font-family: &quot;Helvetica Neue&quot;, sans-serif; font-size: 16px; font-weight: 200;" fill="rgb(50, 49, 63)" stroke="none" stroke-width="1.3333333730697632px">10k</text><text x="211.09375" y="0" dx="0em" dy="0.95em" style="text-anchor: middle; visibility: inherit; font-family: &quot;Helvetica Neue&quot;, sans-serif; font-size: 16px; font-weight: 200;" fill="rgb(50, 49, 63)" stroke="none" stroke-width="1.3333333730697632px">12k</text><text x="241.25" y="0" dx="0em" dy="0.95em" style="text-anchor: middle; visibility: inherit; font-family: &quot;Helvetica Neue&quot;, sans-serif; font-size: 16px; font-weight: 200;" fill="rgb(50, 49, 63)" stroke="none" stroke-width="1.3333333730697632px">14k</text><text x="271.40625" y="0" dx="0em" dy="0.95em" style="text-anchor: middle; visibility: hidden; font-family: &quot;Helvetica Neue&quot;, sans-serif; font-size: 16px; font-weight: 200;" fill="rgb(50, 49, 63)" stroke="none" stroke-width="1.3333333730697632px">16k</text></g><line x1="0" y1="0" x2="271.40625" y2="0" fill="rgb(0, 0, 0)" stroke="rgb(204, 204, 204)" stroke-width="1.3333333730697632px"></line></g></g></g></g></svg>