<svg viewBox="0 0 330 200" xmlns="http://www.w3.org/2000/svg"><g><g><g><g><g><line x1="48.875" y1="177.828125" x2="43.875" y2="177.828125" style="visibility: inherit;" fill="rgb(0, 0, 0)" stroke="rgb(204, 204, 204)" stroke-width="1.3333333730697632px"></line><line x1="48.875" y1="165.12611607142856" x2="43.875" y2="165.12611607142856" style="visibility: inherit;" fill="rgb(0, 0, 0)" stroke="rgb(204, 204, 204)" stroke-width="1.3333333730697632px"></line><line x1="48.875" y1="152.4241071428571" x2="43.875" y2="152.4241071428571" style="visibility: inherit;" fill="rgb(0, 0, 0)" stroke="rgb(204, 204, 204)" stroke-width="1.3333333730697632px"></line><line x1="48.875" y1="139.72209821428567" x2="43.875" y2="139.72209821428567" style="visibility: inherit;" fill="rgb(0, 0, 0)" stroke="rgb(204, 204, 204)" stroke-width="1.3333333730697632px"></line><line x1="48.875" y1="127.02008928571432" x2="43.875" y2="127.02008928571432" style="visibility: inherit;" fill="rgb(0, 0, 0)" stroke="rgb(204, 204, 204)" stroke-width="1.3333333730697632px"></line><line x1="48.875" y1="114.31808035714288" x2="43.875" y2="114.31808035714288" style="visibility: inherit;" fill="rgb(0, 0, 0)" stroke="rgb(204, 204, 204)" stroke-width="1.3333333730697632px"></line><line x1="48.875" y1="101.61607142857144" x2="43.875" y2="101.61607142857144" style="visibility: inherit;" fill="rgb(0, 0, 0)" stroke="rgb(204, 204, 204)" stroke-width="1.3333333730697632px"></line><line x1="48.875" y1="88.9140625" x2="43.875" y2="88.9140625" style="visibility: inherit;" fill="rgb(0, 0, 0)" stroke="rgb(204, 204, 204)" stroke-width="1.3333333730697632px"></line><line x1="48.875" y1="76.21205357142856" x2="43.875" y2="76.21205357142856" style="visibility: inherit;" fill="rgb(0, 0, 0)" stroke="rgb(204, 204, 204)" stroke-width="1.3333333730697632px"></line><line x1="48.875" y1="63.51004464285711" x2="43.875" y2="63.51004464285711" style="visibility: inherit;" fill="rgb(0, 0, 0)" stroke="rgb(204, 204, 204)" stroke-width="1.3333333730697632px"></line><line x1="48.875" y1="50.80803571428575" x2="43.875" y2="50.80803571428575" style="visibility: inherit;" fill="rgb(0, 0, 0)" stroke="rgb(204, 204, 204)" stroke-width="1.3333333730697632px"></line><line x1="48.875" y1="38.106026785714306" x2="43.875" y2="38.106026785714306" style="visibility: inherit;" fill="rgb(0, 0, 0)" stroke="rgb(204, 204, 204)" stroke-width="1.3333333730697632px"></line><line x1="48.875" y1="25.40401785714289" x2="43.875" y2="25.40401785714289" style="visibility: inherit;" fill="rgb(0, 0, 0)" stroke="rgb(204, 204, 204)" stroke-width="1.3333333730697632px"></line><line x1="48.875" y1="12.702008928571445" x2="43.875" y2="12.702008928571445" style="visibility: inherit;" fill="rgb(0, 0, 0)" stroke="rgb(204, 204, 204)" stroke-width="1.3333333730697632px"></line><line x1="48.875" y1="0" x2="43.875" y2="0" style="visibility: inherit;" fill="rgb(0, 0, 0)" stroke="rgb(204, 204, 204)" stroke-width="1.3333333730697632px"></line></g><g transform="translate(38.875, 0)"><text x="0" y="177.828125" dx="0em" dy="0.3em" style="text-anchor: end; visibility: hidden; font-family: &quot;Helvetica Neue&quot;, sans-serif; font-size: 16px; font-weight: 200;" fill="rgb(50, 49, 63)" stroke="none" stroke-width="1.3333333730697632px">0.74</text><text x="0" y="165.12611607142856" dx="0em" dy="0.3em" style="text-anchor: end; visibility: inherit; font-family: &quot;Helvetica Neue&quot;, sans-serif; font-size: 16px; font-weight: 200;" fill="rgb(50, 49, 63)" stroke="none" stroke-width="1.3333333730697632px">0.76</text><text x="0" y="152.4241071428571" dx="0em" dy="0.3em" style="text-anchor: end; visibility: hidden; font-family: &quot;Helvetica Neue&quot;, sans-serif; font-size: 16px; font-weight: 200;" fill="rgb(50, 49, 63)" stroke="none" stroke-width="1.3333333730697632px">0.78</text><text x="0" y="139.72209821428567" dx="0em" dy="0.3em" style="text-anchor: end; visibility: inherit; font-family: &quot;Helvetica Neue&quot;, sans-serif; font-size: 16px; font-weight: 200;" fill="rgb(50, 49, 63)" stroke="none" stroke-width="1.3333333730697632px">0.8</text><text x="0" y="127.02008928571432" dx="0em" dy="0.3em" style="text-anchor: end; visibility: hidden; font-family: &quot;Helvetica Neue&quot;, sans-serif; font-size: 16px; font-weight: 200;" fill="rgb(50, 49, 63)" stroke="none" stroke-width="1.3333333730697632px">0.82</text><text x="0" y="114.31808035714288" dx="0em" dy="0.3em" style="text-anchor: end; visibility: inherit; font-family: &quot;Helvetica Neue&quot;, sans-serif; font-size: 16px; font-weight: 200;" fill="rgb(50, 49, 63)" stroke="none" stroke-width="1.3333333730697632px">0.84</text><text x="0" y="101.61607142857144" dx="0em" dy="0.3em" style="text-anchor: end; visibility: hidden; font-family: &quot;Helvetica Neue&quot;, sans-serif; font-size: 16px; font-weight: 200;" fill="rgb(50, 49, 63)" stroke="none" stroke-width="1.3333333730697632px">0.86</text><text x="0" y="88.9140625" dx="0em" dy="0.3em" style="text-anchor: end; visibility: inherit; font-family: &quot;Helvetica Neue&quot;, sans-serif; font-size: 16px; font-weight: 200;" fill="rgb(50, 49, 63)" stroke="none" stroke-width="1.3333333730697632px">0.88</text><text x="0" y="76.21205357142856" dx="0em" dy="0.3em" style="text-anchor: end; visibility: hidden; font-family: &quot;Helvetica Neue&quot;, sans-serif; font-size: 16px; font-weight: 200;" fill="rgb(50, 49, 63)" stroke="none" stroke-width="1.3333333730697632px">0.9</text><text x="0" y="63.51004464285711" dx="0em" dy="0.3em" style="text-anchor: end; visibility: inherit; font-family: &quot;Helvetica Neue&quot;, sans-serif; font-size: 16px; font-weight: 200;" fill="rgb(50, 49, 63)" stroke="none" stroke-width="1.3333333730697632px">0.92</text><text x="0" y="50.80803571428575" dx="0em" dy="0.3em" style="text-anchor: end; visibility: hidden; font-family: &quot;Helvetica Neue&quot;, sans-serif; font-size: 16px; font-weight: 200;" fill="rgb(50, 49, 63)" stroke="none" stroke-width="1.3333333730697632px">0.94</text><text x="0" y="38.106026785714306" dx="0em" dy="0.3em" style="text-anchor: end; visibility: inherit; font-family: &quot;Helvetica Neue&quot;, sans-serif; font-size: 16px; font-weight: 200;" fill="rgb(50, 49, 63)" stroke="none" stroke-width="1.3333333730697632px">0.96</text><text x="0" y="25.40401785714289" dx="0em" dy="0.3em" style="text-anchor: end; visibility: hidden; font-family: &quot;Helvetica Neue&quot;, sans-serif; font-size: 16px; font-weight: 200;" fill="rgb(50, 49, 63)" stroke="none" stroke-width="1.3333333730697632px">0.98</text><text x="0" y="12.702008928571445" dx="0em" dy="0.3em" style="text-anchor: end; visibility: inherit; font-family: &quot;Helvetica Neue&quot;, sans-serif; font-size: 16px; font-weight: 200;" fill="rgb(50, 49, 63)" stroke="none" stroke-width="1.3333333730697632px">1</text><text x="0" y="0" dx="0em" dy="0.3em" style="text-anchor: end; visibility: hidden; font-family: &quot;Helvetica Neue&quot;, sans-serif; font-size: 16px; font-weight: 200;" fill="rgb(50, 49, 63)" stroke="none" stroke-width="1.3333333730697632px">1.02</text></g><line x1="48.875" y1="0" x2="48.875" y2="177.828125" fill="rgb(0, 0, 0)" stroke="rgb(204, 204, 204)" stroke-width="1.3333333730697632px"></line></g></g><g transform="translate(48, 0)" clip-path="url(#clip_0)"><clipPath id="clip_0"><rect width="281" height="177"></rect></clipPath><g><g><g><line x1="0" y1="0" x2="0" y2="177.828125" fill="rgb(0, 0, 0)" stroke="rgb(60, 60, 60)" stroke-width="1.3333333730697632px" opacity="0.25"></line><line x1="31.23611111111111" y1="0" x2="31.23611111111111" y2="177.828125" fill="rgb(0, 0, 0)" stroke="rgb(60, 60, 60)" stroke-width="1.3333333730697632px" opacity="0.25"></line><line x1="62.47222222222222" y1="0" x2="62.47222222222222" y2="177.828125" fill="rgb(0, 0, 0)" stroke="rgb(60, 60, 60)" stroke-width="1.3333333730697632px" opacity="0.25"></line><line x1="93.70833333333333" y1="0" x2="93.70833333333333" y2="177.828125" fill="rgb(0, 0, 0)" stroke="rgb(60, 60, 60)" stroke-width="1.3333333730697632px" opacity="0.25"></line><line x1="124.94444444444444" y1="0" x2="124.94444444444444" y2="177.828125" fill="rgb(0, 0, 0)" stroke="rgb(60, 60, 60)" stroke-width="1.3333333730697632px" opacity="0.25"></line><line x1="156.18055555555557" y1="0" x2="156.18055555555557" y2="177.828125" fill="rgb(0, 0, 0)" stroke="rgb(60, 60, 60)" stroke-width="1.3333333730697632px" opacity="0.25"></line><line x1="187.41666666666666" y1="0" x2="187.41666666666666" y2="177.828125" fill="rgb(0, 0, 0)" stroke="rgb(60, 60, 60)" stroke-width="1.3333333730697632px" opacity="0.25"></line><line x1="218.65277777777777" y1="0" x2="218.65277777777777" y2="177.828125" fill="rgb(0, 0, 0)" stroke="rgb(60, 60, 60)" stroke-width="1.3333333730697632px" opacity="0.25"></line><line x1="249.88888888888889" y1="0" x2="249.88888888888889" y2="177.828125" fill="rgb(0, 0, 0)" stroke="rgb(60, 60, 60)" stroke-width="1.3333333730697632px" opacity="0.25"></line><line x1="281.125" y1="0" x2="281.125" y2="177.828125" fill="rgb(0, 0, 0)" stroke="rgb(60, 60, 60)" stroke-width="1.3333333730697632px" opacity="0.25"></line></g><g><line x1="0" y1="177.828125" x2="281.125" y2="177.828125" fill="rgb(0, 0, 0)" stroke="rgb(60, 60, 60)" stroke-width="1.3333333730697632px" opacity="0.25"></line><line x1="0" y1="165.12611607142856" x2="281.125" y2="165.12611607142856" fill="rgb(0, 0, 0)" stroke="rgb(60, 60, 60)" stroke-width="1.3333333730697632px" opacity="0.25"></line><line x1="0" y1="152.4241071428571" x2="281.125" y2="152.4241071428571" fill="rgb(0, 0, 0)" stroke="rgb(60, 60, 60)" stroke-width="1.3333333730697632px" opacity="0.25"></line><line x1="0" y1="139.72209821428567" x2="281.125" y2="139.72209821428567" fill="rgb(0, 0, 0)" stroke="rgb(60, 60, 60)" stroke-width="1.3333333730697632px" opacity="0.25"></line><line x1="0" y1="127.02008928571432" x2="281.125" y2="127.02008928571432" fill="rgb(0, 0, 0)" stroke="rgb(60, 60, 60)" stroke-width="1.3333333730697632px" opacity="0.25"></line><line x1="0" y1="114.31808035714288" x2="281.125" y2="114.31808035714288" fill="rgb(0, 0, 0)" stroke="rgb(60, 60, 60)" stroke-width="1.3333333730697632px" opacity="0.25"></line><line x1="0" y1="101.61607142857144" x2="281.125" y2="101.61607142857144" fill="rgb(0, 0, 0)" stroke="rgb(60, 60, 60)" stroke-width="1.3333333730697632px" opacity="0.25"></line><line x1="0" y1="88.9140625" x2="281.125" y2="88.9140625" fill="rgb(0, 0, 0)" stroke="rgb(60, 60, 60)" stroke-width="1.3333333730697632px" opacity="0.25"></line><line x1="0" y1="76.21205357142856" x2="281.125" y2="76.21205357142856" fill="rgb(0, 0, 0)" stroke="rgb(60, 60, 60)" stroke-width="1.3333333730697632px" opacity="0.25"></line><line x1="0" y1="63.51004464285711" x2="281.125" y2="63.51004464285711" fill="rgb(0, 0, 0)" stroke="rgb(60, 60, 60)" stroke-width="1.3333333730697632px" opacity="0.25"></line><line x1="0" y1="50.80803571428575" x2="281.125" y2="50.80803571428575" fill="rgb(0, 0, 0)" stroke="rgb(60, 60, 60)" stroke-width="1.3333333730697632px" opacity="0.25"></line><line x1="0" y1="38.106026785714306" x2="281.125" y2="38.106026785714306" fill="rgb(0, 0, 0)" stroke="rgb(60, 60, 60)" stroke-width="1.3333333730697632px" opacity="0.25"></line><line x1="0" y1="25.40401785714289" x2="281.125" y2="25.40401785714289" fill="rgb(0, 0, 0)" stroke="rgb(60, 60, 60)" stroke-width="1.3333333730697632px" opacity="0.25"></line><line x1="0" y1="12.702008928571445" x2="281.125" y2="12.702008928571445" fill="rgb(0, 0, 0)" stroke="rgb(60, 60, 60)" stroke-width="1.3333333730697632px" opacity="0.25"></line><line x1="0" y1="0" x2="281.125" y2="0" fill="rgb(0, 0, 0)" stroke="rgb(60, 60, 60)" stroke-width="1.3333333730697632px" opacity="0.25"></line></g></g></g><g><g><line x1="0" y1="647.8024553571429" x2="281.125" y2="647.8024553571429" fill="rgb(0, 0, 0)" stroke="rgb(153, 153, 153)" stroke-width="2px"></line></g></g><g><g><line x1="31.23611111111111" y1="0" x2="31.23611111111111" y2="177.828125" fill="rgb(0, 0, 0)" stroke="rgb(153, 153, 153)" stroke-width="2px"></line></g></g><g><g><g><g><g><path stroke="rgb(255, 112, 67)" stroke-width="2.6666667461395264px" d="M39.76356944444445,178.40659752869024L40.357055555555554,175.61516751046275L40.856833333333334,172.51549514205394L40.91930555555555,170.57740774560943L41.16919444444444,168.80297096255947L41.54402777777778,166.8110749395604L41.82515277777778,164.72003211719687L42.07504166666667,162.90987766180385L42.574819444444444,160.78545436487158L42.69976388888889,159.20350915507316L44.386513888888885,154.83398195365007L44.41775,152.14992612415463L44.94876388888889,149.48223453397986L45.01123611111112,147.7914642632639L45.042472222222216,146.67791301909992L45.136180555555555,145.87626034058093L45.60472222222222,144.6583996814187L45.69843055555556,143.77998846565856L45.72966666666666,143.2022766891871L46.042027777777776,142.41241374274244L46.57304166666666,141.07655421260705L46.63551388888889,140.22195073157116L47.29147222222222,111.51309060613453L47.38518055555555,94.62012573143286L47.63506944444445,84.44652215405908L47.82248611111111,78.49505167952715L47.88495833333334,74.7221148857137L47.97866666666666,72.33225044493685L48.16608333333333,70.51969156356255L48.32226388888889,69.3267983754543L48.634625,68.9939878583101L48.822041666666664,68.6920477935334L49.13440277777778,68.3496671510754L49.32181944444444,68.17093406682463L49.38429166666667,68.02371940332378L49.54047222222222,68.01073707084497L49.57170833333333,68.03071805277843L50.04025,68.70195793217906L50.6025,69.21558653983294L50.664972222222225,69.4488563560671L51.03980555555555,69.54584532188586L51.25845833333333,69.53965502536767L51.28969444444444,69.55500459348113L51.35216666666667,69.47068235723009L51.445875,69.37448138797689L51.50834722222223,69.35513057006762L51.883180555555555,69.10541252869878L52.19554166666667,68.76408115108067L52.28925,68.54435233755179L52.570375,68.3500998301232L52.72655555555556,68.19835837669001L53.538694444444445,67.84591759706844L53.66363888888889,67.5611811141943L53.788583333333335,67.34014357866289L53.81981944444444,67.2184232790578L54.03847222222222,67.0898654784276L54.31959722222222,66.94050357919589L54.444541666666666,66.82941511967061L54.56948611111112,66.73983709440733L54.72566666666666,66.6343955779567L54.850611111111114,66.5717969149688L55.13173611111112,66.4459902891932L55.25668055555556,66.3822867699685L55.28791666666666,66.34769873233827L55.319152777777774,66.29956921967892L55.381625,66.26596721600741L55.60027777777778,66.16843052358604L55.756458333333335,66.04137593108258L55.81893055555556,65.9370396707185L55.97511111111111,65.80192299812899L56.03758333333333,65.70178924855085L56.162527777777775,65.59828181564417L56.28747222222222,65.46855329732576L56.47488888888889,65.30349841262469L56.506125000000004,65.19002003803335L57.224555555555554,64.88850433280753L57.3495,64.63939545606272L58.380291666666665,64.2212509326704L58.53647222222222,63.96006767590532L58.59894444444444,63.78594445105351L58.78636111111111,63.6378464873128L59.036249999999995,63.47150622502784L59.22366666666667,63.324610526643184L59.34861111111111,63.194862961405036L59.56726388888889,63.052994153643L59.629736111111114,62.97294543047762L59.81715277777778,62.88171614303765L59.879625,62.7966643374197L60.31693055555556,62.627344148454696L60.34816666666667,62.513971578835026L60.66052777777778,62.32029993181227L60.75423611111111,62.17379785241923L61.035361111111115,61.98284032563926L61.16030555555555,61.844235495877214L61.28525,61.73754196948785L61.566375,61.63727596645593L61.597611111111114,61.576995228840005L61.78502777777778,61.483620406222514L61.81626388888889,61.41944913031594L61.97244444444444,61.34089584194854L62.34727777777778,61.245264124276474L62.53469444444445,57.81225441160507L62.62840277777777,56.02140033689051L62.909527777777775,54.89042346876937L63.003236111111114,54.37556751927268L63.253125000000004,54.21468189328802L63.846611111111116,54.16960294739626L64.25268055555556,53.78770340505339L64.44009722222222,53.42861525360961L64.53380555555556,53.18805696885245L64.59627777777777,53.100670964477885L64.72122222222222,52.990715000338554L64.90863888888889,52.79323337243291L65.06481944444445,52.4870899044416L65.37718055555555,52.077228149010395L65.56459722222222,51.899843672802234L65.68954166666667,51.82554425718368L65.72077777777778,51.781963978136275L66.03313888888889,51.49551012531758L66.18931944444445,51.257058551299494L67.34505555555555,51.06465505363391L67.47,50.962916442049746L67.50123611111111,50.894771689010696L67.53247222222222,50.844708800578275L68.09472222222223,50.65879958096134L68.46955555555556,50.54372596910889L68.50079166666667,50.452423099331824L68.68820833333334,50.37936501412041L68.90686111111111,50.22397923609758L69.719,50.03153755168877L69.78147222222222,49.913846670776934L70.09383333333334,49.80104660098738L70.43743055555555,49.66908887692645L70.53113888888889,49.558979188377066L70.62484722222223,49.51202254719573L71.24956944444445,49.47794319239196L71.43698611111111,49.44825897500226L71.65563888888889,49.39236637844334L71.84305555555555,49.32253550738588L72.15541666666667,49.250867862683094L72.34283333333335,49.20794298573435L72.43654166666667,49.18723033710779L72.78013888888889,49.09464113438665L72.87384722222222,49.03651347707148L72.96755555555555,49.01364446854214L72.99879166666666,49.00432937803387L74.498125,48.895169217448284L74.59183333333333,48.82815892363669L74.68554166666667,48.75848646477337L74.71677777777778,48.716410433912586L75.40397222222221,48.59427131991515L75.77880555555555,48.492414945441936L75.84127777777778,48.419490380568135L75.96622222222221,48.37930914764996L76.09116666666667,48.36422502476208L76.21611111111112,48.35521997695324L76.99701388888889,48.376269977898374L77.02825,48.390535311722545L77.37184722222221,48.342796650445194L77.6217361111111,48.292939547260715L77.74668055555556,48.26222276069615L77.80915277777778,48.246321398516045L78.1215138888889,46.52054375384503L78.34016666666668,47.41581520662328L78.80870833333333,46.815497804181376L78.93365277777778,46.31889331352292L79.68331944444445,46.038707297311134L79.71455555555556,45.853682101953154L80.21433333333333,45.587794868504744L80.24556944444444,45.39806943107848L80.52669444444444,45.30049664934572L80.71411111111111,45.11921213417881L80.83905555555556,45.06047050916504L81.12018055555556,45.04663628624465L81.33883333333333,44.87144090842446L81.37006944444444,44.75569401556143L81.77613888888888,44.586505693137326L82.05726388888888,44.5419719501119L82.21344444444445,44.4965665076372L82.369625,44.42350362700549L82.46333333333334,44.35734662806246L82.61951388888889,44.30750730571302L82.71322222222223,44.25761630582821L83.08805555555556,44.20128924416525L83.33794444444445,44.08619574552699L83.55659722222222,44.05558511985964L83.77525,44.034917164319694L84.056375,43.94860841296122L84.18131944444445,43.850685565532615L84.21255555555557,43.784921122834504L84.24379166666668,43.742267500574485L84.30626388888888,43.70441032779053L84.39997222222222,43.660421549803715L84.618625,43.63311976453551L84.89975,43.56940488076748L85.21211111111111,43.49995319887634L85.33705555555557,43.418458796537294L85.39952777777778,43.371697173552775L85.49323611111112,43.30887422607495L85.64941666666665,43.26289779748072L85.74312499999999,43.24312519921901L85.7743611111111,43.232927257468276L85.80559722222222,43.2244614863545L86.39908333333334,43.16964063711717L86.68020833333334,43.149073694901205L86.867625,43.121682406816774L87.08627777777777,43.078688610513524L87.11751388888888,43.05089359208398L87.39863888888888,42.98891179301586L87.61729166666666,42.958839441638105L87.992125,42.948730425503186L88.27325,42.924736917892886L88.39819444444446,42.88668904899771L88.71055555555554,42.83330382291294L88.8355,42.793550280214816L88.99168055555555,42.770424969376904L89.116625,42.761470924619886L89.52269444444444,42.72218047465631L89.61640277777778,42.68723458175171L89.80381944444444,42.652699836765095L89.86629166666667,42.62710327395118L90.92831944444444,42.574284091096445L91.11573611111112,42.5704840986013L91.64675,42.536708795931105L91.70922222222222,42.506555904913654L91.77169444444444,42.490341775153865L91.95911111111111,42.464002551159126L92.05281944444444,42.443777560178404L92.11529166666666,42.41707598602241L92.67754166666667,42.375828511841206L93.11484722222221,42.331092620857305L93.17731944444444,42.29985991363219L93.73956944444444,39.98315908165833L93.8645138888889,39.064705097517304L94.11440277777778,38.57091479695367L94.23934722222222,38.17441588672199L94.55170833333332,38.08057728695056L94.64541666666666,38.01169114619296L94.83283333333333,37.9178319518426L95.58250000000001,37.812501863444396L95.95733333333332,37.72033721299107L95.98856944444444,37.65334881832598L96.08227777777778,37.60900688048585L96.11351388888889,37.59422759994621L96.1759861111111,37.64600363990519L96.23845833333333,37.69826802832404L96.36340277777778,37.836256446525596L96.48834722222222,37.95236184157184L96.64452777777778,38.069586020825795L96.707,38.14959625014916L97.17554166666667,38.27158607565062L98.23756944444445,38.38212008032107L98.3625138888889,38.46748908717319L98.42498611111111,38.4932719739524L98.58116666666668,38.52451964355561L98.86229166666668,38.570311811957566L99.11218055555555,38.65944523357979L99.23712499999999,38.7161051012196L99.54948611111111,38.72838743022365L99.61195833333333,38.73775556827354L99.67443055555556,38.77181307940691L99.70566666666667,38.79256556755354L99.83061111111111,38.809514226898415L99.92431944444445,38.818502348486334L100.17420833333334,38.85124162757111L100.29915277777779,38.875715484920136L100.73645833333333,38.91618658207747L100.923875,38.93763769112121L101.08005555555556,38.928582777323186L101.11129166666667,38.92212017477138L101.17376388888889,38.92725208812874L101.26747222222222,38.92772681651155L101.32994444444445,38.91768482686231L101.39241666666668,38.917277305650316L101.42365277777778,38.923165292637066L101.64230555555557,38.9104810300299L101.73601388888888,38.92582570596301L101.89219444444444,38.949795936760154L102.48568055555556,38.96915978488272L102.79804166666666,38.947480891605494L102.98545833333334,38.920179531614394L103.172875,38.88668828431901L103.29781944444444,38.86085472756747L103.32905555555556,38.830121767066544L103.67265277777777,38.80070405917917L103.70388888888888,38.77081871896806L104.17243055555556,38.740955638854615L104.48479166666667,38.70380748304143L104.76591666666666,38.67497725652535L105.29693055555555,38.676455169122704L105.85918055555555,38.6734050032845L105.89041666666667,38.66780455210548L105.95288888888889,38.653890325100264L106.26525,38.62004270366663L106.39019444444445,38.60716884033627L106.98368055555555,38.58775491794495L107.32727777777778,38.55013807806699L107.57716666666667,38.536986282342895L107.76458333333333,38.54198102529517L107.79581944444443,38.54575011177121L107.85829166666666,38.55633964968817L107.92076388888889,38.560210088603554L108.07694444444444,38.560715315000465L108.85784722222223,38.56312318530834L108.88908333333333,38.57169977753088L109.20144444444443,38.567033733322006L109.26391666666666,38.551060588892625L109.42009722222222,37.83115153166048L109.85740277777778,37.23867088258629L110.04481944444444,36.81271174334205L110.26347222222223,36.60197164659334L110.32594444444445,36.441488429637786L110.38841666666667,36.253150435856355L110.79448611111111,36.09476714170407L110.91943055555555,36.091709518947766L110.98190277777778,36.041844601855075L111.38797222222222,35.935155840365184L111.76280555555556,35.946913024381814L112.13763888888889,36.103539759914554L112.168875,36.209190263652715L112.20011111111111,36.30019952757041L112.45,36.32396088365584L112.63741666666667,36.341382369999025L113.16843055555556,36.37280689662927L113.35584722222222,36.38539283512202L113.38708333333334,36.38997657119563L113.63697222222221,36.46917864260743L113.82438888888889,36.51671502742914L114.01180555555555,36.51895039041227L114.1679861111111,36.54339826144545L114.88641666666668,36.52414896095593L114.9488888888889,36.48066495622572L115.10506944444444,36.46600674421239L115.26124999999999,36.46343516856609L115.66731944444444,36.41233254030445L115.88597222222222,36.40020474026093L116.35451388888887,36.35984284572854L116.72934722222222,36.33906293724377L116.82305555555556,36.33322717702882L117.26036111111111,36.396032427683906L117.29159722222222,36.4343061150864L117.35406944444445,36.44942678468388L118.353625,36.407107324641714L118.3848611111111,36.38027716102917L118.41609722222222,36.343358847783406L118.63475,36.30320405203361L118.97834722222223,36.225130035126085L119.44688888888888,36.1194893376003L119.54059722222222,36.06853648023343L119.60306944444444,36.037207667083266L119.63430555555556,36.0134740954727L120.54015277777778,36.04459930841526L120.9149861111111,36.05176653548298L120.94622222222222,36.06412240221209L121.22734722222222,36.06844695943059L121.50847222222222,36.05111485518498L121.69588888888889,36.02307519222569L121.82083333333334,36.004070950107376L122.35184722222222,35.99298638630307L122.41431944444444,35.98727445044588L122.44555555555554,35.98427126422038L122.47679166666666,35.97668511818699L122.82038888888889,35.980885491887165L123.38263888888889,35.95717981609582L123.91365277777777,35.9237109609013L124.13230555555555,35.88020501307474L124.16354166666666,35.85924971574357L124.88197222222223,35.84287590171965L125.03815277777778,33.553215349265514L125.10062500000001,32.498248435021736L125.16309722222223,32.060660326745165L125.22556944444443,31.75873832781295L125.28804166666666,31.889858070679452L125.41298611111111,32.309648320242786L125.44422222222222,32.510509157545215L125.78781944444444,33.17784778874412L125.88152777777778,33.529418099370645L126.13141666666667,33.86838568101007L126.225125,34.10890949369349L126.50625000000001,34.05799830275447L126.97479166666666,34.08750465946423L127.09973611111111,34.19783193213314L127.16220833333333,34.30295831243737L127.63075,34.375906708060654L128.03681944444443,34.35865358778682L128.75525000000002,34.28458428649557L129.22379166666667,34.14614132738893L129.25502777777777,34.078066106781364L129.47368055555555,33.99025056920007L129.62986111111113,33.91792210559203L129.78604166666668,33.858913651612085L129.9109861111111,33.80594388868528L129.97345833333333,33.768347512681856L130.4732361111111,33.791306462734724L130.81683333333334,33.88545543395611L131.0354861111111,33.98927862929605L131.0667222222222,34.05847728691873L131.28537500000002,34.08261349464877L131.37908333333334,34.10178923141362L132.12875,34.11754956833579L132.22245833333332,34.14322282528832L132.4411111111111,34.17519209967483L132.53481944444445,34.21321028071216L132.56605555555555,34.231357461157046L132.62852777777778,34.258038848934234L132.6597638888889,34.26261549077577L133.2844861111111,34.35265495946368L133.44066666666666,34.41662691799024L133.72179166666666,34.45155772289678L133.7842638888889,34.47372756380889L133.8467361111111,34.482971419162766L134.47145833333335,34.488669152121076L134.72134722222222,34.53948217240165L135.15865277777777,34.59693784133694L135.18988888888887,34.627186631784014L135.34606944444445,34.62919456112613L135.50225,34.611774689970304L135.72090277777778,34.61676758137139L136.62675,34.592250348359414L136.6892222222222,34.575677545676115L136.75169444444444,34.55543732133654L137.00158333333334,34.555967019474934L137.53259722222222,34.532284808613156L137.68877777777777,34.49826977931613L138.37597222222223,34.438521911720755L138.46968055555556,34.3847753771835L138.6258611111111,34.348953950454955L138.84451388888888,34.3207380576944L138.96945833333334,34.30226404062856L139.03193055555556,34.286455334313075L139.2193472222222,34.26152529642937L139.25058333333334,34.245355915730954L139.438,34.22653881860123L139.65665277777777,34.20947946799984L139.84406944444444,34.18741797547449L139.93777777777777,34.172424610905466L140.46879166666668,34.1753756101254L140.5312638888889,34.180401734196806L140.843625,34.44292056937604L140.93733333333333,34.45721907469388L141.1559861111111,34.83901756788515L141.6557638888889,34.562596983672506L141.7182361111111,34.33217925344019L141.9056527777778,34.22418228055645L142.03059722222224,34.1313714438117L142.09306944444447,34.04944389977885L142.530375,33.96685389343702L143.06138888888887,33.68371978941482L143.43622222222223,33.38832749952198L143.654875,33.236591210816755L143.6861111111111,33.120716599245725L144.2483611111111,33.28113785861552L144.31083333333333,33.41501842112439L144.37330555555556,33.49969250534062L144.46701388888889,33.55372219646074L144.56072222222224,33.5872453752788L145.0917361111111,33.59966715947158L145.43533333333332,33.5421308749936L145.46656944444445,33.48262484621279L145.6539861111111,33.42847830387865L145.87263888888887,33.42285224142279L146.80972222222223,33.46809748439762L146.87219444444446,33.50389069768056L147.62186111111112,33.49387131847726L147.74680555555557,33.516205467411055L147.77804166666664,33.51752266103864L147.8092777777778,33.50786501473945L147.99669444444447,33.48570195241476L148.09040277777777,33.472176985400864L148.152875,33.45597619075477L148.434,33.44039576979608L148.65265277777777,33.41573898089774L149.05872222222223,33.41463325259937L149.3086111111111,33.41555972295353L149.71468055555556,33.394689711103666L149.7771527777778,33.3844692841333L149.8708611111111,33.36261965831372L150.24569444444447,33.35275026538699L150.3706388888889,33.35170434545287L150.52681944444444,33.35068310215277L150.58929166666667,33.35655112130249L150.90165277777777,33.36646184607466L150.964125,33.36014328150986L151.02659722222222,33.35450482186957L151.43266666666665,33.33987125895578L151.93244444444443,33.3055768940024L152.088625,33.27742928772912L152.30727777777778,33.24439937903895L153.08818055555557,33.198870360949996L153.11941666666667,33.17023559830619L153.1506527777778,33.15328187033887L153.36930555555557,33.16779105216057L153.68166666666664,33.16367130876529L153.93155555555555,33.13865306254513L154.15020833333332,33.11788816446409L154.27515277777778,33.105217237970976L154.61875,33.10000711406235L154.80616666666666,33.09951574329796L154.99358333333333,33.108427241397635L155.6807777777778,33.10783848621327L156.02437500000002,33.11030164037874L156.18055555555557,30.210304643510227L156.46168055555557,31.557134245865257L156.49291666666667,32.2672634316005L156.83651388888887,32.35552348966144L156.86775,32.38454006265164L157.2113472222222,32.507050452161195L157.30505555555555,32.58426646964455L157.52370833333333,32.69557029315351L157.61741666666666,32.818423319211746L157.64865277777778,32.90715597365221L157.67988888888888,32.96316654766878L159.0855138888889,32.69122298657632L159.24169444444445,32.59674084671752L159.27293055555558,32.53434303837713L159.58529166666665,32.45041849134347L161.39698611111112,32.19785783428236L161.8655277777778,32.06353786516871L162.209125,31.982097933122816L162.24036111111113,31.93621694289189L162.30283333333335,31.907370996962896L162.36530555555558,31.90020855238913L162.4590138888889,31.907297850545916L162.49024999999997,31.928555866918543L162.5527222222222,31.945777559249848L163.27115277777776,31.87561583766214L163.42733333333334,31.822919422487757L163.52104166666666,31.781005030653546L163.77093055555557,31.756992043648154L164.11452777777777,31.773761577151305L164.39565277777777,31.79916211752547L164.48936111111112,31.83104347183803L164.52059722222222,31.86013570371398L164.80172222222222,31.912114744933092L164.9891388888889,31.972829020139272L165.48891666666665,32.0351200778839L165.67633333333333,32.1000682482817L165.80127777777776,32.139022008545794L166.08240277777776,32.19192111517896L166.14487499999998,32.23610728228212L166.426,32.26579879721052L166.55094444444444,32.29348627360838L166.73836111111112,32.31577699992289L166.89454166666667,32.33333062070187L167.58173611111113,32.35944388503529L167.70668055555555,32.36278627630887L167.98780555555555,32.351724186991106L168.4563472222222,32.33769764979456L168.67499999999998,32.31420032077253L168.86241666666666,32.293242608864404L168.9873611111111,32.2890869195985L169.0185972222222,32.287865431905544L169.61208333333335,32.29343160072443L169.64331944444444,32.29565079589517L169.70579166666667,32.28399049878874L169.89320833333332,32.25279744511022L169.98691666666667,32.24268225447727L170.83029166666668,32.246939966776324L171.01770833333333,32.24743528560984L171.14265277777778,32.24970093360824L171.23636111111114,32.261493142908364L171.48624999999998,32.27686627057059L171.5487222222222,32.28749835080589L172.07973611111112,31.19911283519167L172.11097222222222,30.63040718238412L172.70445833333332,30.50476008311429L172.73569444444445,30.379448733288115L172.82940277777777,30.42450434371031L173.04805555555555,30.417589402905037L173.11052777777778,30.418709845583464L173.36041666666668,30.516987279477775L173.4228888888889,30.587476782486874L173.454125,30.573003221507776L173.9226666666667,30.566196689771033L174.23502777777776,30.551619382329477L174.32873611111108,30.507637622964666L174.6723333333333,30.505960269896974L174.76604166666667,30.52981698035353L174.8285138888889,30.526490606215674L174.8909861111111,30.488684011798227L175.26581944444445,30.481687140835874L175.79683333333332,30.360744394073777L176.265375,30.26202855587806L176.45279166666668,30.195394627380068L176.67144444444446,30.184910836806807L176.92133333333334,30.185192179440293L177.0462777777778,30.180909244487253L177.26493055555554,30.165756502620894L177.29616666666666,30.160828900516663L177.32740277777776,30.157054672625577L177.6397638888889,30.20904383089146L178.29572222222222,30.30098692795596L178.45190277777778,30.348112397680666L178.60808333333333,30.365818581243047L179.1078611111111,30.375776044497997L179.26404166666669,30.384794059346035L179.45145833333333,30.395792256883198L179.5764027777778,30.401013255716663L179.60763888888889,30.400875188502567L179.8575277777778,30.414253563595764L179.95123611111111,30.41508815071552L179.98247222222224,30.411424859971703L180.04494444444447,30.41888746532169L180.13865277777776,30.403862165243822L180.41977777777777,30.396936577692202L180.5134861111111,30.395506780589614L180.54472222222222,30.40003944528661L180.66966666666667,30.404242957615793L180.763375,30.435428822935705L180.7946111111111,30.454852014933948L180.98202777777777,30.474107201383305L181.16944444444445,30.481799109729337L181.23191666666668,30.486580816457547L181.325625,30.48614889003113L181.95034722222223,30.525834263176478L182.4188888888889,30.55100826477789L182.79372222222224,30.585221837687072L183.38720833333332,30.637911535488115L183.44968055555555,30.66663323701971L183.94945833333333,30.688136294776513L184.04316666666665,30.715014171988713L184.10563888888888,30.739771823839305L184.136875,30.76764851310776L184.7303611111111,30.853967041941644L185.4800277777778,30.95266799656025L185.57373611111112,31.01219140882344L185.97980555555554,31.05340199296208L186.22969444444442,31.07293464615657L186.47958333333332,31.0936788549364L186.51081944444442,31.10688247893438L186.60452777777778,31.112397079371362L186.667,31.126653487271057L186.6982361111111,31.13775118374417L187.13554166666665,31.131660259012705L187.38543055555556,31.127112327672307L188.07262500000002,31.28538818481573L188.26004166666667,31.088249867046358L188.35375000000002,31.04142185453358L188.5724027777778,30.98066380780847L188.97847222222225,31.011181933439957L189.04094444444442,31.0250107843365L189.07218055555555,31.063698037901474L189.29083333333332,31.142708566450438L189.85308333333333,31.29577558235559L190.3528611111111,31.3216270665813L190.5715138888889,31.397948127120088L190.72769444444444,31.410519271165583L190.75893055555557,31.410748383859925L190.94634722222222,31.29651851730435L191.35241666666667,31.123591824461897L191.4148888888889,31.01333990165199L191.60230555555557,30.91489091613903L192.41444444444443,30.725600543250465L192.570625,30.593643962349972L192.97669444444443,30.53538108073559L193.10163888888889,30.478876321907762L193.6638888888889,30.408011906606475L193.9137777777778,30.35966359720379L194.63220833333335,30.337877333447466L194.72591666666665,30.312010606654724L194.7571527777778,30.279607268897394L194.8820972222222,30.2609980748461L194.91333333333333,30.24407860806636L195.03827777777778,30.256882161495895L195.60052777777778,30.237944702202498L195.7254722222222,30.22867181912156L196.4439027777778,30.163933252526732L196.84997222222222,30.097319731149014L197.34975,30.07682419766101L197.6933472222222,30.06431488992382L198.19312499999998,30.029341763352733L198.28683333333333,29.994457554725045L198.63043055555556,29.934945278261466L198.66166666666666,29.89648207300567L198.755375,29.872677335071245L199.2863888888889,29.84646261632392L199.41133333333335,29.841106037678117L200.03605555555558,29.91828083365499L200.09852777777778,29.9601642546572L200.53583333333336,29.99556056603899L200.69201388888888,30.023763661185143L201.12931944444443,30.06930385027141L201.16055555555553,30.09902039571034L201.22302777777776,30.12248313752582L201.37920833333334,30.126355091733075L202.25381944444445,30.139519918072722L202.53494444444445,30.13954498708324L202.75359722222223,30.140725960533985L202.87854166666668,30.142751896394884L203.06595833333336,31.515194393957927L203.253375,31.726167019827614L203.40955555555553,31.517991820838972L203.5032638888889,31.399234343134367L203.56573611111114,31.288429018850053L204.03427777777776,30.640039740308254L204.31540277777776,30.241860420523267L204.56529166666667,29.990051866291026L205.09630555555555,29.760364743590515L205.25248611111112,29.688192929871633L205.31495833333332,29.700960573593193L205.40866666666668,29.694751111090227L205.68979166666668,29.716024833657116L205.7522638888889,29.720763820657965L205.93968055555555,29.719397743919018L206.3145138888889,29.64117232370799L206.47069444444446,29.586211825042085L206.78305555555553,29.51539573131103L207.09541666666667,29.476237309484986L207.1578888888889,29.46709684831245L207.62643055555554,29.520651130583786L207.97002777777777,29.574996976688368L208.0325,29.60453066350678L208.15744444444445,29.62019156705199L208.53227777777778,29.63117801651225L208.62598611111113,29.677714415189683L209.90666666666667,29.72279211162075L210.000375,29.74426648282565L210.12531944444444,29.74219083464135L210.562625,29.756859661037936L210.90622222222223,29.77654803661511L211.124875,29.799596407116297L211.34352777777778,29.82458506469908L211.6558888888889,29.804100612755292L211.74959722222223,29.78920552195737L211.90577777777779,29.759372542527302L212.06195833333334,29.746181908970527L212.24937500000001,29.710966548628306L212.6242083333333,29.656191864856424L212.65544444444444,29.618617900491927L213.18645833333332,29.600706966101484L213.28016666666667,29.601907423428656L213.49881944444445,29.605807512491424L213.87365277777778,29.597669319504178L214.34219444444446,29.56908921345905L214.40466666666669,29.560859772872845L214.62331944444446,29.559435046628863L214.93568055555556,29.562623118101357L215.18556944444447,29.573515151924056L215.2480416666667,29.577627656281237L215.31051388888886,29.574659190013335L215.46669444444444,29.570167696798762L215.74781944444445,29.559841245670356L216.06018055555555,29.55366051696791L216.09141666666667,29.56002149285706L216.40377777777778,29.569077201602965L216.52872222222223,29.58386836715482L216.55995833333333,29.59130457889873L217.15344444444446,29.58010950420612L217.309625,29.570470058292358L217.37209722222224,29.56891100165811L217.40333333333334,29.566506796141226L217.49704166666666,29.558871205218622L217.77816666666666,29.536089197193007L218.34041666666664,29.504143629032427L218.96513888888887,29.26512995888345L219.12131944444445,29.053355741464173L219.40244444444446,28.704794406528265L219.5898611111111,28.47161214989808L219.62109722222223,28.385577941555425L219.65233333333333,28.26628793205154L219.74604166666666,28.26298908983162L219.83975,28.323500713683842L220.27705555555556,28.351070768649578L220.52694444444447,28.45648105057066L221.05795833333335,28.54993545905512L221.08919444444442,28.62988699809381L221.21413888888887,28.616275510809004L221.37031944444442,28.612757204641014L221.58897222222222,28.669790773737333L221.87009722222223,28.67213705865703L221.93256944444443,28.642049522435798L222.24493055555556,28.64150112334346L222.43234722222223,28.695516630736165L222.49481944444443,28.699186467376308L222.6822361111111,28.71759028218503L222.74470833333334,28.725589034175215L222.80718055555556,28.74138135893068L223.1820138888889,28.712365854344597L223.24448611111112,28.689475156786813L223.30695833333334,28.676664398702883L224.02538888888887,28.70596978780634L224.15033333333332,28.724249552100133L224.30651388888887,28.749238879158185L224.40022222222223,28.752997130238043L224.9,28.780584604395784L225.2123611111111,28.71961017892602L225.2435972222222,28.68028482624115L225.30606944444443,28.64933061497345L225.4934861111111,28.636148631171295L225.6809027777778,28.619139114153967L225.89955555555557,28.64849938357972L226.05573611111112,28.668795674739698L226.2743888888889,28.65750338880204L226.46180555555557,28.69032428082477L226.86787500000003,28.746145567439726L227.08652777777777,28.791237091954144L227.68001388888888,28.82658980874504L228.3047361111111,28.875935227630833L228.39844444444444,28.901408719895784L228.5233888888889,28.920069475591163L228.554625,28.93238643512896L228.7732777777778,28.959279474139606L229.30429166666667,29.01254341927111L229.6478888888889,29.047409045473586L229.9914861111111,29.050915150402346L230.21013888888888,29.068615047200126L230.39755555555556,29.077387664377284L231.1472222222222,29.093038629260832L231.8656527777778,29.064120012446864L232.1467777777778,29.057640780122995L232.61531944444445,29.03300873552331L232.64655555555558,29.01653360760801L232.86520833333336,29.007557049335077L232.99015277777775,28.99662915166681L233.3962222222222,28.981774610983706L233.42745833333333,28.970711726180298L233.73981944444444,29.00644124023583L233.8647638888889,29.04250609613507L234.11465277777776,29.05375761509734L234.1458888888889,29.05638990938283L234.27083333333334,27.492470815758423L234.55195833333335,27.49531421692143L234.58319444444444,27.471309184744314L234.89555555555557,27.497198959855126L234.92679166666667,27.52240854669256L234.95802777777777,27.540638403588503L235.20791666666668,27.731644679698178L235.33286111111113,27.84205411839909L235.83263888888888,27.941733261541856L236.08252777777776,27.79673039895505L236.58230555555554,27.847974909523145L236.70725,27.92773618765196L236.7697222222222,27.978575923525966L236.80095833333334,28.018710060897547L236.89466666666667,28.02758800081972L237.17579166666667,28.020907178913205L237.20702777777777,28.03505391331771L237.48815277777777,27.976599284243008L237.58186111111112,27.952413586537375L237.89422222222223,27.86637147989211L238.05040277777778,27.80831087669887L239.17490277777776,27.869262646117875L239.45602777777776,27.85963554325727L239.5185,27.851406281655386L239.64344444444444,27.852692076255835L239.83086111111112,27.902190427286655L239.92456944444444,27.93376704275596L240.14322222222222,27.934406364743097L240.23693055555555,27.977550894212726L240.39311111111112,27.984267872047752L240.48681944444445,27.991417305516848L240.51805555555555,27.984774459935437L240.73670833333333,27.992826622395512L240.86165277777778,28.021748801464014L240.98659722222223,28.04597656537456L241.29895833333333,28.043281656623435L241.33019444444446,28.041483007677442L241.70502777777776,28.066584292397437L241.8299722222222,28.091820470162304L242.048625,28.120453676192L242.17356944444444,28.136937068978085L242.51716666666667,28.176596226718118L242.892,28.21303527015513L243.39177777777778,28.202282882923697L244.0477361111111,28.188336173156642L244.17268055555556,28.166612925697052L244.6412222222222,28.138194731025322L244.8911111111111,28.112543172647975L245.07852777777777,28.110961718459066L245.20347222222222,28.10335037712065L245.32841666666667,28.1138952629708L245.57830555555554,28.140830421914814L245.76572222222222,28.157036943204957L245.79695833333332,28.16370217710937L246.32797222222223,28.165823712601394L246.546625,28.184010219527522L246.60909722222223,28.205430654057295L246.7965138888889,28.239708808837605L247.04640277777779,28.250675689807792L247.1401111111111,28.259527114580266L247.26505555555556,28.262203265862922L247.57741666666666,28.261537660442144L247.82730555555554,28.247540803996685L247.9210138888889,28.23394899284085L248.35831944444445,28.19531311127261L248.48326388888887,28.177249569747318L248.73315277777778,28.16521522883852L248.8268611111111,28.15543563058543L249.01427777777778,28.159834130414055L249.54529166666669,28.151404446876853L249.57652777777778,28.150177556328913L249.639,28.16506793978982L250.20125000000002,28.438108490881945L250.32619444444447,28.466154735277257L250.41990277777776,28.43894961977057L250.88844444444445,28.496731374170878L250.98215277777777,28.44792272082782L251.10709722222222,28.40113340618157L251.32575,28.30676825258442L251.73181944444445,28.188975583032374L251.9192361111111,28.100281031524247L252.35654166666666,27.898218690277503L252.731375,27.84239461581194L252.9500277777778,27.853266156717694L253.19991666666664,27.88318343202195L253.44980555555554,28.003690391186694L253.48104166666664,28.07192137551749L253.63722222222222,28.121808873106033L253.76216666666664,28.16594454383616L254.1682361111111,28.183159057817647L254.29318055555555,28.192670099577924L254.7304861111111,28.21901523601727L255.10531944444446,28.188624153368835L255.13655555555556,28.166180034840323L255.35520833333334,28.14806497752022L255.60509722222224,28.15304959053691L255.7925138888889,28.175088962396813L255.97993055555557,28.154182574758863L256.1985833333333,28.145545371623484L256.2610555555556,28.153521425671784L256.54218055555555,28.143785904457076L256.6046527777778,28.13873197440759L256.63588888888887,28.12999109195269L257.229375,28.154258270979994L257.32308333333333,28.181507553113192L257.60420833333336,28.215633800576313L258.0102777777778,28.254643325967578L258.353875,28.261816844428495L258.44758333333334,28.26840739367009L258.75994444444444,28.272891692326027L259.25972222222225,28.27356838889753L259.6033194444444,28.303698102984924L259.6970277777778,28.335918535716104L260.16556944444443,28.35921799270065L260.4779305555556,28.37416675326591L260.50916666666666,28.378048306138595L260.6653472222222,28.400304076439L260.6965833333333,28.420380575342733L260.8527638888889,28.42741448109163L260.9152361111111,28.427410213626928L261.04018055555554,28.412538234088487L261.07141666666666,28.40308507725436L261.1026527777778,28.392582893255707L261.5711944444444,28.355104257150117L261.7898472222222,28.351075142527122L261.8210833333333,28.35038385885798L261.9460277777778,28.32864918841622L262.0085,28.308673361783292L262.289625,28.310073371352132L262.41456944444445,28.30653734643326L262.5082777777778,28.304885132694636L263.3204166666667,28.260663466961518L263.3516527777778,28.235629523007276L263.6327777777778,28.214612934692212L263.7264861111111,28.20391087050305L263.85143055555557,28.19791360727845L263.9451388888889,28.19470894068337L264.2575,28.181429659774523L264.2887361111111,28.177171875006707L264.3199722222222,28.16987776609548L264.3512083333333,28.16716691795503L264.5073888888889,28.164207915305752L264.69480555555555,28.15548234737369L264.81975,28.144402204417844L264.8822222222222,28.138829198841222L265.25705555555555,28.1430260988472L265.382,28.147452127650723L265.47570833333333,28.14355126992993" style="fill: none;" fill="none"></path></g></g></g></g><g opacity="0.20000000298023224"><g><g><g><path stroke="rgb(255, 112, 67)" stroke-width="2.6666667461395264px" d="M39.3575,179.88644326079105L39.57615277777778,177.8122198698776L39.701097222222224,176.9666920080781L39.76356944444445,176.60964424695288L40.357055555555554,171.4280226830659L40.856833333333334,167.86598672265453L40.91930555555555,167.67027670091815L41.16919444444444,166.1413158154381L41.54402777777778,163.8232309235526L41.82515277777778,161.58346789529813L42.07504166666667,160.19464598476355L42.574819444444444,157.598819423733L42.69976388888889,156.8305913422789L44.386513888888885,148.27969115466942L44.41775,148.12384238107396L44.94876388888889,145.48069714941084L45.01123611111112,145.2553088574537L45.042472222222216,145.00758615295803L45.136180555555555,144.6737813228475L45.60472222222222,142.83160869271626L45.69843055555556,142.4623716420361L45.72966666666666,142.3357090244868L46.042027777777776,141.2276193230812L46.57304166666666,139.07276491740984L46.63551388888889,138.94004551001956L47.29147222222222,68.44980041802462L47.38518055555555,69.28067841939628L47.63506944444445,69.18611678800414L47.82248611111111,69.56784596773132L47.88495833333334,69.06270969499435L47.97866666666666,68.74745378377183L48.16608333333333,67.80085324150112L48.32226388888889,67.5374585932919L48.634625,68.49477208259384L48.822041666666664,68.23913769636836L49.13440277777778,67.83609618738826L49.32181944444444,67.90283444044846L49.38429166666667,67.80289740807245L49.54047222222222,67.99126357212663L49.57170833333333,68.06068952567875L50.04025,69.70881775127991L50.6025,69.98602945131384L50.664972222222225,69.79876108041833L51.03980555555555,69.6913287706141L51.25845833333333,69.5303695805903L51.28969444444444,69.57802894565145L51.35216666666667,69.34419900285347L51.445875,69.2301799340972L51.50834722222223,69.32610434320357L51.883180555555555,68.73083546664566L52.19554166666667,68.25208408465343L52.28925,68.21475911725845L52.570375,68.05872106898043L52.72655555555556,67.97074619654033L53.538694444444445,67.31725642763611L53.66363888888889,67.13407638988326L53.788583333333335,67.00858727536563L53.81981944444444,67.03584282965001L54.03847222222222,66.89702877748225L54.31959722222222,66.71646073034833L54.444541666666666,66.6627824303827L54.56948611111112,66.60547005651253L54.72566666666666,66.47623330328081L54.850611111111114,66.47789892048709L55.13173611111112,66.25728035052973L55.25668055555556,66.28673149113145L55.28791666666666,66.29581667589291L55.319152777777774,66.22737495068993L55.381625,66.21556421050005L55.60027777777778,66.02212548495405L55.756458333333335,65.85079404232758L55.81893055555556,65.78053528017233L55.97511111111111,65.59924798924476L56.03758333333333,65.55158862418364L56.162527777777775,65.44302066628423L56.28747222222222,65.27396051984813L56.47488888888889,65.05591608557317L56.506125000000004,65.0198024761464L57.224555555555554,64.43623077496886L57.3495,64.26573214094553L58.380291666666665,63.594034147581894L58.53647222222222,63.56829279075775L58.59894444444444,63.524759613775785L58.78636111111111,63.41569954170181L59.036249999999995,63.22199583160027L59.22366666666667,63.104266979066395L59.34861111111111,63.00024161354773L59.56726388888889,62.84019094200008L59.629736111111114,62.85287234572961L59.81715277777778,62.744872211877805L59.879625,62.66908662899266L60.31693055555556,62.37336386500726L60.34816666666667,62.34391272440553L60.66052777777778,62.02979246127818L60.75423611111111,61.95404473332955L61.035361111111115,61.69640403546926L61.16030555555555,61.63632825123413L61.28525,61.577501679903705L61.566375,61.48687696190818L61.597611111111114,61.486574122416116L61.78502777777778,61.34355817229621L61.81626388888889,61.323192216455936L61.97244444444444,61.223065909397405L62.34727777777778,61.10181654776845L62.53469444444445,52.662739842597944L62.62840277777777,53.33511922481868L62.909527777777775,53.19395816658758L63.003236111111114,53.60328359502766L63.253125000000004,53.973353454310995L63.846611111111116,54.10198452855859L64.25268055555556,53.214854091538925L64.44009722222222,52.88998302644386L64.53380555555556,52.8272195417168L64.59627777777777,52.96959195791612L64.72122222222222,52.825781054129564L64.90863888888889,52.497010930574376L65.06481944444445,52.02787470245468L65.37718055555555,51.46243551586356L65.56459722222222,51.633766958490014L65.68954166666667,51.714095133755904L65.72077777777778,51.71659355956528L66.03313888888889,51.0658293460895L66.18931944444445,50.89938119027231L67.34505555555555,50.776049807135564L67.47,50.810308524673545L67.50123611111111,50.7925545594522L67.53247222222222,50.76961446792953L68.09472222222223,50.37993575153607L68.46955555555556,50.37111555133015L68.50079166666667,50.31546879466623L68.68820833333334,50.2697778863034L68.90686111111111,49.99090056906323L69.719,49.74287502507548L69.78147222222222,49.737310349409086L70.09383333333334,49.63184649630318L70.43743055555555,49.47115229083494L70.53113888888889,49.39381465555303L70.62484722222223,49.44158758542369L71.24956944444445,49.4268241601863L71.43698611111111,49.40373264891761L71.65563888888889,49.30852748360485L71.84305555555555,49.217789200799814L72.15541666666667,49.1433663956289L72.34283333333335,49.1435556703114L72.43654166666667,49.15616136416793L72.78013888888889,48.955757330304834L72.87384722222222,48.94932199109877L72.96755555555555,48.979340955748114L72.99879166666666,48.99035674227136L74.498125,48.73142897656987L74.59183333333333,48.72764348291926L74.68554166666667,48.653977776478456L74.71677777777778,48.65329638762134L75.40397222222221,48.41106264891903L75.77880555555555,48.33963038373207L75.84127777777778,48.31010353325735L75.96622222222221,48.319037298272775L76.09116666666667,48.34159884043038L76.21611111111112,48.34171240523989L76.99701388888889,48.407844979315996L77.02825,48.41193331245864L77.37184722222221,48.2711886585291L77.6217361111111,48.21815389248411L77.74668055555556,48.21614758084928L77.80915277777778,48.22246935524578L78.1215138888889,43.93187728683864L78.34016666666668,48.75872238579075L78.80870833333333,45.91502170051848L78.93365277777778,45.57398657753532L79.68331944444445,45.61842827299344L79.71455555555556,45.576144308916184L80.21433333333333,45.188964018332115L80.24556944444444,45.11348127493903L80.52669444444444,45.15413747674654L80.71411111111111,44.84728536142836L80.83905555555556,44.97235807164441L81.12018055555556,45.025884951863986L81.33883333333333,44.60864784169411L81.37006944444444,44.582073676266845L81.77613888888888,44.33272320950138L82.05726388888888,44.47517133557372L82.21344444444445,44.42845834392523L82.369625,44.313909306057866L82.46333333333334,44.25811112964794L82.61951388888889,44.232748322188854L82.71322222222223,44.18277980600084L83.08805555555556,44.11679865167076L83.33794444444445,43.91355549756969L83.55659722222222,44.00966918135862L83.77525,44.00391523100967L84.056375,43.81914528592358L84.18131944444445,43.70380129438959L84.21255555555557,43.686274458787295L84.24379166666668,43.6782870671845L84.30626388888888,43.64762456861459L84.39997222222222,43.59443838282357L84.618625,43.5921670866332L84.89975,43.47383255511522L85.21211111111111,43.395775676039705L85.33705555555557,43.29621719302878L85.39952777777778,43.301554739076124L85.49323611111112,43.214639804858194L85.64941666666665,43.19393315458939L85.74312499999999,43.213466301826486L85.7743611111111,43.21763034484218L85.80559722222222,43.21176282968372L86.39908333333334,43.087409363261315L86.68020833333334,43.11822328157723L86.867625,43.0805954746902L87.08627777777777,43.01419791605855L87.11751388888888,43.009201064439765L87.39863888888888,42.89593909441362L87.61729166666666,42.91373091457146L87.992125,42.93356690130065L88.27325,42.88874665647745L88.39819444444446,42.82961724565499L88.71055555555554,42.75322598378574L88.8355,42.73391996616766L88.99168055555555,42.73573700311994L89.116625,42.7480398574844L89.52269444444444,42.66324479971081L89.61640277777778,42.63481574239478L89.80381944444444,42.60089771928534L89.86629166666667,42.58870842973039L90.92831944444444,42.49505531681436L91.11573611111112,42.56478410985852L91.64675,42.486045841925915L91.70922222222222,42.46132656838745L91.77169444444444,42.466020580514225L91.95911111111111,42.424493715167046L92.05281944444444,42.41344007370728L92.11529166666666,42.37702362478845L92.67754166666667,42.31395730056934L93.11484722222221,42.263988784381326L93.17731944444444,42.253010852794574L93.73956944444444,36.50810783369735L93.8645138888889,37.6870241213058L94.11440277777778,37.83022934610824L94.23934722222222,37.579667521374574L94.55170833333332,37.93981938729331L94.64541666666666,37.908361935056746L94.83283333333333,37.77704316031719L95.58250000000001,37.65450673084706L95.95733333333332,37.58209023731098L95.98856944444444,37.55286622632826L96.08227777777778,37.54249397372561L96.11351388888889,37.57205867913686L96.1759861111111,37.723667699843645L96.23845833333333,37.77666461095214L96.36340277777778,38.04323907382786L96.48834722222222,38.126519934141214L96.64452777777778,38.24542228970677L96.707,38.26961159413415L97.17554166666667,38.45457081390279L98.23756944444445,38.547921087326756L98.3625138888889,38.595542597451384L98.42498611111111,38.53194630412119L98.58116666666668,38.571391147960526L98.86229166666668,38.63900006456035L99.11218055555555,38.79314536601305L99.23712499999999,38.801094902679324L99.54948611111111,38.74681092372964L99.61195833333333,38.751807775348425L99.67443055555556,38.82289934610682L99.70566666666667,38.82369429977345L99.83061111111111,38.83493721591577L99.92431944444445,38.83198453086828L100.17420833333334,38.90035054619824L100.29915277777779,38.91242627094368L100.73645833333333,38.97689322781349L100.923875,38.96981435468689L101.08005555555556,38.91500040662609L101.11129166666667,38.91242627094368L101.17376388888889,38.93494995816479L101.26747222222222,38.92843890908574L101.32994444444445,38.90262184238861L101.39241666666668,38.91666602383236L101.42365277777778,38.931997273117304L101.64230555555557,38.891454636119306L101.73601388888888,38.94884271986251L101.89219444444444,38.98575128295593L102.48568055555556,38.99820555706643L102.79804166666666,38.9149625516896L102.98545833333334,38.87922749162786L103.172875,38.83645141337598L103.29781944444444,38.822104392440195L103.32905555555556,38.784022326315096L103.67265277777777,38.75657749734819L103.70388888888888,38.725990708651295L104.17243055555556,38.696161018684506L104.48479166666667,38.64808524932181L104.76591666666666,38.63173191675119L105.29693055555555,38.6786720380187L105.85918055555555,38.66882975452714L105.89041666666667,38.65940387533712L105.95288888888889,38.63301898459241L106.26525,38.569271271516186L106.39019444444445,38.58785804534065L106.98368055555555,38.558634034357965L107.32727777777778,38.49371281825006L107.57716666666667,38.517258588756846L107.76458333333333,38.54947313972349L107.79581944444443,38.55140374148533L107.85829166666666,38.57222395656365L107.92076388888889,38.56601574697666L108.07694444444444,38.561473154595944L108.85784722222223,38.56673499077027L108.88908333333333,38.58456466586463L109.20144444444443,38.56003466700869L109.26391666666666,38.52710087224841L109.42009722222222,36.751287945812294L109.85740277777778,36.34994990897499L110.04481944444444,36.173773034475744L110.26347222222223,36.28586150147021L110.32594444444445,36.20076360420458L110.38841666666667,35.97064344518418L110.79448611111111,35.85719220047551L110.91943055555555,36.087123084813356L110.98190277777778,35.967047226216124L111.38797222222222,35.77512269813036L111.76280555555556,35.9645488004067L112.13763888888889,36.33847986321365L112.168875,36.36766601925984L112.20011111111111,36.43671342344689L112.45,36.35960291778403L112.63741666666667,36.36751459951381L113.16843055555556,36.4199436865747L113.35584722222222,36.4042717428612L113.38708333333334,36.39685217530601L113.63697222222221,36.587981749725145L113.82438888888889,36.58801960466164L114.01180555555555,36.52230343488711L114.1679861111111,36.580070067995365L114.88641666666668,36.495275010221775L114.9488888888889,36.415438949130476L115.10506944444444,36.44401942619257L115.26124999999999,36.45957780509656L115.66731944444444,36.33567859791219L115.88597222222222,36.38201304019563L116.35451388888887,36.299300003929886L116.72934722222222,36.307893074516755L116.82305555555556,36.32447353670642L117.26036111111111,36.49024030366647L117.29159722222222,36.49171664619021L117.35406944444445,36.47210778908007L118.353625,36.343628134578466L118.3848611111111,36.34003191561038L118.41609722222222,36.28798137791455L118.63475,36.24297185840885L118.97834722222223,36.10801900976472L119.44688888888888,35.96102829131166L119.54059722222222,35.99210719418312L119.60306944444444,35.99021444735783L119.63430555555556,35.97787373805687L120.54015277777778,36.09128712782905L120.9149861111111,36.06251737608443L120.94622222222222,36.08265620230566L121.22734722222222,36.0749337952584L121.50847222222222,36.02511669881642L121.69588888888889,35.98101569778686L121.82083333333334,35.97556458692998L122.35184722222222,35.976359540596604L122.41431944444444,35.97870654665999L122.44555555555554,35.97976648488216L122.47679166666666,35.96530589913684L122.82038888888889,35.98718605243735L123.38263888888889,35.92162130240882L123.91365277777777,35.87350767810963L124.13230555555555,35.81494609133475L124.16354166666666,35.82781676974679L124.88197222222223,35.81831518068378L125.03815277777778,30.118724520584294L125.10062500000001,30.91579806365604L125.16309722222223,31.40427816433035L125.22556944444443,31.305855329414555L125.28804166666666,32.08653768497919L125.41298611111111,32.93933369458787L125.44422222222222,32.81180041349893L125.78781944444444,34.17885573554253L125.88152777777778,34.056773565310465L126.13141666666667,34.37683705346927L126.225125,34.46969521271865L126.50625000000001,33.981631516345914L126.97479166666666,34.131764194528984L127.09973611111111,34.36332284113661L127.16220833333333,34.46064788289368L127.63075,34.48532930149565L128.03681944444443,34.33277390737618L128.75525000000002,34.17348033455866L129.22379166666667,33.938476888728985L129.25502777777777,33.97595327587001L129.47368055555555,33.858527262828204L129.62986111111113,33.8094294101798L129.78604166666668,33.77040097064207L129.9109861111111,33.72648924429501L129.97345833333333,33.7119529486767L130.4732361111111,33.825744887813926L130.81683333333334,34.02667889078813L131.0354861111111,34.14501342230611L131.0667222222222,34.16227527335286L131.28537500000002,34.1188178062439L131.37908333333334,34.13055283656078L132.12875,34.141190073718974L132.22245833333332,34.18173271071697L132.4411111111111,34.22314601125464L132.53481944444445,34.270237552268156L132.56605555555555,34.25857823182429L132.62852777777778,34.298060930600116L132.6597638888889,34.26948045353805L133.2844861111111,34.487714162495536L133.44066666666666,34.512584855780005L133.72179166666666,34.503953930256614L133.7842638888889,34.50698232517712L133.8467361111111,34.49683720219349L134.47145833333335,34.49721575155854L134.72134722222222,34.61570170282255L135.15865277777777,34.683121344739845L135.18988888888887,34.67255981745467L135.34606944444445,34.63220645513917L135.50225,34.58564488323674L135.72090277777778,34.624256918472895L136.62675,34.55547449884139L136.6892222222222,34.55081834165114L136.75169444444444,34.525076984827024L137.00158333333334,34.55676156668261L137.53259722222222,34.49676149232047L137.68877777777777,34.447247235370526L138.37597222222223,34.348900110327776L138.46968055555556,34.30415557537759L138.6258611111111,34.29522181036219L138.84451388888888,34.27841421855348L138.96945833333334,34.27455301502988L139.03193055555556,34.26274227483998L139.2193472222222,34.22413023960377L139.25058333333334,34.22110184468329L139.438,34.19831317290664L139.65665277777777,34.183890442097834L139.84406944444444,34.15432573668659L139.93777777777777,34.149934564051875L140.46879166666668,34.17980210895519L140.5312638888889,34.18794092030399L140.843625,34.83669882214497L140.93733333333333,34.47866683267057L141.1559861111111,35.411715307672125L141.6557638888889,34.14796610735357L141.7182361111111,33.98655265809171L141.9056527777778,34.062186821230824L142.03059722222224,33.992155188694596L142.09306944444447,33.926552583729574L142.530375,33.842968883924186L143.06138888888887,33.2590186333816L143.43622222222223,32.94523906468282L143.654875,33.00898677775905L143.6861111111111,32.946904681889066L144.2483611111111,33.52176974767022L144.31083333333333,33.615839264887796L144.37330555555556,33.62670363166504L144.46701388888889,33.63476673314082L144.56072222222224,33.637530143505785L145.0917361111111,33.618299835760695L145.43533333333332,33.45582644827664L145.46656944444445,33.39336580304163L145.6539861111111,33.34725849037724L145.87263888888887,33.414413147739026L146.80972222222223,33.535965348859975L146.87219444444446,33.55758051760495L147.62186111111112,33.47884224967234L147.74680555555557,33.54970669081169L147.77804166666664,33.51949845147985L147.8092777777778,33.49337854529068L147.99669444444447,33.4524573589276L148.09040277777777,33.451889534880024L148.152875,33.43167499878578L148.434,33.41702513835793L148.65265277777777,33.3787537975503L149.05872222222223,33.412974660151775L149.3086111111111,33.41694942848491L149.71468055555556,33.36338469332884L149.7771527777778,33.36913864367776L149.8708611111111,33.329845219584456L150.24569444444447,33.33794617599676L150.3706388888889,33.350135465551716L150.52681944444444,33.349151237202534L150.58929166666667,33.36535315002715L150.90165277777777,33.38132793323271L150.964125,33.3506654346628L151.02659722222222,33.34604713240907L151.43266666666665,33.317920914585045L151.93244444444443,33.254135346572326L152.088625,33.23520787831927L152.30727777777778,33.19485451600383L153.08818055555557,33.13057683381652L153.11941666666667,33.1272834543405L153.1506527777778,33.12785127838808L153.36930555555557,33.18955482489298L153.68166666666664,33.15749169367234L153.93155555555555,33.10112569321478L154.15020833333332,33.0867408173425L154.27515277777778,33.08621084823142L154.61875,33.092191928199384L154.80616666666666,33.09877868715142L154.99358333333333,33.121794488547096L155.6807777777778,33.10695535343672L156.02437500000002,33.113996371626854L156.18055555555557,25.860309148207307L156.46168055555557,33.577378649397644L156.49291666666667,33.33245721020336L156.83651388888887,32.487913576753016L156.86775,32.42806492213691L157.2113472222222,32.69081603642553L157.30505555555555,32.70009049586952L157.52370833333333,32.86252602841705L157.61741666666666,33.00270285829902L157.64865277777778,33.04025495531306L157.67988888888888,33.04718240869366L159.0855138888889,32.283307644937736L159.24169444444445,32.455017636929256L159.27293055555558,32.440746325866456L159.58529166666665,32.32453167079285L161.39698611111112,31.819016848690808L161.8655277777778,31.862057911498198L162.209125,31.859938035053858L162.24036111111113,31.86739545754557L162.30283333333335,31.86410207806955L162.36530555555558,31.88946488552861L162.4590138888889,31.917931797781165L162.49024999999997,31.9604428914775L162.5527222222222,31.971610097746776L163.27115277777776,31.770373255280504L163.42733333333334,31.743874799726257L163.52104166666666,31.718133442902143L163.77093055555557,31.720972563140094L164.11452777777777,31.798915877406102L164.39565277777777,31.837262928086744L164.48936111111112,31.878865503306912L164.52059722222222,31.903774051527904L164.80172222222222,31.990083306761733L164.9891388888889,32.06390043294857L165.48891666666665,32.128556664500934L165.67633333333333,32.19749050387847L165.80127777777776,32.197452648941976L166.08240277777776,32.271269775128815L166.14487499999998,32.302386532936794L166.426,32.31033606960307L166.55094444444444,32.33501748820501L166.73836111111112,32.349213089394794L166.89454166666667,32.35966105187046L167.58173611111113,32.398613781535204L167.70668055555555,32.36779986321926L167.98780555555555,32.33513105301455L168.4563472222222,32.316657843999565L168.67499999999998,32.278954327239546L168.86241666666666,32.261806041002274L168.9873611111111,32.28285338569964L169.0185972222222,32.28603320036615L169.61208333333335,32.30178085395269L169.64331944444444,32.298979588651235L169.70579166666667,32.26650005312905L169.89320833333332,32.20600786459232L169.98691666666667,32.227509468527785L170.83029166666668,32.253326535224915L171.01770833333333,32.2481782638601L171.14265277777778,32.253099405605894L171.23636111111114,32.279181456858566L171.48624999999998,32.299925962063895L171.5487222222222,32.30344647115896L172.07973611111112,29.56653456177031L172.11097222222222,29.777348703172606L172.70445833333332,30.316289434209466L172.73569444444445,30.191481708548963L172.82940277777777,30.492087759343633L173.04805555555555,30.407216991697055L173.11052777777778,30.420390509601162L173.36041666666668,30.664403430319283L173.4228888888889,30.693211037000367L173.454125,30.551292880039142L173.9226666666667,30.55598689216589L174.23502777777776,30.529753421167186L174.32873611111108,30.441664983917576L174.6723333333333,30.503444240295465L174.76604166666667,30.565602046038435L174.8285138888889,30.521501045008847L174.8909861111111,30.431974120172015L175.26581944444445,30.4711918343923L175.79683333333332,30.179330273930532L176.265375,30.11395479858453L176.45279166666668,30.09544373463308L176.67144444444446,30.169185150946902L176.92133333333334,30.185614193390535L177.0462777777778,30.17448484205775L177.26493055555554,30.143027389821214L177.29616666666666,30.153437497360358L177.32740277777776,30.151393330789062L177.6397638888889,30.287027568290284L178.29572222222222,30.43890157355264L178.45190277777778,30.418800602267908L178.60808333333333,30.392377856586677L179.1078611111111,30.390712239380406L179.26404166666669,30.39832108161812L179.45145833333333,30.412289553188856L179.5764027777778,30.408844753966804L179.60763888888889,30.40066808768148L179.8575277777778,30.434321126235375L179.95123611111111,30.41634003139501L179.98247222222224,30.405929923855837L180.04494444444447,30.430081373346695L180.13865277777776,30.38132421512688L180.41977777777777,30.386548196364743L180.5134861111111,30.39336208493583L180.54472222222222,30.406838442332003L180.66966666666667,30.410548226109597L180.763375,30.482207620915574L180.7946111111111,30.483986802931355L180.98202777777777,30.502989981057397L181.16944444444445,30.493336972248358L181.23191666666668,30.493753376549932L181.325625,30.485501000391594L181.95034722222223,30.585362322894582L182.4188888888889,30.58876926718014L182.79372222222224,30.6365421970508L183.38720833333332,30.71694608218968L183.44968055555555,30.709715789317045L183.94945833333333,30.72039088141173L184.04316666666665,30.755330987806843L184.10563888888888,30.776908301615293L184.136875,30.809463547010523L184.7303611111111,30.983444835192415L185.4800277777778,31.10071942848819L185.57373611111112,31.101476527218324L185.97980555555554,31.11521786917001L186.22969444444442,31.10223362594843L186.47958333333332,31.12479516810606L186.51081944444442,31.126687914931352L186.60452777777778,31.120668980026892L186.667,31.148038099120782L186.6982361111111,31.1543977284538L187.13554166666665,31.12252387191569L187.38543055555556,31.12029043066184L188.07262500000002,31.52280197053085L188.26004166666667,30.7925423903923L188.35375000000002,30.971179835764417L188.5724027777778,30.889526737720843L188.97847222222225,31.05695912188719L189.04094444444442,31.04575406068139L189.07218055555555,31.12172891824906L189.29083333333332,31.26122435927391L189.85308333333333,31.52537610621326L190.3528611111111,31.36040429291981L190.5715138888889,31.51242971792817L190.72769444444444,31.42937598723387L190.75893055555557,31.411092052901438L190.94634722222222,31.125173717471114L191.35241666666667,30.864201785198304L191.4148888888889,30.84796201743717L191.60230555555557,30.76721743786976L192.41444444444443,30.441664983917576L192.570625,30.39570909099922L192.97669444444443,30.447986758314073L193.10163888888889,30.394119183665964L193.6638888888889,30.30171528365463L193.9137777777778,30.287141133099794L194.63220833333335,30.305197937813205L194.72591666666665,30.273210516465554L194.7571527777778,30.231002262261313L194.8820972222222,30.23308428376913L194.91333333333333,30.21869940789685L195.03827777777778,30.276087491640027L195.60052777777778,30.209538513262373L195.7254722222222,30.214762494500206L196.4439027777778,30.066825402634493L196.84997222222222,29.997399449082366L197.34975,30.046080897429164L197.6933472222222,30.04555092831808L198.19312499999998,29.976882073496085L198.28683333333333,29.9421312417835L198.63043055555556,29.84567686356604L198.66166666666666,29.838787265121937L198.755375,29.836970228169662L199.2863888888889,29.807140538202873L199.41133333333335,29.833071169709513L200.03605555555558,30.034043027620243L200.09852777777778,30.022989386160475L200.53583333333336,30.048655033111572L200.69201388888888,30.066068303904387L201.12931944444443,30.137614133900854L201.16055555555553,30.143595213868792L201.22302777777776,30.157677250249037L201.37920833333334,30.132163023043972L202.25381944444445,30.159267157582292L202.53494444444445,30.13958259059916L202.75359722222223,30.14249742071013L202.87854166666668,30.14579080018615L203.06595833333336,33.57385814030255L203.253375,32.04262595863216L203.40955555555553,31.205729022356024L203.5032638888889,31.221098126577488L203.56573611111114,31.122221032423624L204.03427777777776,29.66745582249547L204.31540277777776,29.64459144084583L204.56529166666667,29.612339034942636L205.09630555555555,29.415834059539662L205.25248611111112,29.579935209293467L205.31495833333332,29.720112039175433L205.40866666666668,29.685436917335863L205.68979166666668,29.747935417507392L205.7522638888889,29.727872301159152L205.93968055555555,29.717348628810498L206.3145138888889,29.52383419339145L206.47069444444446,29.503771077043268L206.78305555555553,29.409171590714607L207.09541666666667,29.417499676745933L207.1578888888889,29.453386156553677L207.62643055555554,29.600982553990832L207.97002777777777,29.65651574584524L208.0325,29.64883119373451L208.15744444444445,29.643682922369692L208.53227777777778,29.64765769070283L208.62598611111113,29.747519013205817L209.90666666666667,29.790408656267175L210.000375,29.776478039632963L210.12531944444444,29.73907736236498L210.562625,29.778862900632845L210.90622222222223,29.806080599980703L211.124875,29.834168962868205L211.34352777777778,29.86206805107318L211.6558888888889,29.77337393483947L211.74959722222223,29.766862885760418L211.90577777777779,29.71462307338203L212.06195833333334,29.726395958635436L212.24937500000001,29.65814350811499L212.6242083333333,29.574029839198516L212.65544444444444,29.56225695394511L213.18645833333332,29.57384056451599L213.28016666666667,29.603708109419273L213.49881944444445,29.611657646085547L213.87365277777778,29.585462030023336L214.34219444444446,29.526219054391333L214.40466666666669,29.548515611993423L214.62331944444446,29.557297957262847L214.93568055555556,29.567405225309955L215.18556944444447,29.58985320265805L215.2480416666667,29.583796412817094L215.31051388888886,29.570206490611383L215.46669444444444,29.563430456976818L215.74781944444445,29.54435156897776L216.06018055555555,29.544389423914254L216.09141666666667,29.56956295669079L216.40377777777778,29.58266076472188L216.52872222222223,29.60605511548266L216.55995833333333,29.602458896514577L217.15344444444446,29.56331689216728L217.309625,29.55601088942163L217.37209722222224,29.566572416706833L217.40333333333334,29.562900487865733L217.49704166666666,29.54741781883473L217.77816666666666,29.50191618515447L218.34041666666664,29.456225276791628L218.96513888888887,28.906609453660053L219.12131944444445,28.73569441533516L219.40244444444446,28.181952404124388L219.5898611111111,28.12183876495277L219.62109722222223,28.25652662904136L219.65233333333333,28.087352917795727L219.74604166666666,28.2580408265016L219.83975,28.414268149462146L220.27705555555556,28.392425851098153L220.52694444444447,28.614596473452252L221.05795833333335,28.690117071781856L221.08919444444442,28.7498143066519L221.21413888888887,28.595858279881725L221.37031944444442,28.6074797453891L221.58897222222222,28.755341127381797L221.87009722222223,28.67565648603653L221.93256944444443,28.596918218103895L222.24493055555556,28.640678524704924L222.43234722222223,28.776539891825195L222.49481944444443,28.70469122233669L222.6822361111111,28.745196004398167L222.74470833333334,28.73758716216045L222.80718055555556,28.765069846063852L223.1820138888889,28.668842597465442L223.24448611111112,28.65513911045025L223.30695833333334,28.657448261577116L224.02538888888887,28.749927871461438L224.15033333333332,28.751669198540696L224.30651388888887,28.786722869745347L224.40022222222223,28.758634506857845L224.9,28.821965815632495L225.2123611111111,28.628148540721412L225.2435972222222,28.6212967972138L225.30606944444443,28.60289929807186L225.4934861111111,28.616375655468033L225.6809027777778,28.593624838627875L225.89955555555557,28.692539787718232L226.05573611111112,28.69924011147981L226.2743888888889,28.640564959895414L226.46180555555557,28.739555618858788L226.86787500000003,28.829877497362247L227.08652777777777,28.858874378725886L227.68001388888888,28.879618883931215L228.3047361111111,28.949953355959508L228.39844444444444,28.93961895829335L228.5233888888889,28.94806060913419L228.554625,28.950861874435645L228.7732777777778,28.99961903265546L229.30429166666667,29.09243933696831L229.6478888888889,29.099707484777497L229.9914861111111,29.056174307795516L230.21013888888888,29.09516489239678L230.39755555555556,29.09054659014302L231.1472222222222,29.116515076586182L231.8656527777778,29.02074208722584L232.1467777777778,29.047921931637177L232.61531944444445,28.996060668623898L232.64655555555558,28.991820915735218L232.86520833333336,28.99409221192556L232.99015277777775,28.980237305164337L233.3962222222222,28.959492799959037L233.42745833333333,28.954117398975143L233.73981944444444,29.060035511319143L233.8647638888889,29.096603379984003L234.11465277777776,29.07063489354084L234.1458888888889,29.06033835081118L234.27083333333334,25.146592175321928L234.55195833333335,27.499579318666036L234.58319444444444,27.435301636478755L234.89555555555557,27.536033622521387L234.92679166666667,27.560222926948768L234.95802777777777,27.567983188932487L235.20791666666668,28.01815409386265L235.33286111111113,28.007668276450488L235.83263888888888,28.091251976255876L236.08252777777776,27.57922610507481L236.58230555555554,27.924841675375205L236.70725,28.047378104845336L236.7697222222222,28.054835527337048L236.80095833333334,28.07891126695489L236.89466666666667,28.040904910702807L237.17579166666667,28.01088594605349L237.20702777777777,28.05627401492427L237.48815277777777,27.88891734063094L237.58186111111112,27.916135039978798L237.89422222222223,27.737308319924125L238.05040277777778,27.72121997190908L239.17490277777776,27.960690300246426L239.45602777777776,27.845194888966432L239.5185,27.839062389252433L239.64344444444444,27.85462076815645L239.83086111111112,27.97643795383297L239.92456944444444,27.98113196595972L240.14322222222222,27.935365347723888L240.23693055555555,28.042267688417013L240.39311111111112,27.99434333880032L240.48681944444445,28.00214145572059L240.51805555555555,27.974810191563222L240.73670833333333,28.004904866085525L240.86165277777778,28.06513207006668L240.98659722222223,28.08231821124042L241.29895833333333,28.039239293496536L241.33019444444446,28.038785034258467L241.70502777777776,28.104236219477457L241.8299722222222,28.129674736809534L242.048625,28.163403485236415L242.17356944444444,28.161662158157156L242.51716666666667,28.236084963328096L242.892,28.267693835310638L243.39177777777778,28.186154302076574L244.0477361111111,28.167416108506075L244.17268055555556,28.134028054507723L244.6412222222222,28.095567439017543L244.8911111111111,28.07406583508211L245.07852777777777,28.108589537175646L245.20347222222222,28.091933365112993L245.32841666666667,28.129712591746028L245.57830555555554,28.181233160330805L245.76572222222222,28.181346725140315L245.79695833333332,28.173700027966078L246.32797222222223,28.16900601583933L246.546625,28.211289979916614L246.60909722222223,28.237561305851813L246.7965138888889,28.291126041007885L247.04640277777779,28.26712601126306L247.1401111111111,28.27280425173896L247.26505555555556,28.266217492786893L247.57741666666666,28.26053925231099L247.82730555555554,28.226545519328567L247.9210138888889,28.213561276106986L248.35831944444445,28.137359288920265L248.48326388888887,28.150154257459292L248.73315277777778,28.147163717475337L248.8268611111111,28.140766233205795L249.01427777777778,28.16643188015692L249.54529166666669,28.138759921570966L249.57652777777778,28.148337220507017L249.639,28.18740351498127L250.20125000000002,28.847669317520115L250.32619444444447,28.508224101870212L250.41990277777776,28.39814194651055L250.88844444444445,28.58340400577123L250.98215277777777,28.3747097408133L251.10709722222222,28.3309494342123L251.32575,28.16522052218872L251.73181944444445,28.01228657870422L251.9192361111111,27.967239204262L252.35654166666666,27.595125178407358L252.731375,27.758658504113555L252.9500277777778,27.86957346807634L253.19991666666664,27.92805934497821L253.44980555555554,28.18445082993381L253.48104166666664,28.174267852013656L253.63722222222222,28.196640119488762L253.76216666666664,28.232148049931453L254.1682361111111,28.20898082878972L254.29318055555555,28.206936662218425L254.7304861111111,28.25853294067616L255.10531944444446,28.143037529396167L255.13655555555556,28.132513857047485L255.35520833333334,28.12089239154011L255.60509722222224,28.16052651006197L255.7925138888889,28.2081480201866L255.97993055555557,28.122822993301924L256.1985833333333,28.1325895669205L256.2610555555556,28.16548550674426L256.54218055555555,28.129182622634943L256.6046527777778,28.13115107933328L256.63588888888887,28.11687976827048L257.229375,28.190659039520796L257.32308333333333,28.222381476312876L257.60420833333336,28.266823171771023L258.0102777777778,28.313157614054433L258.353875,28.272577122119912L258.44758333333334,28.278293217532337L258.75994444444444,28.27961814031005L259.25972222222225,28.274583433754742L259.6033194444444,28.348892674116144L259.6970277777778,28.38424918481283L260.16556944444443,28.394167178177412L260.4779305555556,28.396589894113788L260.50916666666666,28.38387063544775L260.6653472222222,28.433687731889734L260.6965833333333,28.450495323698448L260.8527638888889,28.437965339714935L260.9152361111111,28.42740381242976L261.04018055555554,28.39023026478077L261.07141666666666,28.388905342003056L261.1026527777778,28.37682961725764L261.5711944444444,28.29888630299166L261.7898472222222,28.345031470592545L261.8210833333333,28.34934693335424L261.9460277777778,28.296047182753682L262.0085,28.27870962183391L262.289625,28.31217338570528L262.41456944444445,28.30123330905502L262.5082777777778,28.3024068120867L263.3204166666667,28.194330968361896L263.3516527777778,28.198078607075985L263.6327777777778,28.183088052219603L263.7264861111111,28.187857774219367L263.85143055555557,28.188917712441537L263.9451388888889,28.189901940790662L264.2575,28.161510738411124L264.2887361111111,28.17078519785511L264.3199722222222,28.158936602728716L264.3512083333333,28.16310064574438L264.5073888888889,28.159769411331865L264.69480555555555,28.142393995475572L264.81975,28.127781989984214L264.8822222222222,28.13046969047616L265.25705555555555,28.14932144885617L265.382,28.154091170855935L265.47570833333333,28.137699983348796" style="fill: none;" fill="none"></path></g></g></g></g></g></g><g transform="translate(48, 177)" clip-path="url(#clip_1)"><clipPath id="clip_1"><rect width="281" height="22"></rect></clipPath><g><g><line x1="0" y1="0" x2="0" y2="5" style="visibility: inherit;" fill="rgb(0, 0, 0)" stroke="rgb(204, 204, 204)" stroke-width="1.3333333730697632px"></line><line x1="31.23611111111111" y1="0" x2="31.23611111111111" y2="5" style="visibility: inherit;" fill="rgb(0, 0, 0)" stroke="rgb(204, 204, 204)" stroke-width="1.3333333730697632px"></line><line x1="62.47222222222222" y1="0" x2="62.47222222222222" y2="5" style="visibility: inherit;" fill="rgb(0, 0, 0)" stroke="rgb(204, 204, 204)" stroke-width="1.3333333730697632px"></line><line x1="93.70833333333333" y1="0" x2="93.70833333333333" y2="5" style="visibility: inherit;" fill="rgb(0, 0, 0)" stroke="rgb(204, 204, 204)" stroke-width="1.3333333730697632px"></line><line x1="124.94444444444444" y1="0" x2="124.94444444444444" y2="5" style="visibility: inherit;" fill="rgb(0, 0, 0)" stroke="rgb(204, 204, 204)" stroke-width="1.3333333730697632px"></line><line x1="156.18055555555557" y1="0" x2="156.18055555555557" y2="5" style="visibility: inherit;" fill="rgb(0, 0, 0)" stroke="rgb(204, 204, 204)" stroke-width="1.3333333730697632px"></line><line x1="187.41666666666666" y1="0" x2="187.41666666666666" y2="5" style="visibility: inherit;" fill="rgb(0, 0, 0)" stroke="rgb(204, 204, 204)" stroke-width="1.3333333730697632px"></line><line x1="218.65277777777777" y1="0" x2="218.65277777777777" y2="5" style="visibility: inherit;" fill="rgb(0, 0, 0)" stroke="rgb(204, 204, 204)" stroke-width="1.3333333730697632px"></line><line x1="249.88888888888889" y1="0" x2="249.88888888888889" y2="5" style="visibility: inherit;" fill="rgb(0, 0, 0)" stroke="rgb(204, 204, 204)" stroke-width="1.3333333730697632px"></line><line x1="281.125" y1="0" x2="281.125" y2="5" style="visibility: inherit;" fill="rgb(0, 0, 0)" stroke="rgb(204, 204, 204)" stroke-width="1.3333333730697632px"></line></g><g transform="translate(0, 8)"><text x="0" y="0" dx="0em" dy="0.95em" style="text-anchor: middle; visibility: hidden; font-family: &quot;Helvetica Neue&quot;, sans-serif; font-size: 16px; font-weight: 200;" fill="rgb(50, 49, 63)" stroke="none" stroke-width="1.3333333730697632px">-1k</text><text x="31.23611111111111" y="0" dx="0em" dy="0.95em" style="text-anchor: middle; visibility: inherit; font-family: &quot;Helvetica Neue&quot;, sans-serif; font-size: 16px; font-weight: 200;" fill="rgb(50, 49, 63)" stroke="none" stroke-width="1.3333333730697632px">0</text><text x="62.47222222222222" y="0" dx="0em" dy="0.95em" style="text-anchor: middle; visibility: inherit; font-family: &quot;Helvetica Neue&quot;, sans-serif; font-size: 16px; font-weight: 200;" fill="rgb(50, 49, 63)" stroke="none" stroke-width="1.3333333730697632px">1k</text><text x="93.70833333333333" y="0" dx="0em" dy="0.95em" style="text-anchor: middle; visibility: inherit; font-family: &quot;Helvetica Neue&quot;, sans-serif; font-size: 16px; font-weight: 200;" fill="rgb(50, 49, 63)" stroke="none" stroke-width="1.3333333730697632px">2k</text><text x="124.94444444444444" y="0" dx="0em" dy="0.95em" style="text-anchor: middle; visibility: inherit; font-family: &quot;Helvetica Neue&quot;, sans-serif; font-size: 16px; font-weight: 200;" fill="rgb(50, 49, 63)" stroke="none" stroke-width="1.3333333730697632px">3k</text><text x="156.18055555555557" y="0" dx="0em" dy="0.95em" style="text-anchor: middle; visibility: inherit; font-family: &quot;Helvetica Neue&quot;, sans-serif; font-size: 16px; font-weight: 200;" fill="rgb(50, 49, 63)" stroke="none" stroke-width="1.3333333730697632px">4k</text><text x="187.41666666666666" y="0" dx="0em" dy="0.95em" style="text-anchor: middle; visibility: inherit; font-family: &quot;Helvetica Neue&quot;, sans-serif; font-size: 16px; font-weight: 200;" fill="rgb(50, 49, 63)" stroke="none" stroke-width="1.3333333730697632px">5k</text><text x="218.65277777777777" y="0" dx="0em" dy="0.95em" style="text-anchor: middle; visibility: inherit; font-family: &quot;Helvetica Neue&quot;, sans-serif; font-size: 16px; font-weight: 200;" fill="rgb(50, 49, 63)" stroke="none" stroke-width="1.3333333730697632px">6k</text><text x="249.88888888888889" y="0" dx="0em" dy="0.95em" style="text-anchor: middle; visibility: inherit; font-family: &quot;Helvetica Neue&quot;, sans-serif; font-size: 16px; font-weight: 200;" fill="rgb(50, 49, 63)" stroke="none" stroke-width="1.3333333730697632px">7k</text><text x="281.125" y="0" dx="0em" dy="0.95em" style="text-anchor: middle; visibility: hidden; font-family: &quot;Helvetica Neue&quot;, sans-serif; font-size: 16px; font-weight: 200;" fill="rgb(50, 49, 63)" stroke="none" stroke-width="1.3333333730697632px">8k</text></g><line x1="0" y1="0" x2="281.125" y2="0" fill="rgb(0, 0, 0)" stroke="rgb(204, 204, 204)" stroke-width="1.3333333730697632px"></line></g></g></g></g></svg>