<svg viewBox="0 0 330 200" xmlns="http://www.w3.org/2000/svg"><g><g><g><g><g><line x1="48.875" y1="177.828125" x2="43.875" y2="177.828125" style="visibility: inherit;" fill="rgb(0, 0, 0)" stroke="rgb(204, 204, 204)" stroke-width="1.3333333730697632px"></line><line x1="48.875" y1="155.59960937499997" x2="43.875" y2="155.59960937499997" style="visibility: inherit;" fill="rgb(0, 0, 0)" stroke="rgb(204, 204, 204)" stroke-width="1.3333333730697632px"></line><line x1="48.875" y1="133.37109375000017" x2="43.875" y2="133.37109375000017" style="visibility: inherit;" fill="rgb(0, 0, 0)" stroke="rgb(204, 204, 204)" stroke-width="1.3333333730697632px"></line><line x1="48.875" y1="111.14257812500016" x2="43.875" y2="111.14257812500016" style="visibility: inherit;" fill="rgb(0, 0, 0)" stroke="rgb(204, 204, 204)" stroke-width="1.3333333730697632px"></line><line x1="48.875" y1="88.91406250000013" x2="43.875" y2="88.91406250000013" style="visibility: inherit;" fill="rgb(0, 0, 0)" stroke="rgb(204, 204, 204)" stroke-width="1.3333333730697632px"></line><line x1="48.875" y1="66.6855468750001" x2="43.875" y2="66.6855468750001" style="visibility: inherit;" fill="rgb(0, 0, 0)" stroke="rgb(204, 204, 204)" stroke-width="1.3333333730697632px"></line><line x1="48.875" y1="44.45703125000006" x2="43.875" y2="44.45703125000006" style="visibility: inherit;" fill="rgb(0, 0, 0)" stroke="rgb(204, 204, 204)" stroke-width="1.3333333730697632px"></line><line x1="48.875" y1="22.22851562500003" x2="43.875" y2="22.22851562500003" style="visibility: inherit;" fill="rgb(0, 0, 0)" stroke="rgb(204, 204, 204)" stroke-width="1.3333333730697632px"></line><line x1="48.875" y1="0" x2="43.875" y2="0" style="visibility: inherit;" fill="rgb(0, 0, 0)" stroke="rgb(204, 204, 204)" stroke-width="1.3333333730697632px"></line></g><g transform="translate(38.875, 0)"><text x="0" y="177.828125" dx="0em" dy="0.3em" style="text-anchor: end; visibility: hidden; font-family: &quot;Helvetica Neue&quot;, sans-serif; font-size: 16px; font-weight: 200;" fill="rgb(50, 49, 63)" stroke="none" stroke-width="1.3333333730697632px">0.92</text><text x="0" y="155.59960937499997" dx="0em" dy="0.3em" style="text-anchor: end; visibility: inherit; font-family: &quot;Helvetica Neue&quot;, sans-serif; font-size: 16px; font-weight: 200;" fill="rgb(50, 49, 63)" stroke="none" stroke-width="1.3333333730697632px">0.93</text><text x="0" y="133.37109375000017" dx="0em" dy="0.3em" style="text-anchor: end; visibility: hidden; font-family: &quot;Helvetica Neue&quot;, sans-serif; font-size: 16px; font-weight: 200;" fill="rgb(50, 49, 63)" stroke="none" stroke-width="1.3333333730697632px">0.94</text><text x="0" y="111.14257812500016" dx="0em" dy="0.3em" style="text-anchor: end; visibility: inherit; font-family: &quot;Helvetica Neue&quot;, sans-serif; font-size: 16px; font-weight: 200;" fill="rgb(50, 49, 63)" stroke="none" stroke-width="1.3333333730697632px">0.95</text><text x="0" y="88.91406250000013" dx="0em" dy="0.3em" style="text-anchor: end; visibility: hidden; font-family: &quot;Helvetica Neue&quot;, sans-serif; font-size: 16px; font-weight: 200;" fill="rgb(50, 49, 63)" stroke="none" stroke-width="1.3333333730697632px">0.96</text><text x="0" y="66.6855468750001" dx="0em" dy="0.3em" style="text-anchor: end; visibility: inherit; font-family: &quot;Helvetica Neue&quot;, sans-serif; font-size: 16px; font-weight: 200;" fill="rgb(50, 49, 63)" stroke="none" stroke-width="1.3333333730697632px">0.97</text><text x="0" y="44.45703125000006" dx="0em" dy="0.3em" style="text-anchor: end; visibility: hidden; font-family: &quot;Helvetica Neue&quot;, sans-serif; font-size: 16px; font-weight: 200;" fill="rgb(50, 49, 63)" stroke="none" stroke-width="1.3333333730697632px">0.98</text><text x="0" y="22.22851562500003" dx="0em" dy="0.3em" style="text-anchor: end; visibility: inherit; font-family: &quot;Helvetica Neue&quot;, sans-serif; font-size: 16px; font-weight: 200;" fill="rgb(50, 49, 63)" stroke="none" stroke-width="1.3333333730697632px">0.99</text><text x="0" y="0" dx="0em" dy="0.3em" style="text-anchor: end; visibility: hidden; font-family: &quot;Helvetica Neue&quot;, sans-serif; font-size: 16px; font-weight: 200;" fill="rgb(50, 49, 63)" stroke="none" stroke-width="1.3333333730697632px">1</text></g><line x1="48.875" y1="0" x2="48.875" y2="177.828125" fill="rgb(0, 0, 0)" stroke="rgb(204, 204, 204)" stroke-width="1.3333333730697632px"></line></g></g><g transform="translate(48, 0)" clip-path="url(#clip_0)"><clipPath id="clip_0"><rect width="281" height="177"></rect></clipPath><g><g><g><line x1="0" y1="0" x2="0" y2="177.828125" fill="rgb(0, 0, 0)" stroke="rgb(60, 60, 60)" stroke-width="1.3333333730697632px" opacity="0.25"></line><line x1="31.23611111111111" y1="0" x2="31.23611111111111" y2="177.828125" fill="rgb(0, 0, 0)" stroke="rgb(60, 60, 60)" stroke-width="1.3333333730697632px" opacity="0.25"></line><line x1="62.47222222222222" y1="0" x2="62.47222222222222" y2="177.828125" fill="rgb(0, 0, 0)" stroke="rgb(60, 60, 60)" stroke-width="1.3333333730697632px" opacity="0.25"></line><line x1="93.70833333333333" y1="0" x2="93.70833333333333" y2="177.828125" fill="rgb(0, 0, 0)" stroke="rgb(60, 60, 60)" stroke-width="1.3333333730697632px" opacity="0.25"></line><line x1="124.94444444444444" y1="0" x2="124.94444444444444" y2="177.828125" fill="rgb(0, 0, 0)" stroke="rgb(60, 60, 60)" stroke-width="1.3333333730697632px" opacity="0.25"></line><line x1="156.18055555555557" y1="0" x2="156.18055555555557" y2="177.828125" fill="rgb(0, 0, 0)" stroke="rgb(60, 60, 60)" stroke-width="1.3333333730697632px" opacity="0.25"></line><line x1="187.41666666666666" y1="0" x2="187.41666666666666" y2="177.828125" fill="rgb(0, 0, 0)" stroke="rgb(60, 60, 60)" stroke-width="1.3333333730697632px" opacity="0.25"></line><line x1="218.65277777777777" y1="0" x2="218.65277777777777" y2="177.828125" fill="rgb(0, 0, 0)" stroke="rgb(60, 60, 60)" stroke-width="1.3333333730697632px" opacity="0.25"></line><line x1="249.88888888888889" y1="0" x2="249.88888888888889" y2="177.828125" fill="rgb(0, 0, 0)" stroke="rgb(60, 60, 60)" stroke-width="1.3333333730697632px" opacity="0.25"></line><line x1="281.125" y1="0" x2="281.125" y2="177.828125" fill="rgb(0, 0, 0)" stroke="rgb(60, 60, 60)" stroke-width="1.3333333730697632px" opacity="0.25"></line></g><g><line x1="0" y1="177.828125" x2="281.125" y2="177.828125" fill="rgb(0, 0, 0)" stroke="rgb(60, 60, 60)" stroke-width="1.3333333730697632px" opacity="0.25"></line><line x1="0" y1="155.59960937499997" x2="281.125" y2="155.59960937499997" fill="rgb(0, 0, 0)" stroke="rgb(60, 60, 60)" stroke-width="1.3333333730697632px" opacity="0.25"></line><line x1="0" y1="133.37109375000017" x2="281.125" y2="133.37109375000017" fill="rgb(0, 0, 0)" stroke="rgb(60, 60, 60)" stroke-width="1.3333333730697632px" opacity="0.25"></line><line x1="0" y1="111.14257812500016" x2="281.125" y2="111.14257812500016" fill="rgb(0, 0, 0)" stroke="rgb(60, 60, 60)" stroke-width="1.3333333730697632px" opacity="0.25"></line><line x1="0" y1="88.91406250000013" x2="281.125" y2="88.91406250000013" fill="rgb(0, 0, 0)" stroke="rgb(60, 60, 60)" stroke-width="1.3333333730697632px" opacity="0.25"></line><line x1="0" y1="66.6855468750001" x2="281.125" y2="66.6855468750001" fill="rgb(0, 0, 0)" stroke="rgb(60, 60, 60)" stroke-width="1.3333333730697632px" opacity="0.25"></line><line x1="0" y1="44.45703125000006" x2="281.125" y2="44.45703125000006" fill="rgb(0, 0, 0)" stroke="rgb(60, 60, 60)" stroke-width="1.3333333730697632px" opacity="0.25"></line><line x1="0" y1="22.22851562500003" x2="281.125" y2="22.22851562500003" fill="rgb(0, 0, 0)" stroke="rgb(60, 60, 60)" stroke-width="1.3333333730697632px" opacity="0.25"></line><line x1="0" y1="0" x2="281.125" y2="0" fill="rgb(0, 0, 0)" stroke="rgb(60, 60, 60)" stroke-width="1.3333333730697632px" opacity="0.25"></line></g></g></g><g><g><line x1="0" y1="2222.8515625000014" x2="281.125" y2="2222.8515625000014" fill="rgb(0, 0, 0)" stroke="rgb(153, 153, 153)" stroke-width="2px"></line></g></g><g><g><line x1="31.23611111111111" y1="0" x2="31.23611111111111" y2="177.828125" fill="rgb(0, 0, 0)" stroke="rgb(153, 153, 153)" stroke-width="2px"></line></g></g><g><g><g><g><g><path stroke="rgb(255, 112, 67)" stroke-width="2.6666667461395264px" d="M40.403909722222224,177.94024315605782L40.91930555555555,167.27887998201106L41.13795833333334,160.7272056389701L41.26290277777778,156.77351855476908L41.34099305555556,154.29351065769845L41.37222916666666,152.66432217409192L41.559645833333335,151.43443780242188L41.715826388888885,150.5945411269401L42.38740277777778,148.88805021100495L42.512347222222225,147.782911399039L42.63729166666667,147.02135985188636L43.04336111111111,146.30050430653858L43.18392361111111,145.81616000047285L43.24639583333333,145.3739822511262L43.277631944444444,145.12240180154564L43.49628472222223,144.59533445365372L43.527520833333334,144.21094001725163L43.63684722222222,143.73280778053748L43.76179166666667,143.21809471765732L43.8555,142.611265248768L44.29280555555556,141.63664315146474L45.432923611111114,139.5310705319123L45.948319444444444,137.71846697345492L45.99517361111111,136.59062718594038L46.26068055555556,135.51655247394066L46.40124305555556,134.6567281999963L46.41686111111111,134.11369921714225L46.51056944444444,133.63609867401527L46.5261875,133.3418007991171L46.604277777777774,133.03802948751797L46.88540277777778,127.27254211527847L46.93225694444445,116.91146195827561L47.07281944444445,111.73222839902277L47.83810416666667,107.52044462361448L47.88495833333334,105.00434471896916L47.97866666666666,103.5519214401788L48.072375,102.73516028516899L48.150465277777776,102.16592620696667L48.306645833333334,101.5047083922387L48.400354166666666,100.92492637243322L48.47844444444445,100.42601596389083L49.29058333333334,101.25174114468761L49.36867361111111,101.60169973217262L49.38429166666667,101.82481811861902L49.665416666666665,102.04624004763795L49.86845138888889,102.173104554094L50.07148611111111,101.84543979223191L50.664972222222225,101.2582537002451L50.930479166666665,100.63475685091086L51.24284027777778,100.12567560871709L51.445875,99.65667839571985L51.78947222222222,99.10950055871261L51.836326388888885,98.77409227041959L52.05497916666667,98.42344900502897L52.11745138888889,98.22943909132728L52.86711805555556,97.89410290331698L52.976444444444446,97.66491882144547L53.32004166666667,97.31467877113286L53.50745833333333,97.16113544200947L53.66363888888889,97.06052993875808L54.13218055555556,96.80937775681666L54.303979166666664,96.5915393612771L54.42892361111112,96.42262555104425L54.52263194444445,96.2690223105516L55.02240972222222,91.04315558099844L55.08488194444445,87.55880987435033L55.47533333333333,84.66614719764542L55.72522222222222,82.80791473931748L55.74084027777778,81.79780315449341L55.97511111111111,80.64067432189276L56.03758333333333,79.94189228488828L56.30309027777778,79.31757801360688L56.84972222222222,79.07680665138705L56.974666666666664,78.90695831363406L57.28702777777778,78.79688778667138L57.50568055555555,78.72618174231636L57.64624305555555,78.63049622003936L57.73995138888889,78.62115310504853L57.818041666666666,78.65842173714084L57.927368055555554,78.79901902507932L58.067930555555556,78.99938763625886L58.28658333333333,79.16184734112001L58.31781944444444,79.20717420350579L58.36467361111111,79.27761580040189L58.50523611111111,79.37377861713705L59.05186805555555,79.41414631724551L59.42670138888889,79.64812871147804L59.75468055555555,79.83165763365999L60.035805555555555,79.98374854056726L60.17636805555556,80.01776642071403L60.379402777777784,80.06414563524564L60.42625694444444,80.08200974467597L60.551201388888884,80.07693513082361L61.17592361111111,80.01628272013754L61.441430555555556,80.01418027521308L61.597611111111114,79.9448707743951L61.644465277777776,79.93662013099136L61.956826388888885,79.83346646866522L62.206715277777775,79.73638432229356L62.48784027777778,74.25978383964939L62.67525694444444,73.27993114003785L62.94076388888889,72.34149795019934L63.03447222222222,71.28365887418734L63.409305555555555,70.10250427814037L63.612340277777776,69.55147733105986L63.659194444444445,69.19817848485721L63.6748125,69.00686797246807L63.79975694444445,68.76117929459652L63.862229166666665,68.88961501019335L63.97155555555556,68.89746247364366L64.73684027777777,68.56489860941947L64.7993125,68.37617166075101L64.90863888888889,68.31063271154757L65.04920138888889,68.37073154726498L65.3927986111111,68.63700943055085L65.45527083333333,68.8273553782319L65.58021527777778,69.13039094112004L65.70515972222222,69.47862257973365L65.76763194444445,69.66604481699177L66.07999305555555,69.76742180492496L66.15808333333334,69.94288031641261L66.17370138888889,70.0201200573288L66.25179166666666,70.10668855740987L66.43920833333334,70.01696891406539L66.4860625,69.97378950719157L66.56415277777778,69.91046604382474L66.86089583333333,69.88328333567061L67.11078472222222,70.01515307423763L67.26696527777779,70.1244831567096L67.45438194444444,70.07672081333186L67.86045138888889,70.07339593081481L68.00101388888889,70.04675743763924L68.54764583333333,70.2385222332793L68.56326388888888,70.3428227377082L68.5945,70.42135511060916L69.28169444444444,70.31881125737925L69.40663888888889,70.23767608833126L69.54720138888888,70.21300258763475L69.57843749999999,70.20153729261669L69.65652777777778,70.19328019591688L70.04697916666667,70.17449374409769L70.06259722222222,70.15437138885105L70.21877777777777,70.13169859348156L70.25001388888889,70.09387532788318L70.32810416666666,62.6383115886467L70.54675694444445,59.82441262573407L70.64046527777778,58.05440500796837L70.78102777777778,57.47456633457401L71.01529861111112,57.849805982612864L71.10900694444445,58.32583714862355L71.84305555555555,58.892127489460805L71.93676388888889,59.324328306936124L72.20227083333334,59.48698243155961L72.29597916666667,59.60810553486567L73.06126388888889,59.80791898659875L73.17059027777778,59.83797729330959L73.24868055555555,59.843822987781095L73.45171527777778,59.909972753394484L74.02958333333332,59.84154891410118L74.24823611111111,59.89790293314233L74.79486805555555,59.92546170905641L76.09116666666667,60.27683145898827L76.23172916666667,60.44769363797168L76.37229166666667,60.57999520940456L76.46600000000001,60.67055850050802L76.84083333333332,60.7074604914156L77.57488194444444,60.88753248106342L77.6998263888889,60.99822552040763L78.2620763888889,58.47266841552003L78.51196527777778,57.30912764852545L78.55881944444444,56.28088542903386L78.68376388888889,55.72806635978023L78.73061805555555,55.369293496651665L79.1054513888889,54.60816159435687L79.1679236111111,54.0388110199636L79.63646527777779,53.572339952755925L80.22995138888889,53.47466069282228L80.5110763888889,53.4065136928627L80.60478472222222,53.40272333066291L80.85467361111111,53.374268639255334L81.13579861111111,53.51883640329183L81.15141666666668,53.630697597578916L81.68243055555556,54.09921291888686L81.8386111111111,54.298070905631235L81.88546527777778,54.448176903032135L81.90108333333333,54.563202046604744L81.93231944444445,54.60868650421598L81.9479375,54.63343332704946L82.33838888888889,54.81241285445276L82.85378472222222,54.872050353985784L83.47850694444445,54.98239950763545L83.96266666666668,55.04118943226996L84.38435416666667,55.042068391741395L84.46244444444444,55.072274037645016L84.80604166666667,55.168408878338596L85.10278472222222,55.26260465450869L85.33705555555557,55.341115838320675L85.58694444444446,55.36977962354207L86.03986805555556,53.025435535680614L86.08672222222222,51.06935710859098L86.47717361111111,51.89994723663797L86.88324305555555,52.915551165885006L87.14874999999999,53.23714029611422L87.46111111111111,53.497399851359575L87.74223611111111,53.9861641986236L87.77347222222222,54.357540253955875L87.80470833333334,54.548991715779266L87.89841666666666,54.53910786412371L88.33572222222223,53.93394147922669L88.55437500000001,53.55541954715589L89.42898611111112,53.257767499228024L89.49145833333334,53.079865230315605L89.66325694444444,53.06459653754136L90.14741666666666,53.01664158294557L90.27236111111111,53.01129324489821L90.47539583333334,53.0563114311786L90.55348611111111,53.100705329790316L90.803375,53.05213905209419L90.88146527777778,53.02665607234306L90.91270138888889,53.03102813851382L91.06888194444444,52.973287896463646L91.13135416666667,52.92597748947853L91.58427777777777,53.136713308209025L91.77169444444444,53.24964058711461L92.58383333333333,53.31994080619107L92.75563194444445,53.37648310054735L93.02113888888888,53.431236263226694L93.45844444444444,53.421372650480805L93.8645138888889,53.64694499055534L94.05193055555556,54.230854250222436L94.22372916666667,53.88773522416807L94.27058333333333,53.49557966598893L95.1608125,51.82301010181904L95.23890277777778,50.804046262184784L95.25452083333333,50.15313226271739L95.4107013888889,49.8376804860775L96.55081944444444,50.413154847389194L96.72261805555556,50.8820282608812L96.7382361111111,51.18688293750863L96.76947222222222,51.31261207639898L96.8475625,51.31443685020358L96.86318055555556,51.32263330057479L97.25363194444445,51.578862523273884L97.33172222222223,51.82015095404462L97.3785763888889,51.99873604179409L97.50352083333333,52.095393706044476L97.81588194444444,52.24507296081231L97.8627361111111,52.35395940167227L97.87835416666667,52.429254685476536L98.112625,52.42567469753949L98.45622222222222,52.361414324957906L98.65925694444445,52.27092112852259L98.69049305555556,52.21100753808405L98.89352777777778,52.109502204779545L99.47139583333333,52.054746646485356L99.84622916666667,51.943510879979456L99.95555555555556,51.906235702652396L100.04926388888889,51.87676901016752L100.42409722222222,51.91812755365156L100.47095138888888,51.9623395492078L101.39241666666668,51.884886806946426L101.65792361111112,49.7745034553806L101.67354166666668,48.337941372138374L101.98590277777777,47.80893071777646L102.03275694444444,47.32363011076768L102.17331944444445,47.16017230233393L102.73556944444445,46.74061835448936L102.78242361111111,46.58279651226698L103.0323125,46.206689808947345L103.51647222222222,45.806559955586465L103.95377777777777,45.44872290708693L104.07872222222223,45.20736323169962L104.14119444444445,45.099857251887585L104.26613888888889,45.02062052271219L104.4379375,45.04462431520355L104.84400694444444,45.33143071379595L104.92209722222222,45.522116468750454L105.17198611111111,45.69047877723159L105.421875,45.75694217627773L105.54681944444445,45.75707253237405L105.68738194444445,45.76441132285359L105.82794444444446,45.899504979934875L105.99974305555556,46.0221637494038L106.01536111111112,46.09454008212958L106.20277777777777,46.055078712791214L106.23401388888888,46.02965299312186L106.8275,46.09548283531615L107.01491666666666,46.14589810432119L107.31165972222223,46.192046339056446L107.670875,46.19366079963248L107.98323611111111,46.165322184135164L108.73290277777778,46.09717699561716L108.87346527777778,46.067737215305385L108.92031944444444,46.074451926228505L108.95155555555556,46.07954069100427L109.74807638888889,45.11487035302903L109.79493055555555,44.19026330526094L110.10729166666667,43.346400926503094L110.13852777777778,42.79079637191745L110.15414583333333,42.41546008556821L110.26347222222223,42.18591256704772L110.54459722222221,41.84827970723393L110.98190277777778,41.48522534450933L111.29426388888889,41.38562883555758L111.41920833333333,41.48459667895648L111.90336805555556,41.70582995152108L112.168875,41.917323324967185L112.45,42.213067507826565L112.57494444444444,42.43206359585133L113.05910416666667,42.51650598542392L113.48079166666668,42.48518519768268L113.84000694444444,42.40072955217471L114.29293055555556,42.435010213376756L114.46472916666667,42.518326952850344L114.71461805555556,42.68374426892879L114.93327083333332,42.81558775890758L115.26124999999999,42.99957473997847L115.88597222222222,43.41189033120605L116.22956944444445,44.048277013479066L116.30765972222223,44.52205866361618L116.88552777777778,45.061507780685645L117.05732638888888,45.44591171105776L117.15103472222222,45.65138053650452L117.3696875,46.474380049137835L117.40092361111111,46.83664142334686L117.90070138888888,46.141656423139494L118.27553472222222,45.63631957219707L118.46295138888888,45.081382133866356L118.4941875,44.727114912602474L118.58789583333333,44.375914660384154L118.7753125,43.957552611330016L119.16576388888889,43.75200673162868L119.60306944444444,43.4245351022179L119.63430555555556,43.23027799483813L119.69677777777777,43.08372747872275L119.93104861111111,43.020493729630175L120.57138888888889,42.944183716531995L120.61824305555557,42.89935165307298L121.446,42.81039303208962L121.49285416666666,42.79162484245356L121.64903472222223,42.79859486609311L121.93015972222223,42.843902483297114L121.94577777777778,42.86727127601975L122.21128472222223,42.92824781489537L122.25813888888888,42.97580409881999L122.78915277777777,43.06300544977216L122.82038888888889,43.12825750665371L122.92971527777777,43.127184085251315L123.35140277777778,43.13263467718747L123.49196527777778,43.13659399219341L123.81994444444445,43.111146202865285L124.19477777777777,43.11315452228973L124.27286805555555,43.13916206834284L124.36657638888889,43.14830097281981L124.78826388888889,43.20810614939208L125.10062500000001,44.67570080893134L125.17871527777777,43.781603039275836L125.41298611111111,44.09669874517411L125.49107638888889,43.91477779095365L126.16265277777778,43.026411634393014L126.225125,42.455075173725334L126.55310416666667,41.78369244845197L126.58434027777778,41.30857502653569L126.83422916666666,41.038873677607796L126.86546527777777,40.88616833696139L126.95917361111111,40.769742578175055L126.99040972222222,40.70635274605834L127.27153472222223,40.77547860104974L127.63075,40.90556494941768L127.77131250000001,40.90984505817565L128.06805555555556,40.85422251503317L128.23985416666667,40.8711960547009L128.27109027777777,40.92939537996594L128.36479861111113,41.02086267927754L128.56783333333334,41.14108825026136L128.84895833333331,41.29165902129222L129.4580625,41.511578931570824L129.81727777777778,41.71979343282328L129.87975,41.90015690259446L129.89536805555556,42.00265131805713L130.00469444444445,42.11979472399872L130.2702013888889,42.223362827740004L130.442,42.368655843513835L130.6137986111111,42.43150607077945L130.723125,42.458298843450564L130.81683333333334,42.47792530009727L131.19166666666666,42.43739322282099L132.11313194444443,42.44492512003177L132.67538194444444,42.582996474351376L132.691,42.672993869943156L132.75347222222223,39.5441038199441L133.06583333333333,38.65971991647342L133.0814513888889,38.410821153843756L133.09706944444446,38.262435840665916L133.2220138888889,38.254171945288476L133.90920833333334,38.491409491827795L134.01853472222223,38.704661886814876L134.0653888888889,38.9241919862024L134.36213194444446,39.02586079723659L135.20550694444444,39.27410017080314L135.34606944444445,39.3793743401896L135.37730555555555,39.403957090534675L135.43977777777778,39.35972117867803L135.5334861111111,39.32888688176416L135.5803402777778,39.27662727123956L135.68966666666668,39.17568656063955L135.8146111111111,39.08994860150287L135.86146527777777,39.03124524919926L136.04888194444445,38.95362570893022L136.47056944444444,38.84499460186046L136.53304166666666,38.83530370354944L136.70484027777778,38.81565697076343L136.8766388888889,38.79406450253671L137.93866666666665,38.9111634414611L138.15731944444445,39.13400091189695L138.28226388888888,39.30246936784573L138.50091666666665,39.456918330901146L138.51653472222222,39.55817320833418L138.92260416666667,39.71230669216712L139.14125694444445,39.89731938926221L139.53170833333334,40.02401409320731L139.98463194444446,40.033307804488885L140.03148611111112,40.03798308376881L140.43755555555555,40.04841980653637L140.71868055555555,40.60489577132549L140.78115277777778,41.81773512093329L141.17160416666667,40.86188585551449L141.57767361111112,40.070505994696134L141.98374305555558,39.84587649554851L142.2180138888889,39.6296955405972L142.3429583333333,39.67466478664002L142.35857638888888,39.65681094746762L142.7021736111111,39.66623747018579L142.76464583333333,39.70591740074818L142.9832986111111,39.70359788190919L143.60802083333334,39.80025045615659L143.74858333333333,39.83964008490568L143.936,39.79299995802532L144.23274305555557,39.662837837279966L144.27959722222224,39.56900048223338L144.42015972222222,39.48572264145142L145.24791666666667,39.372318634385294L145.41971527777775,39.27327303714708L145.70084027777776,39.29471896515574L145.85702083333334,39.37982131180169L145.87263888888887,39.42394012443418L146.15376388888888,39.45062339965827L146.16938194444444,39.46461948217038L146.52859722222223,39.53852131380788L146.59106944444446,39.56802327768008L146.82534027777777,39.59208408533655L147.29388194444445,39.61404613130762L147.43444444444447,39.61630599520191L147.48129861111113,39.60001394213941L147.59062500000002,39.56336927636991L147.74680555555557,39.55479069541852L147.79365972222223,39.571001302024484L147.87175000000002,39.59455985978755L148.02793055555554,39.603024324956635L148.40276388888887,38.73503189045681L148.5433263888889,37.13262247094357L148.84006944444445,36.41755945897893L149.1055763888889,35.917134812537114L150.07389583333335,35.72716659668876L150.6205277777778,35.48323724114181L150.8860347222222,35.32119254212549L151.04221527777776,35.18474800849535L151.12030555555555,35.115176571694434L151.29210416666666,35.10364194894589L151.3858125,35.11209027951821L151.49513888888887,35.15531705385982L151.77626388888888,35.25672071988308L151.85435416666667,35.356780633717534L151.93244444444443,35.43271565535065L152.21356944444443,35.5612168342152L152.38536805555555,35.668366790132495L152.43222222222224,35.73032489959397L152.74458333333334,35.803166686446815L152.8695277777778,35.83123766978167L153.02570833333334,35.86170046593739L153.21312500000002,35.87335352974239L153.57234027777778,35.80551372954022L153.65043055555557,35.76004012741919L154.60313194444444,35.84309553507427L154.61875,35.894836668467434L155.11852777777779,36.2129126190666L155.79010416666668,36.730431149499054L155.91504861111113,37.06563882833527L156.03999305555556,37.280330644880564L156.05561111111112,37.40903974098549L156.58662500000003,37.88151616169563L156.75842361111108,38.188002673542684L156.94584027777776,38.175435031171844L157.2113472222222,37.99629044758015L158.14843055555556,37.592497967417444L158.5232638888889,37.463635869092L158.99180555555557,37.30862513841183L159.0542777777778,37.245614951690925L159.27293055555558,37.3516954533178L159.53843750000001,37.46537283838049L159.6321458333333,37.520224047818715L160.28810416666667,37.579898213591406L160.53799305555555,37.57203325830176L160.70979166666666,37.53238932070758L160.85035416666668,37.49906351415149L160.9752986111111,37.46142005881879L161.28765972222223,37.445193614951876L161.31889583333333,37.440969427387074L161.36575,37.4446885503591L161.39698611111112,37.45455157934185L161.49069444444444,37.44674319675451L161.80305555555557,37.402893449893014L161.84990972222224,37.37833249984266L161.928,37.35675932827948L162.0685625,37.321768710320214L163.16182638888887,37.224882762837524L163.4741875,37.15011016425956L163.48980555555556,37.106306543335336L163.52104166666666,37.08055433989179L163.73969444444444,37.05990932053683L163.80216666666666,37.02833742710277L163.94272916666668,36.99858292117602L163.95834722222222,36.990481649264126L164.0364375,37.03798183429208L164.11452777777777,36.3779460761873L164.3487986111111,36.33700392575125L164.83295833333335,37.224727463311126L165.020375,37.8575257478422L165.1297013888889,38.11202601452277L165.20779166666668,38.099375811872534L165.42644444444446,37.89760500798107L165.56700694444447,37.71103834351592L165.97307638888887,37.43968363622241L166.08240277777776,37.27517491069091L166.09802083333332,37.174243805105306L166.23858333333334,37.052632700157034L166.83206944444444,36.72358496271184L166.9570138888889,36.44072529953766L166.97263194444446,36.25447446536748L167.03510416666666,36.12682489153295L167.53488194444446,35.970527792925026L168.26893055555553,36.29876393691717L168.33140277777775,36.544197796976675L168.61252777777776,36.98802882757548L168.69061805555555,37.36212316312958L168.97174305555555,37.721933875433024L169.0185972222222,37.963417810880514L169.34657638888888,38.16596881143494L169.518375,38.28092779479016L169.89320833333332,38.313388313049785L170.00253472222224,38.33498450044962L170.26804166666668,38.36299333564449L170.29927777777777,38.38440936802786L170.34613194444444,38.41029622759041L170.67411111111113,38.44162142283858L170.70534722222223,38.46301338863174L170.78343750000002,38.47902838277395L170.95523611111113,38.54041536141233L171.14265277777778,38.63718705505906L171.40815972222225,38.67521723884818L171.68928472222223,38.72829658536432L171.78299305555555,38.77604326660693L171.9391736111111,39.14127465780237L172.2202986111111,39.61384472144033L172.23591666666667,39.92860194026616L172.65760416666666,39.71558069462591L172.7825486111111,39.62990049157304L172.93872916666666,39.3879154773951L173.11052777777778,39.22242665193386L173.43850694444444,38.96340066657618L173.71963194444444,38.709092839232824L174.2194097222222,38.39931930447935L174.32873611111108,38.15865637754089L175.140875,37.80078706343272L175.1721111111111,37.57249826572402L175.32829166666667,37.36535707679127L175.43761805555556,37.21775372254382L175.85930555555555,37.068192265309534L176.18728472222222,36.91623701732769L176.3434652777778,36.79432566009561L176.59335416666667,36.8352811953728L176.6245902777778,36.869075979072136L176.7339166666667,37.01527351008551L177.23369444444447,37.32181627466062L177.3117847222222,37.51586434342721L177.4835833333333,37.63345911673164L177.5616736111111,37.73925892660148L178.23325,37.778784208702376L178.28010416666666,37.77801480503078L178.5924652777778,37.74888183391792L178.68617361111112,37.69064742660797L178.70179166666668,37.65120204477765L179.1078611111111,37.56404451617172L179.2171875,37.53740050398463L180.201125,37.19781495744391L180.34168749999998,36.73718760137669L180.45101388888887,36.43266982793767L180.49786805555556,36.13193504283544L180.60719444444445,35.89123668384374L180.6540486111111,35.72371101520562L180.99764583333334,35.59849905344612L181.16944444444445,35.3950133576856L181.34124305555557,35.18420511103375L181.52865972222222,34.96698945122503L181.54427777777778,34.815249303251676L181.59113194444444,34.78705955104232L181.96596527777777,34.79971797611526L182.05967361111112,34.87345317622257L182.4188888888889,34.95118834410752L182.57506944444447,35.00037329657175L182.7000138888889,35.08574301235848L183.65271527777776,35.02991108139139L183.79327777777777,34.99434504327806L183.93384027777776,35.02335248596302L184.48047222222223,35.148393678035376L184.9177777777778,35.2642260148323L184.96463194444445,35.32884970108836L185.58935416666668,35.47314076285912L185.96418749999998,35.548957026966434L186.12036805555553,35.598421553764155L186.9793611111111,35.51473987698148L187.18239583333335,35.45016870800188L187.63531944444443,35.505548520742394L188.19756944444444,35.51609373043257L188.27565972222223,35.76207288827894L188.2912777777778,35.87579535678853L188.3225138888889,36.045570919578154L188.54116666666667,35.94467007535087L188.72858333333335,35.72747069957802L189.0877986111111,35.3060920383063L189.18150694444444,35.0958743580745L189.41577777777778,34.88272282189516L189.5094861111111,34.720701889433656L189.66566666666665,34.57568611613689L190.0405,34.44400025609451L190.30600694444445,34.23625924298665L190.64960416666668,33.99851922681631L191.1337638888889,33.80627010831665L191.24309027777778,33.67512755770653L191.4148888888889,33.572275435875014L191.6647777777778,33.524343359664186L191.72725000000003,33.46929764602797L191.83657638888891,33.48428541931048L191.91466666666665,33.49407303694659L192.570625,33.47085030332957L193.132875,33.39803709491795L193.57018055555557,33.334475328205286L193.60141666666667,33.308315570088155L193.61703472222223,33.29632949899559L193.64827083333333,33.30175112118374L193.74197916666668,33.28894603043085L193.88254166666667,33.29679107093378L193.97625,33.295562441191464L194.05434027777778,33.32826631425539L194.5072638888889,33.35239337553796L194.72591666666665,33.41901857283841L194.89771527777776,33.48596911897292L195.0538958333333,33.6515301383364L195.11636805555554,33.77773618388645L195.1319861111111,33.8540957741495L195.56929166666666,35.33125210352566L195.70985416666667,36.08791545658008L195.8347986111111,36.68601206971684L196.06906944444444,36.935961385270645L196.0846875,37.03833974842763L196.27210416666668,37.362048479397686L196.7562638888889,38.49214617124494L196.89682638888888,39.14847605279871L197.09986111111112,39.54449985199733L197.16233333333335,39.77866933229464L197.2404236111111,39.874070649119574L197.38098611111113,39.905236958949246L197.50593055555558,39.95207810464581L197.61525694444447,39.91208176128913L197.63087499999997,39.897093430163665L197.89638194444444,39.70356518700848L198.3649236111111,39.35023406699372L198.52110416666667,39.10060758809783L199.09897222222222,38.74377276905963L199.23953472222223,38.51499173325959L199.25515277777777,38.35832624231378L199.34886111111112,38.263426000257425L199.59875,38.107169643606255L199.70807638888888,37.93058165755298L200.14538194444447,37.64846713339634L200.161,37.47283878956924L200.30156250000002,37.347322957051944L200.37965277777778,37.25839325138668L200.55145138888886,37.1873874565884L200.69201388888888,37.14367104457608L200.91066666666666,37.0480682407277L201.08246527777777,37.009096486573355L201.50415277777776,36.90044140410728L201.55100694444445,36.828570743827896L201.69156944444444,36.75985083959495L202.08202083333333,36.69805609554493L202.14449305555556,36.65075084527106L202.28505555555554,36.64727624332758L202.50370833333335,36.61689113162973L202.59741666666667,36.58350294803387L202.62865277777777,36.550326803921564L203.15966666666668,34.29490541307567L203.253375,33.0770596864503L203.34708333333336,32.15418545079572L203.37831944444446,31.768620108350206L203.39393750000002,31.65578199612125L203.55011805555554,31.54811945780824L203.62820833333336,31.377210131137105L203.8468611111111,30.994999835214742L203.9874236111111,30.76646861132795L204.2373125,30.58228861993132L204.6277638888889,30.577350472021635L204.92450694444443,30.54841909683256L205.06506944444445,30.54452148714074L205.34619444444445,30.558081994658068L205.76788194444444,30.667177414830235L206.12709722222223,30.718590485489813L206.15833333333333,30.74127680357489L206.1739513888889,30.760930242292147L206.9704722222222,30.84130030849701L207.09541666666667,30.906375365952442L207.14227083333333,30.974621698446214L207.28283333333331,31.012548674009622L207.87631944444445,31.116708114810166L208.36047916666666,31.178885797823796L208.6728402777778,31.20548703158812L208.89149305555557,31.190444578848286L208.96958333333333,31.16917682073813L209.45374305555555,31.13150761765135L209.5786875,31.07541204797863L209.6099236111111,31.048644304619188L210.1409375,30.999301598427422L210.18779166666667,30.9721338326232L210.40644444444445,30.95858901251833L210.4532986111111,30.94267157452225L210.62509722222222,30.923581667725273L210.71880555555555,30.90343623022514L211.1561111111111,30.252895179600927L211.2029652777778,29.826532649672686L211.21858333333333,29.566793360294014L211.31229166666668,29.49653979810671L211.34352777777778,29.487351739503936L211.60903472222222,29.289937089218455L211.73397916666667,29.18590345886878L211.8745416666667,29.27977117151775L212.1088125,29.541560823475095L212.35870138888887,30.02578454692201L212.96780555555554,30.540230730423445L213.15522222222222,31.106092450134042L213.18645833333332,31.439196855716176L213.34263888888887,31.707319520573208L213.51443749999999,31.883986198997803L213.62376388888887,32.01314585620699L213.7330902777778,32.07850535788873L213.7643263888889,32.111679411031304L214.02983333333333,32.08876233874096L214.3265763888889,31.882686304954262L214.8888263888889,31.745950447638478L215.04500694444445,31.681291920092633L215.31051388888886,31.681290542496356L215.40422222222222,31.681024731383104L215.5447847222222,31.705190826913963L216.01332638888888,31.725838125920944L216.37254166666668,31.71437789532652L216.3881597222222,31.70410995465872L216.66928472222222,31.693709437369307L217.10659027777777,31.59832832251118L217.18468055555556,31.53389207368579L217.38771527777777,31.46035835688116L217.60636805555558,31.405797735309932L217.7313125,31.357321279767888L217.8094027777778,31.312654314576804L217.8406388888889,31.281296401106857L217.85625694444445,31.256016029869755L218.16861805555558,31.221344943839455L218.24670833333332,31.20637195244305L218.4653611111111,31.158594418673914L218.62154166666664,31.114240812724375L218.69963194444443,29.415046134570616L218.80895833333332,29.58530998206416L219.1057013888889,29.56154762976638L219.29311805555554,29.539022700254662L219.83975,29.094536861413417L219.9803125,28.766421938134158L220.72997916666668,28.795266828577468L220.80806944444444,28.779821671778365L221.04234027777775,28.810090273385782L221.21413888888887,28.80244193864067L221.2766111111111,28.782112855194242L221.5265,28.70722005928488L221.7295347222222,28.693817543848752L222.04189583333334,28.70814073107499L222.18245833333333,28.676986960079518L222.30740277777778,28.694756572325048L222.61976388888888,28.598894548344134L222.8696527777778,28.603489713774678L223.1820138888889,28.58133826481196L223.22886805555555,28.566192503545636L223.47875694444446,28.595739794983842L223.72864583333333,28.627141372912718L223.90044444444445,28.642166542070328L224.83752777777778,28.591719109301266L224.97809027777777,28.58243742643853L224.99370833333333,28.576338447609743L225.46225,28.673585179063082L225.75899305555555,28.834853219307888L225.8058472222222,28.949579996320608L226.14944444444444,29.162620657654315L226.8366388888889,30.880140400064988L227.16461805555554,31.60242221050453L227.2583263888889,31.98046252157087L227.2895625,32.29960732736177L227.61754166666665,32.44286702172741L227.96113888888888,32.593161088432566L228.4140625,32.639933058257725L229.13249305555556,33.119953898086294L229.38238194444446,33.346860963475365L229.5697986111111,33.43218116495564L230.49126388888888,33.66393376199056L230.74115277777778,33.82142824527702L231.2253125,34.10427595732847L231.35025694444445,34.349876161266735L231.67823611111112,34.52829247353944L232.0686875,34.947229082776545L232.1467777777778,35.238603716205574L232.3498125,35.55387031070066L232.55284722222223,35.838742688859554L232.64655555555558,36.036164571309115L233.30251388888888,36.12917918344678L233.31813194444445,36.20247693139521L233.3962222222222,36.26055275851911L233.63049305555555,36.38146523843383L234.53634027777778,34.33297034999836L234.80184722222222,33.517143329760955L235.22353472222224,33.65094378916547L235.23915277777778,33.64600503174594L235.36409722222223,33.63371432093899L235.5515138888889,33.868906756598676L235.59836805555557,33.99550106435066L235.73893055555558,33.98666259122797L235.97320138888887,33.92205596382405L236.0356736111111,33.93867375949003L236.06690972222222,33.97895867004391L236.30118055555553,33.991682283576665L236.58230555555554,34.27426442652714L236.86343055555554,34.439626956319984L237.09770138888888,34.535929644084746L237.25388194444446,34.598162997276745L237.30073611111112,34.605400763682326L237.48815277777777,34.514825955730316L237.50377083333333,34.46339590107007L237.56624305555556,34.42411135940773L238.0035486111111,34.247008582928714L238.40961805555557,33.932469056385145L238.92501388888888,33.67755219848436L239.15928472222222,33.458938910880704L239.72153472222223,33.178213655170026L239.799625,32.98550591645605L240.54929166666668,32.77040607107716L240.6117638888889,32.629050880472676L240.924125,32.52828569586629L241.67379166666666,32.35907692350804L241.68940972222225,32.250450074004135L242.09547916666665,32.05808137764146L242.1423333333333,33.46568539125991L242.79829166666667,31.23727490571622L243.04818055555555,30.056781489804393L243.59481250000002,29.34239079547993L243.82908333333333,28.823555636178497L243.95402777777778,28.451679071200516L244.03211805555557,28.182445819549145L244.0477361111111,28.018785992114374L244.56313194444442,27.77723345110485L244.8286388888889,27.63161296665473L244.87549305555555,27.506930850564174L244.92234722222221,27.445582796331536L245.12538194444443,27.412006775369605L245.54706944444445,27.399969690192023L245.82819444444445,27.435091971061212L245.93752083333334,27.400359592185424L246.04684722222223,27.39960599416986L246.39044444444446,27.423267429915143L246.71842361111112,27.46428072838313L246.92145833333333,27.526092539062006L247.4680902777778,27.595189759779032L247.82730555555554,27.630447453609605L247.8741597222222,27.6441295054413L248.07719444444444,27.656896470895646L248.13966666666667,27.66508661927952L248.233375,27.675406393243037L248.9049513888889,27.670044930999182L248.92056944444445,27.673293676808214L249.2173125,27.675454911938346L249.26416666666668,27.670498017505338L249.3891111111111,27.671445652267494L249.40472916666667,27.678797837746913L249.42034722222223,27.67695551352358L249.51405555555556,27.671610366100907L249.8264166666667,27.641268859159965L249.8576527777778,27.624282883950826L250.1387777777778,27.387423510014543L250.91968055555554,26.916091073846474L251.13833333333332,26.787406629649155L251.23204166666667,26.708076086686503L251.76305555555555,26.595768532445476L252.40339583333335,26.56765471103222L252.8407013888889,26.520578178852446L253.26238888888886,26.451895616368688L253.34047916666665,26.386890465790742L253.43418749999998,26.346138477377423L253.79340277777777,26.360799004727596L254.18385416666666,26.344633776005566L254.37127083333334,26.326879108283663L254.38688888888888,26.32470581342787L254.48059722222223,26.303686985581948L254.62115972222222,26.269505946053357L254.88666666666666,26.29685353306749L255.07408333333333,26.303934628920587L255.16779166666666,26.302830598410594L255.4801527777778,26.299147356171403L255.54262500000002,26.29810334287231L255.91745833333334,26.242466141161998L255.94869444444444,26.198378444092242L256.08925694444446,26.15199898727343L256.87015972222224,26.153478605025413L257.24499305555554,26.1878604234968L257.26061111111113,26.212676270557324L257.60420833333336,26.23328944519335L258.1508402777778,25.938116274812273L258.1664583333333,25.723331568785483L258.54129166666667,25.38236710691342L258.5725277777778,25.179166349479004L258.58814583333333,25.05671592590727L259.0566875,25.077951151915045L259.4471388888889,25.267436986066485L259.49399305555556,25.395013677267883L259.5252291666667,25.450996890478592L259.7595,25.494868219159997L259.8532083333333,25.529140553035035L260.16556944444443,25.60863651851264L260.32175,25.620773170445403L260.33736805555554,25.61591886896136L260.4623125,25.63441704015878L260.52478472222225,25.615307703545284L260.6184930555555,25.582749330956034L260.8683819444444,25.563002319758283L261.53995833333335,25.543522557839736L261.727375,25.56294388750942L261.8991736111111,25.56712412084471L262.0553541666667,25.562159696380007L262.0709722222222,25.554888291901108L262.1334444444444,25.5558251403248L262.1959166666667,25.558454128912047L262.2583888888889,25.54397345799876L262.5238958333333,25.5437645612281L262.6176041666667,25.570137678720045L262.6800763888889,25.588187419481415L262.7113125,25.588523875539067L263.1017638888889,25.58766581095128L263.3985069444445,25.601248150553573L263.50783333333334,25.639870778202095L263.52345138888893,25.66087148143606L263.7733402777778,25.751907331817023L263.82019444444444,25.807058811156622L264.3199722222222,25.880215363558136L264.3355902777778,25.92739510348784L264.3512083333333,25.9525761296903L264.7260416666667,26.03552079163083L264.94469444444445,26.107122316171626L265.4913263888889,26.182994312694802" style="fill: none;" fill="none"></path></g></g></g></g><g opacity="0.20000000298023224"><g><g><g><path stroke="rgb(255, 112, 67)" stroke-width="2.6666667461395264px" d="M38.639069444444445,402.86502926610433L39.60738888888889,165.68676055176192L40.02907638888889,158.52595041506L40.27896527777778,157.5706810923294L40.38829166666667,157.2723084827886L40.403909722222224,157.18645348679283L40.91930555555555,151.2868373421953L41.13795833333334,150.89969490654775L41.26290277777778,150.84298821166166L41.34099305555556,150.57349891867497L41.37222916666666,150.2205394906924L41.559645833333335,149.58961126394578L41.715826388888885,149.33469612151393L42.38740277777778,146.32831384660685L42.512347222222225,146.12520318478354L42.63729166666667,145.8790325326846L43.04336111111111,145.2192209893838L43.18392361111111,145.08964354172355L43.24639583333333,144.71071562729782L43.277631944444444,144.74503112724057L43.49628472222223,143.80473343189811L43.527520833333334,143.6343483626843L43.63684722222222,143.01560942549264L43.76179166666667,142.4460251233541L43.8555,141.70102104544645L44.29280555555556,140.17471000552183L45.432923611111114,136.37271160259849L45.948319444444444,134.9995616357774L45.99517361111111,134.89886750467127L46.26068055555556,133.90544040594256L46.40124305555556,133.36699178908026L46.41686111111111,133.2991557428614L46.51056944444444,132.91969785932457L46.5261875,132.90035398676997L46.604277777777774,132.582372520119L46.88540277777778,118.62431105691945L46.93225694444445,101.36984172277157L47.07281944444445,103.96337806014348L47.83810416666667,101.20276896050204L47.88495833333334,101.23019486200069L47.97866666666666,101.37328652199362L48.072375,101.51001855265353L48.150465277777776,101.31207508966331L48.306645833333334,100.51288167014722L48.400354166666666,100.05525334272538L48.47844444444445,99.67765035107736L49.29058333333334,102.4903289158829L49.36867361111111,102.12663761340086L49.38429166666667,102.15949569828813L49.665416666666665,102.3783729411662L49.86845138888889,102.36340131377806L50.07148611111111,101.35394264943902L50.664972222222225,100.37747456226502L50.930479166666665,99.69951157690961L51.24284027777778,99.36205374542628L51.445875,98.95318257622425L51.78947222222222,98.28873380320151L51.836326388888885,98.27097983798016L52.05497916666667,97.89748410694305L52.11745138888889,97.93842422077437L52.86711805555556,97.3910986213014L52.976444444444446,97.32114269863818L53.32004166666667,96.78931869566445L53.50745833333333,96.93082044832413L53.66363888888889,96.90962168388073L54.13218055555556,96.43264948390429L54.303979166666664,96.26478176796813L54.42892361111112,96.16925483569507L54.52263194444445,96.03861744981263L55.02240972222222,83.20435548666869L55.08488194444445,82.33229131437842L55.47533333333333,80.32715318258856L55.72522222222222,80.02056605182592L55.74084027777778,80.28263577725743L55.97511111111111,78.90498107299213L56.03758333333333,78.89371922938157L56.30309027777778,78.38110660668467L56.84972222222222,78.71564960805703L56.974666666666664,78.65218580700461L57.28702777777778,78.63178199622784L57.50568055555555,78.62012267578397L57.64624305555555,78.48696793662388L57.73995138888889,78.6071384325624L57.818041666666666,78.71432468527932L57.927368055555554,79.00991495698695L58.067930555555556,79.29994055302818L58.28658333333333,79.40553689841185L58.31781944444444,79.27516449708496L58.36467361111111,79.38327819574629L58.50523611111111,79.51802284223963L59.05186805555555,79.47469786740844L59.42670138888889,79.99910230282698L59.75468055555555,80.10695101693277L60.035805555555555,80.21188490092759L60.17636805555556,80.06879324093465L60.379402777777784,80.13371445704256L60.42625694444444,80.10880590882157L60.551201388888884,80.06932321004574L61.17592361111111,79.9253041041084L61.441430555555556,80.0110266078264L61.597611111111114,79.84090652316813L61.644465277777776,79.92424416588624L61.956826388888885,79.67873597517614L62.206715277777775,79.59076110273604L62.48784027777778,66.0448831156828L62.67525694444444,71.81015209062029L62.94076388888889,70.93384816544135L63.03447222222222,69.6969002601691L63.409305555555555,68.3307723840699L63.612340277777776,68.72493691043933L63.659194444444445,68.66823021555324L63.6748125,68.71990220388402L63.79975694444445,68.39264627778907L63.862229166666665,69.08226858358834L63.97155555555556,68.90923366881911L64.73684027777777,68.06605281308298L64.7993125,68.09308123774831L64.90863888888889,68.21232428774242L65.04920138888889,68.46087980084125L65.3927986111111,69.0364262554795L65.45527083333333,69.1128742997535L65.58021527777778,69.58494428545241L65.70515972222222,70.00097003765408L65.76763194444445,69.94717817287896L66.07999305555555,69.91948728682478L66.15808333333334,70.20606808364396L66.17370138888889,70.13597966870297L66.25179166666666,70.23654130753134L66.43920833333334,69.88238944904883L66.4860625,69.90902039688085L66.56415277777778,69.81548084877436L66.86089583333333,69.84250927343969L67.11078472222222,70.21295768208806L67.26696527777779,70.28847828041766L67.45438194444444,70.005077298265L67.86045138888889,70.06840860703964L68.00101388888889,70.00679969787602L68.54764583333333,70.52616942673926L68.56326388888888,70.4992734943517L68.5945,70.53915366996084L69.28169444444444,70.16499547753487L69.40663888888889,70.11597333475952L69.54720138888888,70.17599233658989L69.57843749999999,70.18433935008947L69.65652777777778,70.18089455086742L70.04697916666667,70.14631406636913L70.06259722222222,70.12418785598133L70.21877777777777,70.09768940042709L70.25001388888889,70.03714042948563L70.32810416666666,51.45496597979219L70.54675694444445,55.60356418136509L70.64046527777778,55.399393581319615L70.78102777777778,56.604808324482306L71.01529861111112,58.4126654546708L71.10900694444445,59.039883897639825L71.84305555555555,59.74156300071631L71.93676388888889,59.972629533149345L72.20227083333334,59.73096361849461L72.29597916666667,59.78979018982504L73.06126388888889,60.10763916419823L73.17059027777778,59.88306475337599L73.24868055555555,59.852591529488606L73.45171527777778,60.009197401814205L74.02958333333332,59.73891315516089L74.24823611111111,59.982433961704416L74.79486805555555,59.96679987292741L76.09116666666667,60.80388608388607L76.23172916666667,60.70398690644656L76.37229166666667,60.77844756655399L76.46600000000001,60.80640343716372L76.84083333333332,60.76281347777699L77.57488194444444,61.157640465535266L77.6998263888889,61.16426507942383L78.2620763888889,54.68433275818826L78.51196527777778,55.56381649803372L78.55881944444444,54.7385220997967L78.68376388888889,54.89883775589989L78.73061805555555,54.83113420195879L79.1054513888889,53.466463740915074L79.1679236111111,53.18478515837343L79.63646527777779,52.8726333519444L80.22995138888889,53.328141802921905L80.5110763888889,53.30429319292308L80.60478472222222,53.39703778736295L80.85467361111111,53.33158660214396L81.13579861111111,53.73568804934622L81.15141666666668,53.79848938900979L81.68243055555556,54.80198590084912L81.8386111111111,54.59635788574816L81.88546527777778,54.67333589913325L81.90108333333333,54.7357397619635L81.93231944444445,54.67691319063307L81.9479375,54.67055356130005L82.33838888888889,55.08088214555757L82.85378472222222,54.961506603285684L83.47850694444445,55.14792323810981L83.96266666666668,55.12937431922184L84.38435416666667,55.04338683094831L84.46244444444444,55.1175825065002L84.80604166666667,55.312611139379456L85.10278472222222,55.40389831876384L85.33705555555557,55.4588826140389L85.58694444444446,55.41277530137451L86.03986805555556,49.508919403888314L86.08672222222222,48.135239467956154L86.47717361111111,53.14583242870869L86.88324305555555,54.438957059755936L87.14874999999999,53.71952399145813L87.46111111111111,53.8877891842276L87.74223611111111,54.71931071951987L87.77347222222222,54.91460433695467L87.80470833333334,54.8361689085141L87.89841666666666,54.52428208664061L88.33572222222223,53.02619190188126L88.55437500000001,52.98763664904983L89.42898611111112,52.81128942733632L89.49145833333334,52.813011826947346L89.66325694444444,53.041693498380496L90.14741666666666,52.94470915105195L90.27236111111111,53.00327073782684L90.47539583333334,53.12383871059866L90.55348611111111,53.16729617770763L90.803375,52.979289635550245L90.88146527777778,52.98843160271646L90.91270138888889,53.03758623776959L91.06888194444444,52.88667753338815L91.13135416666667,52.85501187900083L91.58427777777777,53.45281703630464L91.77169444444444,53.41903150547297L92.58383333333333,53.42539113480599L92.75563194444445,53.461296542081996L93.02113888888888,53.51336600724609L93.45844444444444,53.406577231362476L93.8645138888889,53.98530350066723L94.05193055555556,55.10671813972296L94.22372916666667,53.373056685086354L94.27058333333333,52.907346328720465L95.1608125,49.3141557555646L95.23890277777778,49.27560050273317L95.25452083333333,49.17676126351583L95.4107013888889,49.36450282111767L96.55081944444444,51.27636638935657L96.72261805555556,51.58533838111909L96.7382361111111,51.644164952449515L96.76947222222222,51.50120578473435L96.8475625,51.31717401091011L96.86318055555556,51.33492797613145L97.25363194444445,51.96320635732265L97.33172222222223,52.18208360020073L97.3785763888889,52.266613673418775L97.50352083333333,52.24038020242007L97.81588194444444,52.469591842964306L97.8627361111111,52.51728906296195L97.87835416666667,52.54219761118294L98.112625,52.42030471563341L98.45622222222222,52.26502376608552L98.65925694444445,52.13518133386971L98.69049305555556,52.12113715242596L98.89352777777778,51.95724420482294L99.47139583333333,51.972613309044405L99.84622916666667,51.77665723022075L99.95555555555556,51.850322936661556L100.04926388888889,51.83256897144021L100.42409722222222,51.980165368877365L100.47095138888888,52.02865754254164L101.39241666666668,51.768707693554475L101.65792361111112,46.60892842803153L101.67354166666668,46.183098247274785L101.98590277777777,47.01541473623368L102.03275694444444,46.59567920025441L102.17331944444445,46.914985589683084L102.73556944444445,46.111287432722776L102.78242361111111,46.3460637489334L103.0323125,45.64252975396815L103.51647222222222,45.206365175545244L103.95377777777777,44.91196733433756L104.07872222222223,44.84532371861863L104.14119444444445,44.93859828216958L104.26613888888889,44.901765428949176L104.4379375,45.08063000394034L104.84400694444444,45.76164031168449L104.92209722222222,45.80814510118219L105.17198611111111,45.94302223995331L105.421875,45.85663727484646L105.54681944444445,45.75726806651804L105.68738194444445,45.775419508572696L105.82794444444446,46.10214546555656L105.99974305555556,46.20615190360698L106.01536111111112,46.20310458121824L106.20277777777777,45.99588665878403L106.23401388888888,45.99151441361758L106.8275,46.19422759860757L107.01491666666666,46.22152100782844L107.31165972222223,46.26126869115981L107.670875,46.196082490496366L107.98323611111111,46.12281426088887L108.73290277777778,45.99495921283963L108.87346527777778,46.02357754483822L108.92031944444444,46.084523992612986L108.95155555555556,46.08717383816841L109.74807638888889,43.66786484606567L109.79493055555555,42.803352733608364L110.10729166666667,42.08060735836628L110.13852777777778,41.95738954003903L110.15414583333333,41.852455656044214L110.26347222222223,41.84159128926697L110.54459722222221,41.341830417513876L110.98190277777778,40.94064380042258L111.29426388888889,41.2362340721302L111.41920833333333,41.63304844405505L111.90336805555556,42.0376798603684L112.168875,42.234563385136454L112.45,42.65668378211561L112.57494444444444,42.760557727888255L113.05910416666667,42.64316956978294L113.48079166666668,42.43820401607084L113.84000694444444,42.27404608391228L114.29293055555556,42.48643120517957L114.46472916666667,42.64330206206071L114.71461805555556,42.93187024304646L114.93327083333332,43.01335299387577L115.26124999999999,43.27555521158504L115.88597222222222,44.03036371804777L116.22956944444445,45.00285703688863L116.30765972222223,45.23273113882172L116.88552777777778,45.870681456290214L117.05732638888888,46.02251760661605L117.15103472222222,45.95958377467471L117.3696875,47.70887931808832L117.40092361111111,47.38003348466012L117.90070138888888,45.099178922828315L118.27553472222222,44.87831429578367L118.46295138888888,44.2489759763703L118.4941875,44.19571408070627L118.58789583333333,43.84911428205672L118.7753125,43.33000953774902L119.16576388888889,43.44368791207674L119.60306944444444,42.933327658101945L119.63430555555556,42.93889233376834L119.69677777777777,42.86390170454982L119.93104861111111,42.92564310599121L120.57138888888889,42.82971869688484L120.61824305555557,42.83210355788472L121.446,42.676955100614606L121.49285416666666,42.76347255799922L121.64903472222223,42.80904990155253L121.93015972222223,42.911863909103005L121.94577777777778,42.902324465103476L122.21128472222223,43.01971262320879L122.25813888888888,43.047138524707435L122.78915277777777,43.19380747620019L122.82038888888889,43.22613559197637L122.92971527777777,43.125573953148006L123.35140277777778,43.1408105650917L123.49196527777778,43.142532964702724L123.81994444444445,43.072974518872826L124.19477777777777,43.11616700142625L124.27286805555555,43.178173387423186L124.36657638888889,43.162009329535096L124.78826388888889,43.29781391425061L125.10062500000001,46.87709279824051L125.17871527777777,42.44045638479295L125.41298611111111,44.56934230402115L125.49107638888889,43.64189635962251L126.16265277777778,41.693862399552046L126.225125,41.59807048272344L126.55310416666667,40.77661836054179L126.58434027777778,40.595898893661825L126.83422916666666,40.63432165421548L126.86546527777777,40.657110325992136L126.95917361111111,40.5951039399952L126.99040972222222,40.61126799788329L127.27153472222223,40.879167383536725L127.63075,41.10069447197023L127.77131250000001,40.91626522131267L128.06805555555556,40.770788700319855L128.23985416666667,40.89665636420253L128.27109027777777,41.016694367863266L128.36479861111113,41.15806362824517L128.56783333333334,41.321426606737106L128.84895833333331,41.51751517783853L129.4580625,41.8414587969892L129.81727777777778,42.03211518470201L129.87975,42.17070210725072L129.89536805555556,42.156392941251426L130.00469444444445,42.29550983291122L130.2702013888889,42.37871498335156L130.442,42.586595367174624L130.6137986111111,42.52578141167763L130.723125,42.49848800245675L130.81683333333334,42.507364985067426L131.19166666666666,42.37659510690722L132.11313194444443,42.45622296584773L132.67538194444444,42.79010350583124L132.691,42.80798996333036L132.75347222222223,34.850768744945555L133.06583333333333,37.333144061267404L133.0814513888889,38.03747300989929L133.09706944444446,38.03985787089917L133.2220138888889,38.24177610222253L133.90920833333334,38.84726581163707L134.01853472222223,39.024540479294984L134.0653888888889,39.25348713528368L134.36213194444446,39.17836401378739L135.20550694444444,39.64645923115316L135.34606944444445,39.53728559426966L135.37730555555555,39.4408312160522L135.43977777777778,39.29336731089282L135.5334861111111,39.28263543639335L135.5803402777778,39.19823785545307L135.68966666666668,39.02427549473944L135.8146111111111,38.961341662798105L135.86146527777777,38.943190220743446L136.04888194444445,38.83719639852646L136.47056944444444,38.68204794125634L136.53304166666666,38.820767356082825L136.70484027777778,38.78618687158453L136.8766388888889,38.761675800196855L137.93866666666665,39.086811849847464L138.15731944444445,39.46825711755085L138.28226388888888,39.55517205176878L138.50091666666665,39.68859177548441L138.51653472222222,39.71005552448335L138.92260416666667,39.94350691791627L139.14125694444445,40.17483843490484L139.53170833333334,40.21405614912513L139.98463194444446,40.04724837141114L140.03148611111112,40.04499600268903L140.43755555555555,40.06407489068809L140.71868055555555,41.43960971850905L140.78115277777778,43.63699414534497L141.17160416666667,39.428111957386164L141.57767361111112,38.88343620346862L141.98374305555558,39.50893224682662L142.2180138888889,39.30542410817L142.3429583333333,39.74211865570399L142.35857638888888,39.630030188709526L142.7021736111111,39.680377254262595L142.76464583333333,39.76543729659173L142.9832986111111,39.70011860365051L143.60802083333334,39.94522931752729L143.74858333333333,39.89872452802959L143.936,39.72303976770493L144.23274305555557,39.46759465616199L144.27959722222224,39.428244449663936L144.42015972222222,39.36080588027838L145.24791666666667,39.20221262378621L145.41971527777775,39.12470464129004L145.70084027777776,39.32688785716894L145.85702083333334,39.507474831771134L145.87263888888887,39.4901183433831L146.15376388888888,39.49064831249419L146.16938194444444,39.48561360593888L146.52859722222223,39.649374061264126L146.59106944444446,39.61227622348818L146.82534027777777,39.62817529682073L147.29388194444445,39.646989200264244L147.43444444444447,39.61969579104337L147.48129861111113,39.57557586254555L147.59062500000002,39.50840227771553L147.74680555555557,39.541922823991655L147.79365972222223,39.59531721193346L147.87175000000002,39.629897696431755L148.02793055555554,39.61572102271023L148.40276388888887,37.433043238706915L148.5433263888889,34.72900834167379L148.84006944444445,35.34496494103226L149.1055763888889,35.166497842874406L150.07389583333335,35.442214272916345L150.6205277777778,35.11734320782128L150.8860347222222,35.07812549360099L151.04221527777776,34.98008120805028L151.12030555555555,35.010819416493206L151.29210416666666,35.08634001482281L151.3858125,35.12476277537647L151.49513888888887,35.220157215371756L151.77626388888888,35.408826218917994L151.85435416666667,35.50687050446871L151.93244444444443,35.54661818780008L152.21356944444443,35.75396860251206L152.38536805555555,35.82909172400835L152.43222222222224,35.823262063786416L152.74458333333334,35.91242936672646L152.8695277777778,35.87334414478394L153.02570833333334,35.90739466017115L153.21312500000002,35.890833125449745L153.57234027777778,35.70375402923676L153.65043055555557,35.69182972423735L154.60313194444444,35.96767864655706L154.61875,35.972448368556826L155.11852777777779,36.69002654496583L155.79010416666668,37.50670894514772L155.91504861111113,37.56845034658912L156.03999305555556,37.60236836969855L156.05561111111112,37.60210338514301L156.58662500000003,38.59023079276088L156.75842361111108,38.64773244131359L156.94584027777776,38.15658356761563L157.2113472222222,37.72757357219237L158.14843055555556,36.9868092471734L158.5232638888889,37.27034272160384L158.99180555555557,37.07610904239121L159.0542777777778,37.15109967160973L159.27293055555558,37.51081620575863L159.53843750000001,37.635888915974675L159.6321458333333,37.602500861976324L160.28810416666667,37.6694094622508L160.53799305555555,37.5602358253673L160.70979166666666,37.47292341431606L160.85035416666668,37.449074804317235L160.9752986111111,37.40495487581941L161.28765972222223,37.42085394915196L161.31889583333333,37.43463314604017L161.36575,37.450267234817176L161.39698611111112,37.46934612281623L161.49069444444444,37.435030622873484L161.80305555555557,37.33711882960054L161.84990972222224,37.34149107476699L161.928,37.3243995709345L162.0685625,37.26928278338167L163.16182638888887,37.07955384161326L163.4741875,37.037951266393094L163.48980555555556,37.04060111194852L163.52104166666666,37.04192603472623L163.73969444444444,37.02894179150465L163.80216666666666,36.98097958695146L163.94272916666668,36.95395116228613L163.95834722222222,36.97832974139604L164.0364375,37.10923211183402L164.11452777777777,35.38789243903014L164.3487986111111,36.27559070009741L164.83295833333335,38.55631276965144L165.020375,38.806723174639075L165.1297013888889,38.49377641454342L165.20779166666668,38.08040050789717L165.42644444444446,37.594948802143364L165.56700694444447,37.43118834681812L165.97307638888887,37.032651575282244L166.08240277777776,37.028411822393565L166.09802083333332,37.02284714672717L166.23858333333334,36.87021604273471L166.83206944444444,36.230013356544106L166.9570138888889,36.016435804776876L166.97263194444446,35.97509821411225L167.03510416666666,35.93535053078088L167.53488194444446,35.736082145012944L168.26893055555553,36.791118152905284L168.33140277777775,36.912348587065964L168.61252777777776,37.65377537347379L168.69061805555555,37.92326466646048L168.97174305555555,38.261649943888216L169.0185972222222,38.32564371405172L169.34657638888888,38.469795312266825L169.518375,38.45336626982319L169.89320833333332,38.36207909043881L170.00253472222224,38.36737878154966L170.26804166666668,38.40500658843669L170.29927777777777,38.41653341660279L170.34613194444444,38.44912651693451L170.67411111111113,38.48860921571034L170.70534722222223,38.49510133732113L170.78343750000002,38.503050873987405L170.95523611111113,38.6324958293699L171.14265277777778,38.78234459552917L171.40815972222225,38.73226251453164L171.68928472222223,38.807915605139016L171.78299305555555,38.847663288470386L171.9391736111111,39.6891217445955L172.2202986111111,40.32269981689754L172.23591666666667,40.4007377685048L172.65760416666666,39.396048826165526L172.7825486111111,39.50138018699366L172.93872916666666,39.0249379561283L173.11052777777778,38.974193413741915L173.43850694444444,38.574861688539414L173.71963194444444,38.32763109821829L174.2194097222222,37.93465900234881L174.32873611111108,37.79766198713335L175.140875,37.26398309227082L175.1721111111111,37.230065069161384L175.32829166666667,37.05464529339227L175.43761805555556,36.996348691172926L175.85930555555555,36.843850079458235L176.18728472222222,36.688304145354806L176.3434652777778,36.61145862424749L176.59335416666667,36.89671449828896L176.6245902777778,36.91976815462115L176.7339166666667,37.234569806605606L177.23369444444447,37.78163042152303L177.3117847222222,37.80693644657734L177.4835833333333,37.809851276688306L177.5616736111111,37.89795864140618L178.23325,37.83807213185358L178.28010416666666,37.77686069952327L178.5924652777778,37.70518237724903L178.68617361111112,37.60329581564295L178.70179166666668,37.5920339720324L179.1078611111111,37.43330822326246L179.2171875,37.497434485703735L180.201125,36.68843663763258L180.34168749999998,36.0462465672754L180.45101388888887,35.97589316777888L180.49786805555556,35.68083286518234L180.60719444444445,35.530189145356445L180.6540486111111,35.47242251224819L180.99764583333334,35.41068111080679L181.16944444444445,35.08978481404486L181.34124305555557,34.867992741055815L181.52865972222222,34.64116596151146L181.54427777777778,34.58763908129188L181.59113194444444,34.74477492272857L181.96596527777777,34.818705613724916L182.05967361111112,34.98405597638342L182.4188888888889,35.06779109593484L182.57506944444447,35.074150725267856L182.7000138888889,35.21379758603874L183.65271527777776,34.94616318494084L183.79327777777777,34.940995986107765L183.93384027777776,35.06686364999044L184.48047222222223,35.335955466143815L184.9177777777778,35.437974520027666L184.96463194444445,35.42578523047271L185.58935416666668,35.68957735551524L185.96418749999998,35.66268142312768L186.12036805555553,35.67261834396052L186.9793611111111,35.38921736180785L187.18239583333335,35.35331195453185L187.63531944444443,35.58861823985356L188.19756944444444,35.53191154496747L188.27565972222223,36.131041625048994L188.2912777777778,36.046379059553175L188.3225138888889,36.30023426376286L188.54116666666667,35.79331880901012L188.72858333333335,35.40167163591835L189.0877986111111,34.67402404639873L189.18150694444444,34.7805478377268L189.41577777777778,34.56299551762643L189.5094861111111,34.47767049074176L189.66566666666665,34.358162456192105L190.0405,34.246471466030954L190.30600694444445,33.924647723324625L190.64960416666668,33.64190920256081L191.1337638888889,33.517896430566935L191.24309027777778,33.47841373179111L191.4148888888889,33.417997253127425L191.6647777777778,33.452445245347946L191.72725000000003,33.38672907557341L191.83657638888891,33.50676707923415L191.91466666666665,33.50875446340072L192.570625,33.43601620290431L193.132875,33.28881728230047L193.57018055555557,33.23913267813626L193.60141666666667,33.26907593291256L193.61703472222223,33.27835039235654L193.64827083333333,33.3098835544661L193.74197916666668,33.26973839430141L193.88254166666667,33.308558631688385L193.97625,33.29371949657801L194.05434027777778,33.377322123851656L194.5072638888889,33.38858396746221L194.72591666666665,33.518956368789105L194.89771527777776,33.586394938174664L195.0538958333333,33.899871667381404L195.11636805555554,33.96704525221142L195.1319861111111,33.968635159544675L195.56929166666666,37.54698659759018L195.70985416666667,37.22291048616174L195.8347986111111,37.583156989421724L196.06906944444444,37.31088535860184L196.0846875,37.19190729316327L196.27210416666668,37.84761157585311L196.7562638888889,40.18729270901534L196.89682638888888,40.13297087512913L197.09986111111112,40.138535550795524L197.16233333333335,40.129923552740394L197.2404236111111,40.01717262435707L197.38098611111113,39.951986423693626L197.50593055555558,40.02233982319015L197.61525694444447,39.852087246254115L197.63087499999997,39.874610933475225L197.89638194444444,39.413272822275786L198.3649236111111,38.82023738697174L198.52110416666667,38.726167869754164L199.09897222222222,38.20852054050195L199.23953472222223,38.17182017955932L199.25515277777777,38.12332800589505L199.34886111111112,38.121075637172936L199.59875,37.87278510862964L199.70807638888888,37.6656996784732L200.14538194444447,37.22529534716162L200.161,37.20939627382907L200.30156250000002,37.159049208276L200.37965277777778,37.124998692888795L200.55145138888886,37.080878764390974L200.69201388888888,37.07809642655778L200.91066666666666,36.90466403495523L201.08246527777777,36.95063885534185L201.50415277777776,36.737458780407934L201.55100694444445,36.72076475340876L201.69156944444444,36.65677098324525L202.08202083333333,36.60536397947001L202.14449305555556,36.579792969860165L202.28505555555554,36.642064340412645L202.50370833333335,36.571313464082806L202.59741666666667,36.53342067264023L202.62865277777777,36.50056258775297L203.15966666666668,30.911773326806752L203.253375,31.250291096512257L203.34708333333336,30.76987409731376L203.37831944444446,31.190272094681887L203.39393750000002,31.486524827778368L203.55011805555554,31.386625650338857L203.62820833333336,31.12084614112976L203.8468611111111,30.421684391330956L203.9874236111111,30.423671775497525L204.2373125,30.30601863283667L204.6277638888889,30.569943250156967L204.92450694444443,30.505022034049063L205.06506944444445,30.538675072602956L205.34619444444445,30.578422755934326L205.76788194444444,30.830820545088528L206.12709722222223,30.79571009147915L206.15833333333333,30.77530628070238L206.1739513888889,30.7904104003683L206.9704722222222,30.96185540780428L207.09541666666667,31.00398795213553L207.14227083333333,31.076991197187482L207.28283333333331,31.06943913735452L207.87631944444445,31.272947276011138L208.36047916666666,31.27215232234451L208.6728402777778,31.24538888223472L208.89149305555557,31.16788089973855L208.96958333333333,31.137275183573394L209.45374305555555,31.075003813020913L209.5786875,30.991268693469493L209.6099236111111,31.008492689579754L210.1409375,30.92528753913942L210.18779166666667,30.931382183916895L210.40644444444445,30.938271782361L210.4532986111111,30.918795417528628L210.62509722222222,30.894946807529806L210.71880555555555,30.873218073975323L211.1561111111111,29.27708360366526L211.2029652777778,29.18698885478082L211.21858333333333,29.17718442622575L211.31229166666668,29.391159454826294L211.34352777777778,29.473569651600002L211.60903472222222,28.99381511379036L211.73397916666667,29.029853013344137L211.8745416666667,29.420572740491508L212.1088125,29.934245301410584L212.35870138888887,30.752120132092415L212.96780555555554,31.31190000567588L213.15522222222222,31.954885029699682L213.18645833333332,31.938853464089362L213.34263888888887,32.10950351785871L213.51443749999999,32.14898621663454L213.62376388888887,32.20688534202057L213.7330902777778,32.17654461041096L213.7643263888889,32.161440490745036L214.02983333333333,32.05438673030588L214.3265763888889,31.57357225427407L214.8888263888889,31.540846661664574L215.04500694444445,31.58430412877354L215.31051388888886,31.681288476102083L215.40422222222222,31.680626014713226L215.5447847222222,31.741439970210223L216.01332638888888,31.756809074431686L216.37254166666668,31.69718754943463L216.3881597222222,31.68870804365727L216.66928472222222,31.678108661435573L217.10659027777777,31.455256650224356L217.18468055555556,31.43723770044747L217.38771527777777,31.350057781673996L217.60636805555558,31.323956802953063L217.7313125,31.284606596455006L217.8094027777778,31.245653866790263L217.8406388888889,31.234259530901937L217.85625694444445,31.218095473013847L218.16861805555558,31.169338314794032L218.24670833333332,31.183912465348868L218.4653611111111,31.086928118020325L218.62154166666664,31.04771040380004L218.69963194444443,26.866254117339878L218.80895833333332,29.840705753304093L219.1057013888889,29.52590410131964L219.29311805555554,29.505235305987327L219.83975,28.427808103151648L219.9803125,28.274249553214787L220.72997916666668,28.838534164242475L220.80806944444444,28.756653936579852L221.04234027777775,28.855493175797193L221.21413888888887,28.7909694365226L221.2766111111111,28.751619230024545L221.5265,28.594880865421175L221.7295347222222,28.67371377069506L222.04189583333334,28.72962551191452L222.18245833333333,28.630256303586094L222.30740277777778,28.721410990692704L222.61976388888888,28.455101512372522L222.8696527777778,28.61038246192041L223.1820138888889,28.54811109136793L223.22886805555555,28.543473861645936L223.47875694444446,28.640060732141166L223.72864583333333,28.674243739806144L223.90044444444445,28.664704295806615L224.83752777777778,28.51604796014729L224.97809027777777,28.5685149021447L224.99370833333333,28.567189979366987L225.46225,28.819455276243417L225.75899305555555,29.076755279675154L225.8058472222222,29.121670161839603L226.14944444444444,29.482181649655132L226.8366388888889,33.45642001368108L227.16461805555554,32.68584492616358L227.2583263888889,32.547522988170414L227.2895625,32.778324536047904L227.61754166666665,32.65775656327608L227.96113888888888,32.81860218849036L228.4140625,32.71009101299572L229.13249305555556,33.83998515782881L229.38238194444446,33.68722156155857L229.5697986111111,33.56016146717596L230.49126388888888,34.011562657542555L230.74115277777778,34.057669970206945L231.2253125,34.52854752540591L231.35025694444445,34.71827646717432L231.67823611111112,34.79591694194826L232.0686875,35.57563399663198L232.1467777777778,35.67566566634926L232.3498125,36.02677020244303L232.55284722222223,36.26605125609788L232.64655555555558,36.3322973949835L233.30251388888888,36.268701101653306L233.31813194444445,36.312423553317814L233.3962222222222,36.34766649920496L233.63049305555555,36.56283395830545L234.53634027777778,31.2602280173451L234.80184722222222,32.293402799405186L235.22353472222224,33.851644478272675L235.23915277777778,33.63859689561653L235.36409722222223,33.61527825472879L235.5515138888889,34.22169541008773L235.59836805555557,34.185392525978415L235.73893055555558,33.97340488154444L235.97320138888887,33.82514602271843L236.0356736111111,33.96360045298937L236.06690972222222,34.039386035874514L236.30118055555553,34.01076770387593L236.58230555555554,34.69813764095309L236.86343055555554,34.687670751009165L237.09770138888888,34.68038367573175L237.25388194444446,34.69151302706453L237.30073611111112,34.61625741329047L237.48815277777777,34.37896374380219L237.50377083333333,34.386250819079606L237.56624305555556,34.36518454691398L238.0035486111111,33.981354418210714L238.40961805555557,33.46065976656976L238.92501388888888,33.29517691163349L239.15928472222222,33.13101897947493L239.72153472222223,32.75712577160451L239.799625,32.69644430838528L240.54929166666668,32.447756303008674L240.6117638888889,32.41701809456575L240.924125,32.377137918956606L241.67379166666666,32.10526376497003L241.68940972222225,32.08750979974869L242.09547916666665,31.769528333097725L242.1423333333333,35.57709141168746L242.79829166666667,27.8946591774002L243.04818055555555,28.286041365936427L243.59481250000002,28.270804753992735L243.82908333333333,28.045302897226094L243.95402777777778,27.893864223733573L244.03211805555557,27.7785959420726L244.0477361111111,27.77329625096175L244.56313194444442,27.41490463959056L244.8286388888889,27.413182239979534L244.87549305555555,27.319907676428585L244.92234722222221,27.35356071498248L245.12538194444443,27.361642743926524L245.54706944444445,27.381914062425523L245.82819444444445,27.48777539236474L245.93752083333334,27.34826102387163L246.04684722222223,27.398475597146927L246.39044444444446,27.45875958353284L246.71842361111112,27.525800676085083L246.92145833333333,27.61881025508049L247.4680902777778,27.698835590854316L247.82730555555554,27.68333399435508L247.8741597222222,27.664652583189337L248.07719444444444,27.676046919077663L248.13966666666667,27.677371841855376L248.233375,27.69088605418804L248.9049513888889,27.662002737633912L248.92056944444445,27.678166795522003L249.2173125,27.678696764633088L249.26416666666668,27.663062675856082L249.3891111111111,27.672867104411154L249.40472916666667,27.68982611596587L249.42034722222223,27.674192027188866L249.51405555555556,27.663592644967167L249.8264166666667,27.595756598748295L249.8576527777778,27.598803921137034L250.1387777777778,27.032134449109464L250.91968055555554,26.209092419594555L251.13833333333332,26.594379963353305L251.23204166666667,26.589080272242455L251.76305555555555,26.427307201083778L252.40339583333335,26.525483978912263L252.8407013888889,26.44996338058266L253.26238888888886,26.348871772643207L253.34047916666665,26.289382739923923L253.43418749999998,26.285010494757472L253.79340277777777,26.382789795752643L254.18385416666666,26.32038593292239L254.37127083333334,26.300247106701164L254.38688888888888,26.32144587114456L254.48059722222223,26.272158743813662L254.62115972222222,26.21823438676077L254.88666666666666,26.337874913588195L255.07408333333333,26.314556272700457L255.16779166666666,26.301174552645563L255.4801527777778,26.293622492812602L255.54262500000002,26.29653732292357L255.91745833333334,26.159010338597028L255.94869444444444,26.13224689848724L256.08925694444446,26.082429802045255L256.87015972222224,26.155698031652747L257.24499305555554,26.239433151204167L257.26061111111113,26.249900041148095L257.60420833333336,26.26420920714739L258.1508402777778,25.495356519240914L258.1664583333333,25.401154509745567L258.54129166666667,24.870920414105086L258.5725277777778,24.87436521332714L258.58814583333333,24.873040290549426L259.0566875,25.109803990926622L259.4471388888889,25.55166573729369L259.49399305555556,25.586378714069753L259.5252291666667,25.534971710294514L259.7595,25.560675212182133L259.8532083333333,25.580549053847818L260.16556944444443,25.72788046672943L260.32175,25.638978148344933L260.33736805555554,25.60863741673532L260.4623125,25.6621642969549L260.52478472222225,25.586643698625295L260.6184930555555,25.533911772072344L260.8683819444444,25.53338180296126L261.53995833333335,25.5143029149622L261.727375,25.592075882013916L261.8991736111111,25.57339447084817L262.0553541666667,25.554713059682427L262.0709722222222,25.543981185182957L262.1334444444444,25.55723041296008L262.1959166666667,25.56239761179316L262.2583888888889,25.522252451628475L262.5238958333333,25.543451216071873L262.6176041666667,25.60969735495749L262.6800763888889,25.61526203062388L262.7113125,25.589028559625177L263.1017638888889,25.586378714069753L263.3985069444445,25.6216216599569L263.50783333333334,25.69780471967536L263.52345138888893,25.69237253628674L263.7733402777778,25.888461107388167L263.82019444444444,25.88978603016588L264.3199722222222,25.989950192160933L264.3355902777778,25.99816471338275L264.3512083333333,25.990347668994247L264.7260416666667,26.159937784541427L264.94469444444445,26.214524602983175L265.4913263888889,26.296802307479112" style="fill: none;" fill="none"></path></g></g></g></g></g></g><g transform="translate(48, 177)" clip-path="url(#clip_1)"><clipPath id="clip_1"><rect width="281" height="22"></rect></clipPath><g><g><line x1="0" y1="0" x2="0" y2="5" style="visibility: inherit;" fill="rgb(0, 0, 0)" stroke="rgb(204, 204, 204)" stroke-width="1.3333333730697632px"></line><line x1="31.23611111111111" y1="0" x2="31.23611111111111" y2="5" style="visibility: inherit;" fill="rgb(0, 0, 0)" stroke="rgb(204, 204, 204)" stroke-width="1.3333333730697632px"></line><line x1="62.47222222222222" y1="0" x2="62.47222222222222" y2="5" style="visibility: inherit;" fill="rgb(0, 0, 0)" stroke="rgb(204, 204, 204)" stroke-width="1.3333333730697632px"></line><line x1="93.70833333333333" y1="0" x2="93.70833333333333" y2="5" style="visibility: inherit;" fill="rgb(0, 0, 0)" stroke="rgb(204, 204, 204)" stroke-width="1.3333333730697632px"></line><line x1="124.94444444444444" y1="0" x2="124.94444444444444" y2="5" style="visibility: inherit;" fill="rgb(0, 0, 0)" stroke="rgb(204, 204, 204)" stroke-width="1.3333333730697632px"></line><line x1="156.18055555555557" y1="0" x2="156.18055555555557" y2="5" style="visibility: inherit;" fill="rgb(0, 0, 0)" stroke="rgb(204, 204, 204)" stroke-width="1.3333333730697632px"></line><line x1="187.41666666666666" y1="0" x2="187.41666666666666" y2="5" style="visibility: inherit;" fill="rgb(0, 0, 0)" stroke="rgb(204, 204, 204)" stroke-width="1.3333333730697632px"></line><line x1="218.65277777777777" y1="0" x2="218.65277777777777" y2="5" style="visibility: inherit;" fill="rgb(0, 0, 0)" stroke="rgb(204, 204, 204)" stroke-width="1.3333333730697632px"></line><line x1="249.88888888888889" y1="0" x2="249.88888888888889" y2="5" style="visibility: inherit;" fill="rgb(0, 0, 0)" stroke="rgb(204, 204, 204)" stroke-width="1.3333333730697632px"></line><line x1="281.125" y1="0" x2="281.125" y2="5" style="visibility: inherit;" fill="rgb(0, 0, 0)" stroke="rgb(204, 204, 204)" stroke-width="1.3333333730697632px"></line></g><g transform="translate(0, 8)"><text x="0" y="0" dx="0em" dy="0.95em" style="text-anchor: middle; visibility: hidden; font-family: &quot;Helvetica Neue&quot;, sans-serif; font-size: 16px; font-weight: 200;" fill="rgb(50, 49, 63)" stroke="none" stroke-width="1.3333333730697632px">-2k</text><text x="31.23611111111111" y="0" dx="0em" dy="0.95em" style="text-anchor: middle; visibility: inherit; font-family: &quot;Helvetica Neue&quot;, sans-serif; font-size: 16px; font-weight: 200;" fill="rgb(50, 49, 63)" stroke="none" stroke-width="1.3333333730697632px">0</text><text x="62.47222222222222" y="0" dx="0em" dy="0.95em" style="text-anchor: middle; visibility: inherit; font-family: &quot;Helvetica Neue&quot;, sans-serif; font-size: 16px; font-weight: 200;" fill="rgb(50, 49, 63)" stroke="none" stroke-width="1.3333333730697632px">2k</text><text x="93.70833333333333" y="0" dx="0em" dy="0.95em" style="text-anchor: middle; visibility: inherit; font-family: &quot;Helvetica Neue&quot;, sans-serif; font-size: 16px; font-weight: 200;" fill="rgb(50, 49, 63)" stroke="none" stroke-width="1.3333333730697632px">4k</text><text x="124.94444444444444" y="0" dx="0em" dy="0.95em" style="text-anchor: middle; visibility: inherit; font-family: &quot;Helvetica Neue&quot;, sans-serif; font-size: 16px; font-weight: 200;" fill="rgb(50, 49, 63)" stroke="none" stroke-width="1.3333333730697632px">6k</text><text x="156.18055555555557" y="0" dx="0em" dy="0.95em" style="text-anchor: middle; visibility: inherit; font-family: &quot;Helvetica Neue&quot;, sans-serif; font-size: 16px; font-weight: 200;" fill="rgb(50, 49, 63)" stroke="none" stroke-width="1.3333333730697632px">8k</text><text x="187.41666666666666" y="0" dx="0em" dy="0.95em" style="text-anchor: middle; visibility: inherit; font-family: &quot;Helvetica Neue&quot;, sans-serif; font-size: 16px; font-weight: 200;" fill="rgb(50, 49, 63)" stroke="none" stroke-width="1.3333333730697632px">10k</text><text x="218.65277777777777" y="0" dx="0em" dy="0.95em" style="text-anchor: middle; visibility: inherit; font-family: &quot;Helvetica Neue&quot;, sans-serif; font-size: 16px; font-weight: 200;" fill="rgb(50, 49, 63)" stroke="none" stroke-width="1.3333333730697632px">12k</text><text x="249.88888888888889" y="0" dx="0em" dy="0.95em" style="text-anchor: middle; visibility: inherit; font-family: &quot;Helvetica Neue&quot;, sans-serif; font-size: 16px; font-weight: 200;" fill="rgb(50, 49, 63)" stroke="none" stroke-width="1.3333333730697632px">14k</text><text x="281.125" y="0" dx="0em" dy="0.95em" style="text-anchor: middle; visibility: hidden; font-family: &quot;Helvetica Neue&quot;, sans-serif; font-size: 16px; font-weight: 200;" fill="rgb(50, 49, 63)" stroke="none" stroke-width="1.3333333730697632px">16k</text></g><line x1="0" y1="0" x2="281.125" y2="0" fill="rgb(0, 0, 0)" stroke="rgb(204, 204, 204)" stroke-width="1.3333333730697632px"></line></g></g></g></g></svg>